<?xml version="1.0" encoding="UTF-8"?>
<svg xmlns="http://www.w3.org/2000/svg"
     xmlns:xlink="http://www.w3.org/1999/xlink"
     xmlns:gadfly="http://www.gadflyjl.org/ns"
     version="1.2"
     width="152.4mm" height="101.6mm" viewBox="0 0 152.4 101.6"
     stroke="none"
     fill="#000000"
     stroke-width="0.3"
     font-size="3.88"
>
<g class="plotroot xscalable yscalable" id="img-0033eb2a-1">
  <g font-size="3.88" font-family="'PT Sans','Helvetica Neue','Helvetica',sans-serif" fill="#564A55" stroke="#000000" stroke-opacity="0.000" id="img-0033eb2a-2">
    <text x="83.24" y="89.99" text-anchor="middle" dy="0.6em">Frequency (Hz)</text>
  </g>
  <g class="guide xlabels" font-size="2.82" font-family="'PT Sans Caption','Helvetica Neue','Helvetica',sans-serif" fill="#6C606B" id="img-0033eb2a-3">
    <text x="21.07" y="83.32" text-anchor="middle" dy="0.6em">0</text>
    <text x="83.24" y="83.32" text-anchor="middle" dy="0.6em">5</text>
    <text x="145.4" y="83.32" text-anchor="middle" dy="0.6em">10</text>
  </g>
<g clip-path="url(#img-0033eb2a-4)">
  <g id="img-0033eb2a-5">
    <g pointer-events="visible" opacity="1" fill="#000000" fill-opacity="0.000" stroke="#000000" stroke-opacity="0.000" class="guide background" id="img-0033eb2a-6">
      <rect x="19.07" y="5" width="128.33" height="77.32"/>
    </g>
    <g class="guide ygridlines xfixed" stroke-dasharray="0.5,0.5" stroke-width="0.2" stroke="#D0D0E0" id="img-0033eb2a-7">
      <path fill="none" d="M19.07,80.31 L 147.4 80.31"/>
      <path fill="none" d="M19.07,68.1 L 147.4 68.1"/>
      <path fill="none" d="M19.07,55.88 L 147.4 55.88"/>
      <path fill="none" d="M19.07,43.66 L 147.4 43.66"/>
      <path fill="none" d="M19.07,31.44 L 147.4 31.44"/>
      <path fill="none" d="M19.07,19.22 L 147.4 19.22"/>
      <path fill="none" d="M19.07,7 L 147.4 7"/>
    </g>
    <g class="guide xgridlines yfixed" stroke-dasharray="0.5,0.5" stroke-width="0.2" stroke="#D0D0E0" id="img-0033eb2a-8">
      <path fill="none" d="M21.07,5 L 21.07 82.32"/>
      <path fill="none" d="M83.24,5 L 83.24 82.32"/>
      <path fill="none" d="M145.4,5 L 145.4 82.32"/>
    </g>
    <g class="plotpanel" id="img-0033eb2a-9">
      <g stroke-width="0.3" fill="#000000" fill-opacity="0.000" class="geometry" stroke-dasharray="none" stroke="#00BFFF" id="img-0033eb2a-10">
        <path fill="none" d="M21.07,7 L 21.19 7.12 21.31 7.23 21.44 7.35 21.56 7.47 21.68 7.58 21.8 7.7 21.92 7.81 22.04 7.93 22.17 8.05 22.29 8.16 22.41 8.28 22.53 8.4 22.65 8.51 22.77 8.63 22.89 8.74 23.02 8.86 23.14 8.98 23.26 9.09 23.38 9.21 23.5 9.33 23.62 9.44 23.75 9.56 23.87 9.68 23.99 9.79 24.11 9.91 24.23 10.02 24.35 10.14 24.47 10.26 24.6 10.37 24.72 10.49 24.84 10.61 24.96 10.72 25.08 10.84 25.2 10.96 25.33 11.07 25.45 11.19 25.57 11.3 25.69 11.42 25.81 11.54 25.93 11.65 26.05 11.77 26.18 11.89 26.3 12 26.42 12.12 26.54 12.23 26.66 12.35 26.78 12.47 26.91 12.58 27.03 12.7 27.15 12.82 27.27 12.93 27.39 13.05 27.51 13.17 27.63 13.28 27.76 13.4 27.88 13.51 28 13.63 28.12 13.75 28.24 13.86 28.36 13.98 28.49 14.1 28.61 14.21 28.73 14.33 28.85 14.44 28.97 14.56 29.09 14.68 29.21 14.79 29.34 14.91 29.46 15.03 29.58 15.14 29.7 15.26 29.82 15.38 29.94 15.49 30.07 15.61 30.19 15.72 30.31 15.84 30.43 15.96 30.55 16.07 30.67 16.19 30.79 16.31 30.92 16.42 31.04 16.54 31.16 16.66 31.28 16.77 31.4 16.89 31.52 17 31.65 17.12 31.77 17.24 31.89 17.35 32.01 17.47 32.13 17.59 32.25 17.7 32.37 17.82 32.5 17.93 32.62 18.05 32.74 18.17 32.86 18.28 32.98 18.4 33.1 18.52 33.22 18.63 33.35 18.75 33.47 18.87 33.59 18.98 33.71 19.1 33.83 19.21 33.95 19.33 34.08 19.45 34.2 19.56 34.32 19.68 34.44 19.8 34.56 19.91 34.68 20.03 34.8 20.14 34.93 20.26 35.05 20.38 35.17 20.49 35.29 20.61 35.41 20.73 35.53 20.84 35.66 20.96 35.78 21.08 35.9 21.19 36.02 21.31 36.14 21.42 36.26 21.54 36.38 21.66 36.51 21.77 36.63 21.89 36.75 22.01 36.87 22.12 36.99 22.24 37.11 22.36 37.24 22.47 37.36 22.59 37.48 22.7 37.6 22.82 37.72 22.94 37.84 23.05 37.96 23.17 38.09 23.29 38.21 23.4 38.33 23.52 38.45 23.63 38.57 23.75 38.69 23.87 38.82 23.98 38.94 24.1 39.06 24.22 39.18 24.33 39.3 24.45 39.42 24.57 39.54 24.68 39.67 24.8 39.79 24.91 39.91 25.03 40.03 25.15 40.15 25.26 40.27 25.38 40.4 25.5 40.52 25.61 40.64 25.73 40.76 25.84 40.88 25.96 41 26.08 41.12 26.19 41.25 26.31 41.37 26.43 41.49 26.54 41.61 26.66 41.73 26.78 41.85 26.89 41.98 27.01 42.1 27.12 42.22 27.24 42.34 27.36 42.46 27.47 42.58 27.59 42.7 27.71 42.83 27.82 42.95 27.94 43.07 28.06 43.19 28.17 43.31 28.29 43.43 28.4 43.56 28.52 43.68 28.64 43.8 28.75 43.92 28.87 44.04 28.99 44.16 29.1 44.28 29.22 44.41 29.33 44.53 29.45 44.65 29.57 44.77 29.68 44.89 29.8 45.01 29.92 45.14 30.03 45.26 30.15 45.38 30.27 45.5 30.38 45.62 30.5 45.74 30.61 45.86 30.73 45.99 30.85 46.11 30.96 46.23 31.08 46.35 31.2 46.47 31.31 46.59 31.43 46.72 31.54 46.84 31.66 46.96 31.78 47.08 31.89 47.2 32.01 47.32 32.13 47.44 32.24 47.57 32.36 47.69 32.48 47.81 32.59 47.93 32.71 48.05 32.82 48.17 32.94 48.3 33.06 48.42 33.17 48.54 33.29 48.66 33.41 48.78 33.52 48.9 33.64 49.02 33.76 49.15 33.87 49.27 33.99 49.39 34.1 49.51 34.22 49.63 34.34 49.75 34.45 49.88 34.57 50 34.69 50.12 34.8 50.24 34.92 50.36 35.03 50.48 35.15 50.6 35.27 50.73 35.38 50.85 35.5 50.97 35.62 51.09 35.73 51.21 35.85 51.33 35.97 51.45 36.08 51.58 36.2 51.7 36.31 51.82 36.43 51.94 36.55 52.06 36.66 52.18 36.78 52.31 36.9 52.43 37.01 52.55 37.13 52.67 37.24 52.79 37.36 52.91 37.48 53.03 37.59 53.16 37.71 53.28 37.83 53.4 37.94 53.52 38.06 53.64 38.18 53.76 38.29 53.89 38.41 54.01 38.52 54.13 38.64 54.25 38.76 54.37 38.87 54.49 38.99 54.61 39.11 54.74 39.22 54.86 39.34 54.98 39.46 55.1 39.57 55.22 39.69 55.34 39.8 55.47 39.92 55.59 40.04 55.71 40.15 55.83 40.27 55.95 40.39 56.07 40.5 56.19 40.62 56.32 40.73 56.44 40.85 56.56 40.97 56.68 41.08 56.8 41.2 56.92 41.32 57.05 41.43 57.17 41.55 57.29 41.67 57.41 41.78 57.53 41.9 57.65 42.01 57.77 42.13 57.9 42.25 58.02 42.36 58.14 42.48 58.26 42.6 58.38 42.71 58.5 42.83 58.63 42.94 58.75 43.06 58.87 43.18 58.99 43.29 59.11 43.41 59.23 43.53 59.35 43.64 59.48 43.76 59.6 43.88 59.72 43.99 59.84 44.11 59.96 44.22 60.08 44.34 60.21 44.46 60.33 44.57 60.45 44.69 60.57 44.81 60.69 44.92 60.81 45.04 60.93 45.15 61.06 45.27 61.18 45.39 61.3 45.5 61.42 45.62 61.54 45.74 61.66 45.85 61.79 45.97 61.91 46.09 62.03 46.2 62.15 46.32 62.27 46.43 62.39 46.55 62.51 46.67 62.64 46.78 62.76 46.9 62.88 47.02 63 47.13 63.12 47.25 63.24 47.37 63.37 47.48 63.49 47.6 63.61 47.71 63.73 47.83 63.85 47.95 63.97 48.06 64.09 48.18 64.22 48.3 64.34 48.41 64.46 48.53 64.58 48.64 64.7 48.76 64.82 48.88 64.95 48.99 65.07 49.11 65.19 49.23 65.31 49.34 65.43 49.46 65.55 49.58 65.67 49.69 65.8 49.81 65.92 49.92 66.04 50.04 66.16 50.16 66.28 50.27 66.4 50.39 66.53 50.51 66.65 50.62 66.77 50.74 66.89 50.85 67.01 50.97 67.13 51.09 67.25 51.2 67.38 51.32 67.5 51.44 67.62 51.55 67.74 51.67 67.86 51.79 67.98 51.9 68.1 52.02 68.23 52.13 68.35 52.25 68.47 52.37 68.59 52.48 68.71 52.6 68.83 52.72 68.96 52.83 69.08 52.95 69.2 53.07 69.32 53.18 69.44 53.3 69.56 53.41 69.68 53.53 69.81 53.65 69.93 53.76 70.05 53.88 70.17 54 70.29 54.11 70.41 54.23 70.54 54.34 70.66 54.46 70.78 54.58 70.9 54.69 71.02 54.81 71.14 54.93 71.26 55.04 71.39 55.16 71.51 55.28 71.63 55.39 71.75 55.51 71.87 55.62 71.99 55.74 72.12 55.86 72.24 55.97 72.36 56.09 72.48 56.21 72.6 56.32 72.72 56.44 72.84 56.55 72.97 56.67 73.09 56.79 73.21 56.9 73.33 57.02 73.45 57.14 73.57 57.25 73.7 57.37 73.82 57.49 73.94 57.6 74.06 57.72 74.18 57.83 74.3 57.95 74.42 58.07 74.55 58.18 74.67 58.3 74.79 58.42 74.91 58.53 75.03 58.65 75.15 58.77 75.28 58.88 75.4 59 75.52 59.11 75.64 59.23 75.76 59.35 75.88 59.46 76 59.58 76.13 59.7 76.25 59.81 76.37 59.93 76.49 60.04 76.61 60.16 76.73 60.28 76.86 60.39 76.98 60.51 77.1 60.63 77.22 60.74 77.34 60.86 77.46 60.98 77.58 61.09 77.71 61.21 77.83 61.32 77.95 61.44 78.07 61.56 78.19 61.67 78.31 61.79 78.44 61.91 78.56 62.02 78.68 62.14 78.8 62.25 78.92 62.37 79.04 62.49 79.16 62.6 79.29 62.72 79.41 62.84 79.53 62.95 79.65 63.07 79.77 63.19 79.89 63.3 80.02 63.42 80.14 63.53 80.26 63.65 80.38 63.77 80.5 63.88 80.62 64 80.74 64.12 80.87 64.23 80.99 64.35 81.11 64.47 81.23 64.58 81.35 64.7 81.47 64.81 81.6 64.93 81.72 65.05 81.84 65.16 81.96 65.28 82.08 65.4 82.2 65.51 82.32 65.63 82.45 65.74 82.57 65.86 82.69 65.98 82.81 66.09 82.93 66.21 83.05 66.33 83.18 66.44 83.3 66.56 83.42 66.68 83.54 66.79 83.66 66.91 83.78 67.02 83.9 67.14 84.03 67.26 84.15 67.37 84.27 67.49 84.39 67.61 84.51 67.72 84.63 67.84 84.75 67.95 84.88 68.07 85 68.19 85.12 68.3 85.24 68.42 85.36 68.54 85.48 68.65 85.61 68.77 85.73 68.89 85.85 69 85.97 69.12 86.09 69.23 86.21 69.35 86.33 69.47 86.46 69.58 86.58 69.7 86.7 69.82 86.82 69.93 86.94 70.05 87.06 70.17 87.19 70.28 87.31 70.4 87.43 70.51 87.55 70.63 87.67 70.75 87.79 70.86 87.91 70.98 88.04 71.1 88.16 71.21 88.28 71.33 88.4 71.44 88.52 71.56 88.64 71.68 88.77 71.79 88.89 71.91 89.01 72.03 89.13 72.14 89.25 72.26 89.37 72.38 89.49 72.49 89.62 72.61 89.74 72.72 89.86 72.84 89.98 72.96 90.1 73.07 90.22 73.19 90.35 73.31 90.47 73.42 90.59 69.7 90.71 69.82 90.83 69.93 90.95 70.05 91.07 70.17 91.2 70.28 91.32 70.4 91.44 70.51 91.56 70.63 91.68 70.75 91.8 70.86 91.93 70.98 92.05 71.1 92.17 71.21 92.29 71.33 92.41 71.44 92.53 71.56 92.65 71.68 92.78 71.79 92.9 71.91 93.02 72.03 93.14 72.14 93.26 72.26 93.38 72.38 93.51 72.49 93.63 72.61 93.75 72.72 93.87 72.84 93.99 72.96 94.11 73.07 94.23 73.19 94.36 73.31 94.48 73.42 94.6 73.54 94.72 73.65 94.84 73.77 94.96 73.89 95.09 74 95.21 74.12 95.33 74.24 95.45 74.35 95.57 74.47 95.69 74.59 95.81 74.7 95.94 74.82 96.06 74.93 96.18 75.05 96.3 75.17 96.42 75.28 96.54 75.4 96.67 75.52 96.79 75.63 96.91 75.75 97.03 75.87 97.15 75.98 97.27 76.1 97.39 76.21 97.52 76.33 97.64 72.61 97.76 72.72 97.88 72.84 98 72.96 98.12 73.07 98.25 73.19 98.37 73.31 98.49 73.42 98.61 73.54 98.73 73.65 98.85 73.77 98.97 73.89 99.1 74 99.22 74.12 99.34 74.24 99.46 74.35 99.58 74.47 99.7 74.59 99.83 74.7 99.95 74.82 100.07 74.93 100.19 75.05 100.31 75.17 100.43 75.28 100.55 75.4 100.68 75.52 100.8 75.63 100.92 75.75 101.04 75.87 101.16 75.98 101.28 76.1 101.41 76.21 101.53 76.33 101.65 76.45 101.77 76.56 101.89 76.68 102.01 72.96 102.13 73.07 102.26 73.19 102.38 73.31 102.5 73.42 102.62 73.54 102.74 73.65 102.86 73.77 102.98 73.89 103.11 74 103.23 74.12 103.35 74.24 103.47 74.35 103.59 74.47 103.71 74.59 103.84 74.7 103.96 74.82 104.08 74.93 104.2 75.05 104.32 75.17 104.44 75.28 104.56 75.4 104.69 75.52 104.81 75.63 104.93 75.75 105.05 75.87 105.17 75.98 105.29 76.1 105.42 76.21 105.54 76.33 105.66 76.45 105.78 76.56 105.9 76.68 106.02 76.8 106.14 73.07 106.27 73.19 106.39 73.31 106.51 73.42 106.63 73.54 106.75 73.65 106.87 73.77 107 73.89 107.12 74 107.24 74.12 107.36 74.24 107.48 74.35 107.6 74.47 107.72 74.59 107.85 74.7 107.97 74.82 108.09 74.93 108.21 75.05 108.33 75.17 108.45 75.28 108.58 75.4 108.7 75.52 108.82 75.63 108.94 75.75 109.06 75.87 109.18 75.98 109.3 76.1 109.43 76.21 109.55 76.33 109.67 76.45 109.79 76.56 109.91 76.68 110.03 76.8 110.16 76.91 110.28 73.19 110.4 73.31 110.52 73.42 110.64 73.54 110.76 73.65 110.88 73.77 111.01 73.89 111.13 74 111.25 74.12 111.37 74.24 111.49 74.35 111.61 74.47 111.74 74.59 111.86 74.7 111.98 74.82 112.1 74.93 112.22 75.05 112.34 75.17 112.46 75.28 112.59 75.4 112.71 75.52 112.83 75.63 112.95 75.75 113.07 75.87 113.19 75.98 113.32 76.1 113.44 76.21 113.56 76.33 113.68 76.45 113.8 76.56 113.92 76.68 114.04 76.8 114.17 76.91 114.29 77.03 114.41 73.31 114.53 73.42 114.65 73.54 114.77 73.65 114.9 73.77 115.02 73.89 115.14 74 115.26 74.12 115.38 74.24 115.5 74.35 115.62 74.47 115.75 74.59 115.87 74.7 115.99 74.82 116.11 74.93 116.23 75.05 116.35 75.17 116.48 75.28 116.6 75.4 116.72 75.52 116.84 75.63 116.96 75.75 117.08 75.87 117.2 75.98 117.33 76.1 117.45 76.21 117.57 76.33 117.69 76.45 117.81 76.56 117.93 76.68 118.06 76.8 118.18 76.91 118.3 77.03 118.42 77.14 118.54 73.42 118.66 73.54 118.78 73.65 118.91 73.77 119.03 73.89 119.15 74 119.27 74.12 119.39 74.24 119.51 74.35 119.63 74.47 119.76 74.59 119.88 74.7 120 74.82 120.12 74.93 120.24 75.05 120.36 75.17 120.49 75.28 120.61 75.4 120.73 75.52 120.85 75.63 120.97 75.75 121.09 75.87 121.21 75.98 121.34 76.1 121.46 76.21 121.58 76.33 121.7 76.45 121.82 76.56 121.94 76.68 122.07 76.8 122.19 76.91 122.31 77.03 122.43 77.14 122.55 77.26 122.67 73.54 122.79 73.65 122.92 73.77 123.04 73.89 123.16 74 123.28 74.12 123.4 74.24 123.52 74.35 123.65 74.47 123.77 74.59 123.89 74.7 124.01 74.82 124.13 74.93 124.25 75.05 124.37 75.17 124.5 75.28 124.62 75.4 124.74 75.52 124.86 75.63 124.98 75.75 125.1 75.87 125.23 75.98 125.35 76.1 125.47 76.21 125.59 76.33 125.71 76.45 125.83 76.56 125.95 76.68 126.08 76.8 126.2 76.91 126.32 77.03 126.44 77.14 126.56 77.26 126.68 77.38 126.81 73.65 126.93 73.77 127.05 73.89 127.17 74 127.29 74.12 127.41 74.24 127.53 74.35 127.66 74.47 127.78 74.59 127.9 74.7 128.02 74.82 128.14 74.93 128.26 75.05 128.39 75.17 128.51 75.28 128.63 75.4 128.75 75.52 128.87 75.63 128.99 75.75 129.11 75.87 129.24 75.98 129.36 76.1 129.48 76.21 129.6 76.33 129.72 76.45 129.84 76.56 129.97 76.68 130.09 76.8 130.21 76.91 130.33 77.03 130.45 77.14 130.57 77.26 130.69 77.38 130.82 77.49 130.94 73.77 131.06 73.89 131.18 74 131.3 74.12 131.42 74.24 131.55 74.35 131.67 74.47 131.79 74.59 131.91 74.7 132.03 74.82 132.15 74.93 132.27 75.05 132.4 75.17 132.52 75.28 132.64 75.4 132.76 75.52 132.88 75.63 133 75.75 133.13 75.87 133.25 75.98 133.37 76.1 133.49 76.21 133.61 76.33 133.73 76.45 133.85 76.56 133.98 76.68 134.1 76.8 134.22 76.91 134.34 77.03 134.46 77.14 134.58 77.26 134.71 77.38 134.83 77.49 134.95 77.61 135.07 73.89 135.19 74 135.31 74.12 135.43 74.24 135.56 74.35 135.68 74.47 135.8 74.59 135.92 74.7 136.04 74.82 136.16 74.93 136.29 75.05 136.41 75.17 136.53 75.28 136.65 75.4 136.77 75.52 136.89 75.63 137.01 75.75 137.14 75.87 137.26 75.98 137.38 76.1 137.5 76.21 137.62 76.33 137.74 76.45 137.86 76.56 137.99 76.68 138.11 76.8 138.23 76.91 138.35 77.03 138.47 77.14 138.59 77.26 138.72 77.38 138.84 77.49 138.96 77.61 139.08 77.73 139.2 74 139.32 74.12 139.44 74.24 139.57 74.35 139.69 74.47 139.81 74.59 139.93 74.7 140.05 74.82 140.17 74.93 140.3 75.05 140.42 75.17 140.54 75.28 140.66 75.4 140.78 75.52 140.9 75.63 141.02 75.75 141.15 75.87 141.27 75.98 141.39 76.1 141.51 76.21 141.63 76.33 141.75 76.45 141.88 76.56 142 76.68 142.12 76.8 142.24 76.91 142.36 77.03 142.48 77.14 142.6 77.26 142.73 77.38 142.85 77.49 142.97 77.61 143.09 77.73 143.21 77.84 143.33 74.12 143.46 74.24 143.58 74.35 143.7 74.47 143.82 74.59 143.94 74.7 144.06 74.82 144.18 74.93 144.31 75.05 144.43 75.17 144.55 75.28 144.67 75.4 144.79 75.52 144.91 75.63 145.04 75.75 145.16 75.87 145.28 75.98 145.4 76.1"/>
      </g>
    </g>
  </g>
</g>
  <g class="guide ylabels" font-size="2.82" font-family="'PT Sans Caption','Helvetica Neue','Helvetica',sans-serif" fill="#6C606B" id="img-0033eb2a-11">
    <text x="18.07" y="80.31" text-anchor="end" dy="0.35em">-60</text>
    <text x="18.07" y="68.1" text-anchor="end" dy="0.35em">-50</text>
    <text x="18.07" y="55.88" text-anchor="end" dy="0.35em">-40</text>
    <text x="18.07" y="43.66" text-anchor="end" dy="0.35em">-30</text>
    <text x="18.07" y="31.44" text-anchor="end" dy="0.35em">-20</text>
    <text x="18.07" y="19.22" text-anchor="end" dy="0.35em">-10</text>
    <text x="18.07" y="7" text-anchor="end" dy="0.35em">0</text>
  </g>
  <g font-size="3.88" font-family="'PT Sans','Helvetica Neue','Helvetica',sans-serif" fill="#564A55" stroke="#000000" stroke-opacity="0.000" id="img-0033eb2a-12">
    <text x="8.81" y="41.66" text-anchor="middle" dy="0.35em" transform="rotate(-90, 8.81, 43.66)">Phase (radians)</text>
  </g>
</g>
<defs>
  <clipPath id="img-0033eb2a-4">
  <path d="M19.07,5 L 147.4 5 147.4 82.32 19.07 82.32" />
</clipPath>
</defs>
</svg>
