<?xml version="1.0" encoding="utf-8" standalone="no"?>
<!DOCTYPE svg PUBLIC "-//W3C//DTD SVG 1.1//EN"
  "http://www.w3.org/Graphics/SVG/1.1/DTD/svg11.dtd">
<!-- Created with matplotlib (http://matplotlib.org/) -->
<svg height="432pt" version="1.1" viewBox="0 0 576 432" width="576pt" xmlns="http://www.w3.org/2000/svg" xmlns:xlink="http://www.w3.org/1999/xlink">
 <defs>
  <style type="text/css">
*{stroke-linecap:butt;stroke-linejoin:round;stroke-miterlimit:100000;}
  </style>
 </defs>
 <g id="figure_1">
  <g id="patch_1">
   <path d="M 0 432 
L 576 432 
L 576 0 
L 0 0 
z
" style="fill:#ffffff;"/>
  </g>
  <g id="axes_1">
   <g id="patch_2">
    <path d="M 72 388.8 
L 518.4 388.8 
L 518.4 43.2 
L 72 43.2 
z
" style="fill:#ffffff;"/>
   </g>
   <g id="line2d_1">
    <path clip-path="url(#p785564acaf)" d="M 72 84.222047 
L 72.4464 78.554977 
L 72.8928 86.022907 
L 73.3392 82.222091 
L 73.7856 94.700334 
L 74.232 98.851044 
L 74.6784 100.70266 
L 75.1248 107.682872 
L 75.5712 105.187531 
L 76.464 94.072132 
L 77.3568 108.087582 
L 77.8032 109.52694 
L 78.2496 109.803108 
L 78.696 105.317235 
L 79.1424 105.408102 
L 79.5888 97.20333 
L 80.0352 105.489161 
L 80.4816 103.662149 
L 80.928 96.961594 
L 81.3744 100.645557 
L 81.8208 102.059067 
L 82.2672 106.680046 
L 82.7136 117.866956 
L 83.16 121.887596 
L 83.6064 120.424742 
L 84.0528 117.25884 
L 84.9456 109.118378 
L 85.392 106.726987 
L 85.8384 107.922046 
L 86.2848 101.593526 
L 86.7312 105.535189 
L 87.1776 101.696508 
L 87.624 100.375959 
L 88.0704 103.44326 
L 88.5168 108.971463 
L 88.9632 104.663982 
L 89.4096 109.007914 
L 89.856 111.206545 
L 90.3024 103.094505 
L 91.1952 116.650223 
L 91.6416 114.195123 
L 92.088 115.099389 
L 92.5344 114.447875 
L 92.9808 116.009434 
L 93.4272 113.460985 
L 93.8736 108.783116 
L 94.32 107.56894 
L 95.2128 120.86549 
L 95.6592 115.834675 
L 96.1056 113.170431 
L 96.552 108.009526 
L 96.9984 107.063624 
L 97.4448 94.518328 
L 97.8912 98.459056 
L 98.3376 103.755464 
L 98.784 101.003723 
L 99.2304 106.688934 
L 99.6768 109.050493 
L 100.1232 116.252156 
L 100.5696 108.577928 
L 101.016 103.651417 
L 101.4624 104.052068 
L 101.9088 94.928092 
L 102.3552 97.598794 
L 102.8016 105.062282 
L 103.248 117.324105 
L 103.6944 122.674642 
L 104.1408 131.976963 
L 104.5872 130.499591 
L 105.0336 136.86182 
L 105.48 138.428061 
L 105.9264 147.703763 
L 106.3728 144.936953 
L 106.8192 149.858216 
L 107.2656 149.996007 
L 107.712 152.54866 
L 108.1584 159.169959 
L 108.6048 158.149889 
L 109.0512 162.585735 
L 109.4976 169.22849 
L 109.944 172.85118 
L 110.3904 173.540904 
L 111.2832 176.409357 
L 111.7296 170.64499 
L 112.176 177.100923 
L 112.6224 180.050188 
L 113.0688 178.762321 
L 113.5152 167.181391 
L 113.9616 163.717083 
L 114.408 170.213285 
L 114.8544 171.17513 
L 115.3008 179.997826 
L 115.7472 174.563473 
L 116.1936 166.566415 
L 116.64 166.730828 
L 117.0864 171.342087 
L 117.5328 172.984719 
L 117.9792 177.545582 
L 118.4256 177.007826 
L 119.3184 192.649299 
L 119.7648 205.527629 
L 120.6576 219.203418 
L 121.104 222.167881 
L 121.5504 229.840657 
L 122.4432 219.017186 
L 122.8896 217.120691 
L 123.336 219.321435 
L 123.7824 222.53682 
L 124.2288 230.565933 
L 124.6752 232.383053 
L 125.568 242.171594 
L 126.0144 243.946588 
L 126.4608 241.82388 
L 126.9072 241.14615 
L 127.3536 237.785474 
L 127.8 239.185827 
L 128.2464 247.149166 
L 128.6928 243.317755 
L 129.1392 253.376245 
L 129.5856 236.90642 
L 130.032 232.390984 
L 130.4784 224.961878 
L 130.9248 225.193506 
L 131.3712 226.079114 
L 131.8176 226.665173 
L 132.264 224.908054 
L 132.7104 227.653819 
L 133.1568 224.805397 
L 133.6032 229.438033 
L 134.0496 229.373547 
L 134.496 219.636223 
L 134.9424 214.524758 
L 135.3888 213.520354 
L 135.8352 216.286517 
L 136.2816 217.774772 
L 136.728 216.767559 
L 137.1744 211.40975 
L 137.6208 210.362002 
L 138.0672 215.297864 
L 138.5136 205.706277 
L 138.96 188.551582 
L 139.4064 183.23189 
L 139.8528 190.632333 
L 140.2992 182.904067 
L 140.7456 183.254893 
L 141.192 185.406889 
L 141.6384 183.938306 
L 142.0848 183.500201 
L 142.5312 174.508828 
L 142.9776 176.114076 
L 143.424 172.124878 
L 143.8704 163.859158 
L 144.3168 152.860481 
L 144.7632 145.976913 
L 145.656 160.592891 
L 146.1024 151.49688 
L 146.5488 147.131016 
L 146.9952 147.403448 
L 147.4416 148.404389 
L 147.888 145.986896 
L 148.3344 140.587551 
L 148.7808 142.984316 
L 149.2272 143.721343 
L 149.6736 146.907637 
L 150.12 153.684293 
L 150.5664 156.769906 
L 151.0128 157.675052 
L 151.4592 156.042306 
L 151.9056 157.552152 
L 152.352 160.265219 
L 152.7984 153.390437 
L 153.2448 150.63381 
L 153.6912 145.684447 
L 155.0304 159.63053 
L 155.4768 167.630235 
L 155.9232 163.017862 
L 156.816 170.269234 
L 157.2624 168.669489 
L 157.7088 170.011604 
L 158.1552 163.531955 
L 158.6016 163.565054 
L 159.048 164.739809 
L 159.4944 162.887217 
L 159.9408 162.262951 
L 160.3872 157.830618 
L 160.8336 157.894431 
L 161.28 152.558398 
L 161.7264 159.335224 
L 162.1728 161.767879 
L 162.6192 155.921009 
L 163.0656 159.225742 
L 163.512 154.49212 
L 163.9584 155.236928 
L 164.4048 156.590882 
L 165.744 147.335837 
L 167.0832 134.200965 
L 167.976 144.786415 
L 168.4224 135.248809 
L 168.8688 133.300019 
L 169.3152 132.563538 
L 169.7616 135.569398 
L 170.208 139.570486 
L 170.6544 136.441251 
L 171.1008 142.937901 
L 171.5472 128.757135 
L 171.9936 128.813523 
L 172.8864 143.185047 
L 173.3328 144.87372 
L 173.7792 147.762799 
L 174.2256 148.037717 
L 174.672 145.358791 
L 175.1184 144.678546 
L 175.5648 150.296447 
L 176.0112 142.426873 
L 176.4576 147.18753 
L 176.904 142.865689 
L 177.3504 147.415794 
L 177.7968 144.696029 
L 178.2432 134.714845 
L 178.6896 131.850176 
L 179.136 133.168943 
L 179.5824 136.871119 
L 180.4752 122.408359 
L 181.368 131.10087 
L 181.8144 125.755322 
L 182.2608 124.591248 
L 183.1536 136.192062 
L 183.6 136.460866 
L 184.0464 138.729568 
L 184.4928 131.846695 
L 184.9392 138.558195 
L 185.3856 130.181586 
L 185.832 131.165378 
L 186.2784 129.888293 
L 186.7248 128.129297 
L 187.1712 135.264823 
L 187.6176 138.15163 
L 188.064 146.400724 
L 188.5104 139.966471 
L 188.9568 138.747232 
L 189.4032 140.939709 
L 189.8496 141.132974 
L 190.296 141.613711 
L 191.1888 133.452001 
L 191.6352 131.592445 
L 192.0816 135.671867 
L 192.528 147.134544 
L 192.9744 151.836654 
L 193.8672 154.108698 
L 194.3136 152.596732 
L 194.76 147.071252 
L 195.2064 151.145708 
L 195.6528 150.671629 
L 196.0992 146.186105 
L 196.5456 150.458373 
L 196.992 151.58994 
L 197.4384 143.929594 
L 197.8848 141.533176 
L 198.3312 141.865849 
L 199.224 145.97633 
L 199.6704 142.343684 
L 200.1168 135.662383 
L 200.5632 135.534742 
L 201.0096 136.914739 
L 201.456 140.604545 
L 201.9024 139.132053 
L 202.3488 141.356803 
L 202.7952 144.988355 
L 203.2416 144.686277 
L 203.688 146.691277 
L 204.1344 140.14847 
L 204.5808 142.164982 
L 205.0272 140.625863 
L 205.4736 141.616084 
L 205.92 143.889737 
L 206.8128 138.288138 
L 207.2592 139.361504 
L 207.7056 141.027773 
L 209.0448 161.556716 
L 209.4912 166.161802 
L 209.9376 159.770492 
L 210.384 148.340122 
L 210.8304 153.855404 
L 211.2768 147.273712 
L 211.7232 154.515533 
L 212.1696 150.572136 
L 213.0624 169.204094 
L 213.5088 170.774615 
L 213.9552 164.728377 
L 214.4016 156.105213 
L 214.848 157.15814 
L 215.2944 156.157551 
L 215.7408 158.46469 
L 216.1872 156.328776 
L 216.6336 145.665751 
L 217.5264 137.711358 
L 217.9728 142.119833 
L 218.4192 137.671025 
L 218.8656 138.879277 
L 219.312 136.861881 
L 219.7584 138.556466 
L 220.2048 142.293235 
L 220.6512 143.193873 
L 221.0976 147.582855 
L 221.9904 150.896209 
L 222.8832 148.952254 
L 223.3296 147.609091 
L 223.776 142.757159 
L 224.2224 143.227749 
L 224.6688 143.279717 
L 225.1152 141.848861 
L 225.5616 136.720999 
L 226.008 138.81668 
L 226.4544 138.739735 
L 226.9008 142.949053 
L 227.3472 139.542026 
L 227.7936 133.516594 
L 228.24 130.574974 
L 229.1328 135.713843 
L 229.5792 142.234611 
L 230.0256 147.099802 
L 230.472 146.108077 
L 231.3648 150.179641 
L 231.8112 149.131685 
L 232.2576 153.265794 
L 232.704 154.194416 
L 233.1504 153.915264 
L 233.5968 161.284157 
L 234.0432 160.16417 
L 234.4896 167.654208 
L 234.936 172.122051 
L 235.3824 166.974921 
L 235.8288 164.084189 
L 236.2752 163.557365 
L 236.7216 160.579312 
L 237.168 153.490981 
L 237.6144 156.110295 
L 238.0608 157.836529 
L 238.5072 166.038196 
L 238.9536 171.052734 
L 239.4 169.645084 
L 239.8464 173.403701 
L 240.2928 153.5097 
L 240.7392 157.049216 
L 241.1856 153.747371 
L 241.632 151.530231 
L 242.0784 150.177145 
L 242.5248 153.906807 
L 242.9712 155.198048 
L 243.4176 155.230766 
L 243.864 159.838456 
L 244.3104 157.225557 
L 244.7568 158.093652 
L 245.2032 160.161503 
L 245.6496 156.162592 
L 246.096 154.928885 
L 246.5424 159.867333 
L 246.9888 154.261566 
L 247.4352 160.829975 
L 248.328 168.083708 
L 248.7744 162.201579 
L 249.6672 154.3104 
L 250.1136 157.298801 
L 250.56 155.822883 
L 251.0064 150.006574 
L 251.4528 141.758249 
L 251.8992 145.448132 
L 252.3456 145.266156 
L 252.792 134.119229 
L 253.2384 130.548002 
L 253.6848 129.918459 
L 254.1312 135.236661 
L 254.5776 135.316791 
L 255.024 135.736238 
L 255.4704 137.300038 
L 255.9168 136.999093 
L 256.3632 144.715843 
L 256.8096 141.289359 
L 257.256 140.875822 
L 257.7024 143.279206 
L 258.1488 135.744565 
L 258.5952 136.112454 
L 259.0416 140.876309 
L 259.488 137.020585 
L 259.9344 147.061251 
L 260.3808 148.145754 
L 260.8272 153.126767 
L 261.2736 151.241424 
L 261.72 150.698729 
L 262.1664 144.619257 
L 262.6128 148.965389 
L 263.0592 144.848441 
L 263.5056 152.535072 
L 263.952 151.197945 
L 264.3984 158.514055 
L 264.8448 156.334826 
L 265.2912 152.939868 
L 265.7376 154.685708 
L 266.184 153.431267 
L 267.0768 141.467222 
L 267.5232 143.121777 
L 267.9696 137.147667 
L 268.416 143.948708 
L 268.8624 145.503783 
L 269.3088 150.476618 
L 269.7552 148.400188 
L 270.2016 147.631306 
L 270.648 147.474036 
L 271.0944 142.676445 
L 271.5408 148.50167 
L 271.9872 144.358972 
L 272.88 155.718627 
L 273.3264 159.856359 
L 273.7728 167.248767 
L 274.2192 163.81931 
L 274.6656 172.565282 
L 275.112 174.357285 
L 275.5584 177.82231 
L 276.0048 189.390741 
L 276.4512 183.11661 
L 276.8976 188.721379 
L 277.344 196.43793 
L 277.7904 191.542319 
L 278.2368 193.385224 
L 278.6832 193.776263 
L 279.1296 189.168477 
L 279.576 186.792785 
L 280.4688 179.325932 
L 280.9152 173.038639 
L 281.808 181.535594 
L 282.2544 186.779422 
L 282.7008 181.154765 
L 283.1472 188.191616 
L 283.5936 182.279097 
L 284.04 185.727677 
L 284.4864 190.231298 
L 284.9328 184.081701 
L 285.3792 187.31275 
L 286.272 191.367904 
L 286.7184 195.488077 
L 287.1648 203.598523 
L 287.6112 206.655032 
L 288.0576 205.619554 
L 288.504 212.998383 
L 289.3968 218.385523 
L 289.8432 221.565516 
L 290.2896 217.720338 
L 290.736 218.657161 
L 291.1824 217.716533 
L 291.6288 211.01163 
L 292.0752 217.749164 
L 292.5216 222.71737 
L 292.968 233.124431 
L 293.4144 227.464236 
L 293.8608 230.206983 
L 294.3072 229.124832 
L 294.7536 233.172956 
L 295.2 233.626228 
L 296.0928 220.230132 
L 296.5392 218.968585 
L 296.9856 220.526528 
L 297.432 218.132406 
L 297.8784 217.013948 
L 299.664 202.512538 
L 300.1104 197.363167 
L 300.5568 196.938235 
L 301.0032 198.018138 
L 301.4496 194.279521 
L 301.896 189.589781 
L 302.3424 197.237416 
L 302.7888 191.629639 
L 303.2352 184.593789 
L 303.6816 194.089871 
L 304.128 191.053576 
L 304.5744 190.071827 
L 305.0208 193.330459 
L 305.4672 188.300749 
L 305.9136 189.28694 
L 306.36 188.309429 
L 306.8064 189.125833 
L 307.2528 184.598819 
L 307.6992 191.698793 
L 308.1456 196.409235 
L 308.592 193.463516 
L 309.0384 194.267534 
L 309.4848 192.793066 
L 309.9312 190.878781 
L 310.3776 186.464602 
L 310.824 193.83511 
L 311.2704 191.058546 
L 311.7168 192.262977 
L 312.1632 189.968251 
L 312.6096 191.451627 
L 313.056 189.222671 
L 313.5024 190.027877 
L 313.9488 186.913956 
L 314.3952 186.773011 
L 314.8416 184.005751 
L 315.288 185.016369 
L 315.7344 179.008894 
L 316.1808 176.817842 
L 316.6272 168.612834 
L 317.0736 166.656384 
L 317.52 166.798962 
L 317.9664 167.291962 
L 318.4128 162.151916 
L 318.8592 162.080945 
L 319.3056 154.924134 
L 319.752 155.506839 
L 320.1984 158.401202 
L 320.6448 165.432625 
L 321.0912 166.354294 
L 321.5376 168.431302 
L 321.984 175.533803 
L 322.4304 174.604114 
L 322.8768 172.295552 
L 323.3232 166.33212 
L 323.7696 168.110311 
L 324.216 172.309576 
L 324.6624 179.256631 
L 325.1088 179.895103 
L 325.5552 178.377806 
L 326.0016 177.397618 
L 326.8944 168.022063 
L 327.3408 170.11781 
L 327.7872 174.288483 
L 328.2336 168.491734 
L 328.68 174.269675 
L 329.1264 175.856998 
L 329.5728 180.329526 
L 330.0192 177.639845 
L 330.4656 178.787555 
L 330.912 176.400153 
L 331.3584 176.729461 
L 331.8048 176.705931 
L 332.2512 176.116761 
L 332.6976 172.720886 
L 333.144 179.137211 
L 333.5904 182.501524 
L 334.0368 190.567007 
L 334.4832 189.697983 
L 334.9296 184.463724 
L 335.8224 183.234017 
L 336.2688 185.53252 
L 336.7152 184.573589 
L 337.608 174.344163 
L 338.0544 178.912983 
L 338.5008 180.723229 
L 338.9472 180.73529 
L 339.3936 184.308462 
L 339.84 184.121288 
L 340.2864 187.21416 
L 340.7328 189.017851 
L 341.1792 194.330017 
L 341.6256 195.755306 
L 342.072 205.87052 
L 342.5184 204.164788 
L 342.9648 204.466469 
L 343.4112 212.19791 
L 343.8576 210.995987 
L 344.304 217.081688 
L 344.7504 212.367751 
L 345.1968 217.04128 
L 345.6432 211.823701 
L 346.0896 217.976925 
L 346.536 218.808078 
L 346.9824 218.653788 
L 347.4288 230.283043 
L 347.8752 225.753006 
L 348.3216 224.111141 
L 348.768 229.496586 
L 349.2144 226.409067 
L 349.6608 234.923888 
L 350.1072 236.065983 
L 350.5536 238.450358 
L 351.4464 245.931976 
L 351.8928 241.929971 
L 352.3392 245.961812 
L 352.7856 239.983769 
L 353.232 244.258669 
L 353.6784 239.574462 
L 354.1248 247.169627 
L 354.5712 246.370193 
L 355.0176 253.112434 
L 355.464 251.519592 
L 355.9104 251.68947 
L 356.3568 255.588315 
L 356.8032 254.777814 
L 357.2496 250.440266 
L 357.696 248.851882 
L 358.5888 253.523097 
L 359.928 270.680445 
L 360.3744 267.150297 
L 360.8208 272.214595 
L 361.2672 265.249674 
L 361.7136 270.359182 
L 362.16 272.492413 
L 362.6064 277.775021 
L 363.0528 270.782412 
L 363.4992 270.309655 
L 363.9456 281.208377 
L 364.392 273.671229 
L 364.8384 272.430277 
L 365.2848 277.308249 
L 365.7312 273.137471 
L 366.1776 271.84952 
L 366.624 272.221631 
L 367.0704 282.471317 
L 367.5168 279.615137 
L 368.4096 277.96094 
L 368.856 281.320746 
L 369.3024 283.474508 
L 369.7488 278.576946 
L 370.1952 280.102566 
L 370.6416 282.581393 
L 371.088 285.74889 
L 371.5344 276.167692 
L 372.4272 281.535053 
L 372.8736 284.071885 
L 373.32 283.253251 
L 373.7664 289.791784 
L 374.2128 284.581625 
L 374.6592 283.143493 
L 375.1056 284.758073 
L 375.552 280.731086 
L 375.9984 271.28589 
L 376.4448 264.793635 
L 376.8912 262.763604 
L 377.3376 263.175645 
L 377.784 255.149889 
L 378.2304 253.37096 
L 378.6768 250.996298 
L 379.1232 252.962997 
L 379.5696 251.449807 
L 380.016 255.544252 
L 380.4624 258.121386 
L 380.9088 259.526679 
L 381.3552 260.397842 
L 381.8016 258.075048 
L 382.248 259.908663 
L 382.6944 257.625979 
L 383.1408 252.78261 
L 383.5872 244.845912 
L 384.0336 251.965891 
L 384.48 256.558872 
L 384.9264 258.089339 
L 385.3728 251.444229 
L 385.8192 250.314413 
L 386.2656 253.707051 
L 386.712 253.705454 
L 387.1584 255.428873 
L 387.6048 258.27879 
L 388.0512 253.736828 
L 388.4976 253.266417 
L 388.944 255.833578 
L 389.3904 259.702525 
L 389.8368 260.446296 
L 390.2832 260.226811 
L 390.7296 260.930634 
L 391.176 262.02925 
L 391.6224 264.724545 
L 392.0688 271.246421 
L 392.5152 271.358989 
L 392.9616 272.741186 
L 393.408 285.283493 
L 393.8544 286.907514 
L 394.3008 287.503804 
L 394.7472 282.487953 
L 395.1936 282.670518 
L 395.64 290.527355 
L 396.0864 288.192023 
L 396.5328 290.374177 
L 396.9792 298.774258 
L 397.4256 304.589815 
L 397.872 302.613851 
L 398.3184 297.294835 
L 398.7648 299.356289 
L 399.6576 302.075701 
L 400.104 299.045583 
L 400.5504 296.926009 
L 400.9968 301.050124 
L 401.4432 303.900321 
L 401.8896 305.587535 
L 402.336 306.495826 
L 402.7824 313.070106 
L 403.2288 314.180536 
L 403.6752 314.283027 
L 404.568 321.603537 
L 405.0144 314.675735 
L 405.4608 318.48921 
L 405.9072 315.47416 
L 406.3536 318.659316 
L 406.8 317.70031 
L 407.2464 324.51063 
L 408.1392 316.69343 
L 408.5856 319.275017 
L 409.032 319.25812 
L 409.4784 327.85339 
L 409.9248 328.754445 
L 410.3712 330.885154 
L 410.8176 331.118825 
L 411.264 330.03307 
L 411.7104 334.824101 
L 412.1568 340.87157 
L 412.6032 342.072673 
L 413.0496 339.625889 
L 413.496 334.447513 
L 413.9424 333.508507 
L 414.3888 329.493815 
L 414.8352 319.035635 
L 415.2816 321.538202 
L 415.728 318.952189 
L 416.1744 315.535174 
L 416.6208 322.731381 
L 417.0672 321.353237 
L 417.5136 317.210868 
L 417.96 326.874839 
L 418.4064 330.605678 
L 419.2992 321.392172 
L 419.7456 322.50984 
L 420.192 324.642304 
L 420.6384 325.073091 
L 421.0848 326.102993 
L 421.9776 332.938675 
L 422.424 336.303499 
L 422.8704 334.698544 
L 423.3168 330.835531 
L 423.7632 333.061411 
L 424.2096 334.64716 
L 424.656 330.643195 
L 425.1024 328.465962 
L 425.5488 323.932688 
L 425.9952 328.149665 
L 426.4416 326.274805 
L 426.888 321.716001 
L 427.3344 324.454817 
L 427.7808 321.353406 
L 428.2272 317.243645 
L 428.6736 314.753178 
L 429.12 318.747523 
L 429.5664 320.779818 
L 430.4592 327.999856 
L 430.9056 325.643048 
L 431.352 325.876279 
L 431.7984 322.418684 
L 432.2448 322.311299 
L 432.6912 323.780233 
L 433.584 332.058246 
L 434.0304 333.612571 
L 434.4768 338.155983 
L 434.9232 333.502706 
L 435.3696 337.003403 
L 435.816 334.83592 
L 436.2624 334.691919 
L 436.7088 331.855415 
L 437.1552 333.151391 
L 437.6016 332.953647 
L 438.048 332.566535 
L 438.9408 326.149623 
L 439.3872 329.978541 
L 439.8336 324.252626 
L 440.28 328.961458 
L 440.7264 326.369191 
L 441.1728 333.42012 
L 441.6192 335.413482 
L 442.512 332.06566 
L 442.9584 333.74026 
L 443.4048 339.913577 
L 443.8512 336.931186 
L 444.2976 332.989292 
L 444.744 331.929739 
L 445.1904 334.631521 
L 445.6368 332.881583 
L 446.0832 336.051711 
L 446.5296 345.03736 
L 446.976 338.584586 
L 447.8688 356.019621 
L 448.3152 362.053932 
L 448.7616 358.167305 
L 449.208 358.75298 
L 449.6544 362.631107 
L 450.1008 358.624525 
L 450.5472 358.333618 
L 450.9936 357.431902 
L 451.44 365.744204 
L 452.3328 375.36204 
L 452.7792 373.502062 
L 453.2256 374.440047 
L 454.1184 368.53727 
L 455.0112 382.330663 
L 455.904 371.378238 
L 456.7968 373.768229 
L 457.2432 372.58165 
L 457.6896 378.599977 
L 458.136 381.766292 
L 458.5824 377.035443 
L 459.0288 378.122385 
L 459.4752 370.760266 
L 459.9216 372.241536 
L 460.368 372.18748 
L 460.8144 366.742074 
L 461.2608 363.154932 
L 461.7072 354.104778 
L 462.1536 347.372305 
L 462.6 347.30803 
L 463.0464 349.672429 
L 463.4928 348.501275 
L 463.9392 349.074009 
L 464.832 331.6417 
L 465.2784 326.479639 
L 465.7248 325.676317 
L 466.6176 315.901963 
L 467.5104 325.952117 
L 467.9568 321.564818 
L 468.4032 318.542108 
L 468.8496 322.436414 
L 469.296 321.350275 
L 469.7424 323.76818 
L 470.1888 323.062424 
L 470.6352 325.314529 
L 471.0816 320.539967 
L 471.528 332.496868 
L 471.9744 337.022265 
L 472.4208 332.826522 
L 472.8672 335.923369 
L 473.76 331.98959 
L 474.2064 334.670243 
L 474.6528 334.576922 
L 475.0992 340.565425 
L 475.5456 335.4459 
L 475.992 344.843668 
L 476.4384 345.845526 
L 476.8848 344.817978 
L 477.3312 350.939377 
L 477.7776 353.221788 
L 478.224 353.970254 
L 478.6704 354.072458 
L 479.1168 347.823391 
L 479.5632 337.840652 
L 480.0096 341.583571 
L 480.456 337.961994 
L 480.9024 329.169275 
L 481.3488 325.902001 
L 481.7952 330.887287 
L 482.2416 332.029905 
L 482.688 326.63043 
L 483.1344 318.313467 
L 484.0272 308.518415 
L 484.4736 308.95625 
L 484.92 315.083677 
L 485.3664 310.117704 
L 485.8128 309.757078 
L 486.2592 305.491222 
L 486.7056 304.246465 
L 487.5984 316.188946 
L 488.0448 310.644395 
L 488.4912 309.022366 
L 489.8304 288.043933 
L 490.2768 287.662552 
L 490.7232 292.535788 
L 491.1696 283.485582 
L 491.616 278.51338 
L 492.0624 280.657815 
L 492.5088 281.51946 
L 492.9552 279.068628 
L 493.4016 278.830372 
L 493.848 278.182671 
L 494.2944 274.568961 
L 494.7408 277.020852 
L 495.6336 273.666547 
L 496.08 266.441564 
L 496.5264 269.941113 
L 497.4192 258.840331 
L 497.8656 252.520223 
L 498.312 254.690896 
L 498.7584 263.242735 
L 499.2048 261.312561 
L 499.6512 264.898133 
L 500.0976 254.071656 
L 500.544 251.916316 
L 500.9904 252.47967 
L 501.4368 247.010547 
L 501.8832 246.963179 
L 502.3296 245.559355 
L 502.776 253.938383 
L 503.6688 258.594829 
L 504.1152 251.933459 
L 504.5616 251.343293 
L 505.008 251.784429 
L 505.4544 253.536052 
L 505.9008 251.656433 
L 506.3472 255.143728 
L 506.7936 255.415516 
L 507.24 256.279502 
L 507.6864 263.014954 
L 508.1328 260.043134 
L 508.5792 258.546783 
L 509.0256 259.889335 
L 509.472 257.629377 
L 509.9184 257.854274 
L 510.3648 256.856911 
L 510.8112 250.396009 
L 511.2576 258.552641 
L 511.704 254.095258 
L 512.1504 261.863875 
L 513.0432 269.91039 
L 513.4896 263.535646 
L 513.936 265.013712 
L 514.3824 271.798224 
L 514.8288 268.764245 
L 515.2752 280.399636 
L 515.7216 279.232232 
L 516.168 280.008122 
L 516.6144 289.175532 
L 517.0608 291.516345 
L 517.5072 285.893619 
L 517.9536 289.006161 
L 517.9536 289.006161 
" style="fill:none;stroke:#0000ff;stroke-linecap:square;"/>
   </g>
   <g id="patch_3">
    <path d="M 72 388.8 
L 72 43.2 
" style="fill:none;stroke:#000000;stroke-linecap:square;stroke-linejoin:miter;"/>
   </g>
   <g id="patch_4">
    <path d="M 72 43.2 
L 518.4 43.2 
" style="fill:none;stroke:#000000;stroke-linecap:square;stroke-linejoin:miter;"/>
   </g>
   <g id="patch_5">
    <path d="M 518.4 388.8 
L 518.4 43.2 
" style="fill:none;stroke:#000000;stroke-linecap:square;stroke-linejoin:miter;"/>
   </g>
   <g id="patch_6">
    <path d="M 72 388.8 
L 518.4 388.8 
" style="fill:none;stroke:#000000;stroke-linecap:square;stroke-linejoin:miter;"/>
   </g>
   <g id="matplotlib.axis_1">
    <g id="xtick_1">
     <g id="line2d_2">
      <defs>
       <path d="M 0 0 
L 0 -4 
" id="m444da89ab5" style="stroke:#000000;stroke-width:0.5;"/>
      </defs>
      <g>
       <use style="stroke:#000000;stroke-width:0.5;" x="72.0" xlink:href="#m444da89ab5" y="388.8"/>
      </g>
     </g>
     <g id="line2d_3">
      <defs>
       <path d="M 0 0 
L 0 4 
" id="m75e4a280a5" style="stroke:#000000;stroke-width:0.5;"/>
      </defs>
      <g>
       <use style="stroke:#000000;stroke-width:0.5;" x="72.0" xlink:href="#m75e4a280a5" y="43.2"/>
      </g>
     </g>
     <g id="text_1">
      <!-- 0 -->
      <defs>
       <path d="M 31.78125 66.40625 
Q 24.171875 66.40625 20.328125 58.90625 
Q 16.5 51.421875 16.5 36.375 
Q 16.5 21.390625 20.328125 13.890625 
Q 24.171875 6.390625 31.78125 6.390625 
Q 39.453125 6.390625 43.28125 13.890625 
Q 47.125 21.390625 47.125 36.375 
Q 47.125 51.421875 43.28125 58.90625 
Q 39.453125 66.40625 31.78125 66.40625 
M 31.78125 74.21875 
Q 44.046875 74.21875 50.515625 64.515625 
Q 56.984375 54.828125 56.984375 36.375 
Q 56.984375 17.96875 50.515625 8.265625 
Q 44.046875 -1.421875 31.78125 -1.421875 
Q 19.53125 -1.421875 13.0625 8.265625 
Q 6.59375 17.96875 6.59375 36.375 
Q 6.59375 54.828125 13.0625 64.515625 
Q 19.53125 74.21875 31.78125 74.21875 
" id="BitstreamVeraSans-Roman-30"/>
      </defs>
      <g transform="translate(68.1825 401.918125)scale(0.12 -0.12)">
       <use xlink:href="#BitstreamVeraSans-Roman-30"/>
      </g>
     </g>
    </g>
    <g id="xtick_2">
     <g id="line2d_4">
      <g>
       <use style="stroke:#000000;stroke-width:0.5;" x="161.28" xlink:href="#m444da89ab5" y="388.8"/>
      </g>
     </g>
     <g id="line2d_5">
      <g>
       <use style="stroke:#000000;stroke-width:0.5;" x="161.28" xlink:href="#m75e4a280a5" y="43.2"/>
      </g>
     </g>
     <g id="text_2">
      <!-- 200 -->
      <defs>
       <path d="M 19.1875 8.296875 
L 53.609375 8.296875 
L 53.609375 0 
L 7.328125 0 
L 7.328125 8.296875 
Q 12.9375 14.109375 22.625 23.890625 
Q 32.328125 33.6875 34.8125 36.53125 
Q 39.546875 41.84375 41.421875 45.53125 
Q 43.3125 49.21875 43.3125 52.78125 
Q 43.3125 58.59375 39.234375 62.25 
Q 35.15625 65.921875 28.609375 65.921875 
Q 23.96875 65.921875 18.8125 64.3125 
Q 13.671875 62.703125 7.8125 59.421875 
L 7.8125 69.390625 
Q 13.765625 71.78125 18.9375 73 
Q 24.125 74.21875 28.421875 74.21875 
Q 39.75 74.21875 46.484375 68.546875 
Q 53.21875 62.890625 53.21875 53.421875 
Q 53.21875 48.921875 51.53125 44.890625 
Q 49.859375 40.875 45.40625 35.40625 
Q 44.1875 33.984375 37.640625 27.21875 
Q 31.109375 20.453125 19.1875 8.296875 
" id="BitstreamVeraSans-Roman-32"/>
      </defs>
      <g transform="translate(149.8275 401.918125)scale(0.12 -0.12)">
       <use xlink:href="#BitstreamVeraSans-Roman-32"/>
       <use x="63.623046875" xlink:href="#BitstreamVeraSans-Roman-30"/>
       <use x="127.24609375" xlink:href="#BitstreamVeraSans-Roman-30"/>
      </g>
     </g>
    </g>
    <g id="xtick_3">
     <g id="line2d_6">
      <g>
       <use style="stroke:#000000;stroke-width:0.5;" x="250.56" xlink:href="#m444da89ab5" y="388.8"/>
      </g>
     </g>
     <g id="line2d_7">
      <g>
       <use style="stroke:#000000;stroke-width:0.5;" x="250.56" xlink:href="#m75e4a280a5" y="43.2"/>
      </g>
     </g>
     <g id="text_3">
      <!-- 400 -->
      <defs>
       <path d="M 37.796875 64.3125 
L 12.890625 25.390625 
L 37.796875 25.390625 
z
M 35.203125 72.90625 
L 47.609375 72.90625 
L 47.609375 25.390625 
L 58.015625 25.390625 
L 58.015625 17.1875 
L 47.609375 17.1875 
L 47.609375 0 
L 37.796875 0 
L 37.796875 17.1875 
L 4.890625 17.1875 
L 4.890625 26.703125 
z
" id="BitstreamVeraSans-Roman-34"/>
      </defs>
      <g transform="translate(239.1075 401.918125)scale(0.12 -0.12)">
       <use xlink:href="#BitstreamVeraSans-Roman-34"/>
       <use x="63.623046875" xlink:href="#BitstreamVeraSans-Roman-30"/>
       <use x="127.24609375" xlink:href="#BitstreamVeraSans-Roman-30"/>
      </g>
     </g>
    </g>
    <g id="xtick_4">
     <g id="line2d_8">
      <g>
       <use style="stroke:#000000;stroke-width:0.5;" x="339.84" xlink:href="#m444da89ab5" y="388.8"/>
      </g>
     </g>
     <g id="line2d_9">
      <g>
       <use style="stroke:#000000;stroke-width:0.5;" x="339.84" xlink:href="#m75e4a280a5" y="43.2"/>
      </g>
     </g>
     <g id="text_4">
      <!-- 600 -->
      <defs>
       <path d="M 33.015625 40.375 
Q 26.375 40.375 22.484375 35.828125 
Q 18.609375 31.296875 18.609375 23.390625 
Q 18.609375 15.53125 22.484375 10.953125 
Q 26.375 6.390625 33.015625 6.390625 
Q 39.65625 6.390625 43.53125 10.953125 
Q 47.40625 15.53125 47.40625 23.390625 
Q 47.40625 31.296875 43.53125 35.828125 
Q 39.65625 40.375 33.015625 40.375 
M 52.59375 71.296875 
L 52.59375 62.3125 
Q 48.875 64.0625 45.09375 64.984375 
Q 41.3125 65.921875 37.59375 65.921875 
Q 27.828125 65.921875 22.671875 59.328125 
Q 17.53125 52.734375 16.796875 39.40625 
Q 19.671875 43.65625 24.015625 45.921875 
Q 28.375 48.1875 33.59375 48.1875 
Q 44.578125 48.1875 50.953125 41.515625 
Q 57.328125 34.859375 57.328125 23.390625 
Q 57.328125 12.15625 50.6875 5.359375 
Q 44.046875 -1.421875 33.015625 -1.421875 
Q 20.359375 -1.421875 13.671875 8.265625 
Q 6.984375 17.96875 6.984375 36.375 
Q 6.984375 53.65625 15.1875 63.9375 
Q 23.390625 74.21875 37.203125 74.21875 
Q 40.921875 74.21875 44.703125 73.484375 
Q 48.484375 72.75 52.59375 71.296875 
" id="BitstreamVeraSans-Roman-36"/>
      </defs>
      <g transform="translate(328.3875 401.918125)scale(0.12 -0.12)">
       <use xlink:href="#BitstreamVeraSans-Roman-36"/>
       <use x="63.623046875" xlink:href="#BitstreamVeraSans-Roman-30"/>
       <use x="127.24609375" xlink:href="#BitstreamVeraSans-Roman-30"/>
      </g>
     </g>
    </g>
    <g id="xtick_5">
     <g id="line2d_10">
      <g>
       <use style="stroke:#000000;stroke-width:0.5;" x="429.12" xlink:href="#m444da89ab5" y="388.8"/>
      </g>
     </g>
     <g id="line2d_11">
      <g>
       <use style="stroke:#000000;stroke-width:0.5;" x="429.12" xlink:href="#m75e4a280a5" y="43.2"/>
      </g>
     </g>
     <g id="text_5">
      <!-- 800 -->
      <defs>
       <path d="M 31.78125 34.625 
Q 24.75 34.625 20.71875 30.859375 
Q 16.703125 27.09375 16.703125 20.515625 
Q 16.703125 13.921875 20.71875 10.15625 
Q 24.75 6.390625 31.78125 6.390625 
Q 38.8125 6.390625 42.859375 10.171875 
Q 46.921875 13.96875 46.921875 20.515625 
Q 46.921875 27.09375 42.890625 30.859375 
Q 38.875 34.625 31.78125 34.625 
M 21.921875 38.8125 
Q 15.578125 40.375 12.03125 44.71875 
Q 8.5 49.078125 8.5 55.328125 
Q 8.5 64.0625 14.71875 69.140625 
Q 20.953125 74.21875 31.78125 74.21875 
Q 42.671875 74.21875 48.875 69.140625 
Q 55.078125 64.0625 55.078125 55.328125 
Q 55.078125 49.078125 51.53125 44.71875 
Q 48 40.375 41.703125 38.8125 
Q 48.828125 37.15625 52.796875 32.3125 
Q 56.78125 27.484375 56.78125 20.515625 
Q 56.78125 9.90625 50.3125 4.234375 
Q 43.84375 -1.421875 31.78125 -1.421875 
Q 19.734375 -1.421875 13.25 4.234375 
Q 6.78125 9.90625 6.78125 20.515625 
Q 6.78125 27.484375 10.78125 32.3125 
Q 14.796875 37.15625 21.921875 38.8125 
M 18.3125 54.390625 
Q 18.3125 48.734375 21.84375 45.5625 
Q 25.390625 42.390625 31.78125 42.390625 
Q 38.140625 42.390625 41.71875 45.5625 
Q 45.3125 48.734375 45.3125 54.390625 
Q 45.3125 60.0625 41.71875 63.234375 
Q 38.140625 66.40625 31.78125 66.40625 
Q 25.390625 66.40625 21.84375 63.234375 
Q 18.3125 60.0625 18.3125 54.390625 
" id="BitstreamVeraSans-Roman-38"/>
      </defs>
      <g transform="translate(417.6675 401.918125)scale(0.12 -0.12)">
       <use xlink:href="#BitstreamVeraSans-Roman-38"/>
       <use x="63.623046875" xlink:href="#BitstreamVeraSans-Roman-30"/>
       <use x="127.24609375" xlink:href="#BitstreamVeraSans-Roman-30"/>
      </g>
     </g>
    </g>
    <g id="xtick_6">
     <g id="line2d_12">
      <g>
       <use style="stroke:#000000;stroke-width:0.5;" x="518.4" xlink:href="#m444da89ab5" y="388.8"/>
      </g>
     </g>
     <g id="line2d_13">
      <g>
       <use style="stroke:#000000;stroke-width:0.5;" x="518.4" xlink:href="#m75e4a280a5" y="43.2"/>
      </g>
     </g>
     <g id="text_6">
      <!-- 1000 -->
      <defs>
       <path d="M 12.40625 8.296875 
L 28.515625 8.296875 
L 28.515625 63.921875 
L 10.984375 60.40625 
L 10.984375 69.390625 
L 28.421875 72.90625 
L 38.28125 72.90625 
L 38.28125 8.296875 
L 54.390625 8.296875 
L 54.390625 0 
L 12.40625 0 
z
" id="BitstreamVeraSans-Roman-31"/>
      </defs>
      <g transform="translate(503.13 401.918125)scale(0.12 -0.12)">
       <use xlink:href="#BitstreamVeraSans-Roman-31"/>
       <use x="63.623046875" xlink:href="#BitstreamVeraSans-Roman-30"/>
       <use x="127.24609375" xlink:href="#BitstreamVeraSans-Roman-30"/>
       <use x="190.869140625" xlink:href="#BitstreamVeraSans-Roman-30"/>
      </g>
     </g>
    </g>
   </g>
   <g id="matplotlib.axis_2">
    <g id="ytick_1">
     <g id="line2d_14">
      <defs>
       <path d="M 0 0 
L 4 0 
" id="me78d8fc9b5" style="stroke:#000000;stroke-width:0.5;"/>
      </defs>
      <g>
       <use style="stroke:#000000;stroke-width:0.5;" x="72.0" xlink:href="#me78d8fc9b5" y="388.8"/>
      </g>
     </g>
     <g id="line2d_15">
      <defs>
       <path d="M 0 0 
L -4 0 
" id="md7c2dfe8c2" style="stroke:#000000;stroke-width:0.5;"/>
      </defs>
      <g>
       <use style="stroke:#000000;stroke-width:0.5;" x="518.4" xlink:href="#md7c2dfe8c2" y="388.8"/>
      </g>
     </g>
     <g id="text_7">
      <!-- −60 -->
      <defs>
       <path d="M 10.59375 35.5 
L 73.1875 35.5 
L 73.1875 27.203125 
L 10.59375 27.203125 
z
" id="BitstreamVeraSans-Roman-2212"/>
      </defs>
      <g transform="translate(42.674375 392.11125)scale(0.12 -0.12)">
       <use xlink:href="#BitstreamVeraSans-Roman-2212"/>
       <use x="83.7890625" xlink:href="#BitstreamVeraSans-Roman-36"/>
       <use x="147.412109375" xlink:href="#BitstreamVeraSans-Roman-30"/>
      </g>
     </g>
    </g>
    <g id="ytick_2">
     <g id="line2d_16">
      <g>
       <use style="stroke:#000000;stroke-width:0.5;" x="72.0" xlink:href="#me78d8fc9b5" y="339.428571429"/>
      </g>
     </g>
     <g id="line2d_17">
      <g>
       <use style="stroke:#000000;stroke-width:0.5;" x="518.4" xlink:href="#md7c2dfe8c2" y="339.428571429"/>
      </g>
     </g>
     <g id="text_8">
      <!-- −50 -->
      <defs>
       <path d="M 10.796875 72.90625 
L 49.515625 72.90625 
L 49.515625 64.59375 
L 19.828125 64.59375 
L 19.828125 46.734375 
Q 21.96875 47.46875 24.109375 47.828125 
Q 26.265625 48.1875 28.421875 48.1875 
Q 40.625 48.1875 47.75 41.5 
Q 54.890625 34.8125 54.890625 23.390625 
Q 54.890625 11.625 47.5625 5.09375 
Q 40.234375 -1.421875 26.90625 -1.421875 
Q 22.3125 -1.421875 17.546875 -0.640625 
Q 12.796875 0.140625 7.71875 1.703125 
L 7.71875 11.625 
Q 12.109375 9.234375 16.796875 8.0625 
Q 21.484375 6.890625 26.703125 6.890625 
Q 35.15625 6.890625 40.078125 11.328125 
Q 45.015625 15.765625 45.015625 23.390625 
Q 45.015625 31 40.078125 35.4375 
Q 35.15625 39.890625 26.703125 39.890625 
Q 22.75 39.890625 18.8125 39.015625 
Q 14.890625 38.140625 10.796875 36.28125 
z
" id="BitstreamVeraSans-Roman-35"/>
      </defs>
      <g transform="translate(42.674375 342.739821429)scale(0.12 -0.12)">
       <use xlink:href="#BitstreamVeraSans-Roman-2212"/>
       <use x="83.7890625" xlink:href="#BitstreamVeraSans-Roman-35"/>
       <use x="147.412109375" xlink:href="#BitstreamVeraSans-Roman-30"/>
      </g>
     </g>
    </g>
    <g id="ytick_3">
     <g id="line2d_18">
      <g>
       <use style="stroke:#000000;stroke-width:0.5;" x="72.0" xlink:href="#me78d8fc9b5" y="290.057142857"/>
      </g>
     </g>
     <g id="line2d_19">
      <g>
       <use style="stroke:#000000;stroke-width:0.5;" x="518.4" xlink:href="#md7c2dfe8c2" y="290.057142857"/>
      </g>
     </g>
     <g id="text_9">
      <!-- −40 -->
      <g transform="translate(42.674375 293.368392857)scale(0.12 -0.12)">
       <use xlink:href="#BitstreamVeraSans-Roman-2212"/>
       <use x="83.7890625" xlink:href="#BitstreamVeraSans-Roman-34"/>
       <use x="147.412109375" xlink:href="#BitstreamVeraSans-Roman-30"/>
      </g>
     </g>
    </g>
    <g id="ytick_4">
     <g id="line2d_20">
      <g>
       <use style="stroke:#000000;stroke-width:0.5;" x="72.0" xlink:href="#me78d8fc9b5" y="240.685714286"/>
      </g>
     </g>
     <g id="line2d_21">
      <g>
       <use style="stroke:#000000;stroke-width:0.5;" x="518.4" xlink:href="#md7c2dfe8c2" y="240.685714286"/>
      </g>
     </g>
     <g id="text_10">
      <!-- −30 -->
      <defs>
       <path d="M 40.578125 39.3125 
Q 47.65625 37.796875 51.625 33 
Q 55.609375 28.21875 55.609375 21.1875 
Q 55.609375 10.40625 48.1875 4.484375 
Q 40.765625 -1.421875 27.09375 -1.421875 
Q 22.515625 -1.421875 17.65625 -0.515625 
Q 12.796875 0.390625 7.625 2.203125 
L 7.625 11.71875 
Q 11.71875 9.328125 16.59375 8.109375 
Q 21.484375 6.890625 26.8125 6.890625 
Q 36.078125 6.890625 40.9375 10.546875 
Q 45.796875 14.203125 45.796875 21.1875 
Q 45.796875 27.640625 41.28125 31.265625 
Q 36.765625 34.90625 28.71875 34.90625 
L 20.21875 34.90625 
L 20.21875 43.015625 
L 29.109375 43.015625 
Q 36.375 43.015625 40.234375 45.921875 
Q 44.09375 48.828125 44.09375 54.296875 
Q 44.09375 59.90625 40.109375 62.90625 
Q 36.140625 65.921875 28.71875 65.921875 
Q 24.65625 65.921875 20.015625 65.03125 
Q 15.375 64.15625 9.8125 62.3125 
L 9.8125 71.09375 
Q 15.4375 72.65625 20.34375 73.4375 
Q 25.25 74.21875 29.59375 74.21875 
Q 40.828125 74.21875 47.359375 69.109375 
Q 53.90625 64.015625 53.90625 55.328125 
Q 53.90625 49.265625 50.4375 45.09375 
Q 46.96875 40.921875 40.578125 39.3125 
" id="BitstreamVeraSans-Roman-33"/>
      </defs>
      <g transform="translate(42.674375 243.996964286)scale(0.12 -0.12)">
       <use xlink:href="#BitstreamVeraSans-Roman-2212"/>
       <use x="83.7890625" xlink:href="#BitstreamVeraSans-Roman-33"/>
       <use x="147.412109375" xlink:href="#BitstreamVeraSans-Roman-30"/>
      </g>
     </g>
    </g>
    <g id="ytick_5">
     <g id="line2d_22">
      <g>
       <use style="stroke:#000000;stroke-width:0.5;" x="72.0" xlink:href="#me78d8fc9b5" y="191.314285714"/>
      </g>
     </g>
     <g id="line2d_23">
      <g>
       <use style="stroke:#000000;stroke-width:0.5;" x="518.4" xlink:href="#md7c2dfe8c2" y="191.314285714"/>
      </g>
     </g>
     <g id="text_11">
      <!-- −20 -->
      <g transform="translate(42.674375 194.625535714)scale(0.12 -0.12)">
       <use xlink:href="#BitstreamVeraSans-Roman-2212"/>
       <use x="83.7890625" xlink:href="#BitstreamVeraSans-Roman-32"/>
       <use x="147.412109375" xlink:href="#BitstreamVeraSans-Roman-30"/>
      </g>
     </g>
    </g>
    <g id="ytick_6">
     <g id="line2d_24">
      <g>
       <use style="stroke:#000000;stroke-width:0.5;" x="72.0" xlink:href="#me78d8fc9b5" y="141.942857143"/>
      </g>
     </g>
     <g id="line2d_25">
      <g>
       <use style="stroke:#000000;stroke-width:0.5;" x="518.4" xlink:href="#md7c2dfe8c2" y="141.942857143"/>
      </g>
     </g>
     <g id="text_12">
      <!-- −10 -->
      <g transform="translate(42.674375 145.254107143)scale(0.12 -0.12)">
       <use xlink:href="#BitstreamVeraSans-Roman-2212"/>
       <use x="83.7890625" xlink:href="#BitstreamVeraSans-Roman-31"/>
       <use x="147.412109375" xlink:href="#BitstreamVeraSans-Roman-30"/>
      </g>
     </g>
    </g>
    <g id="ytick_7">
     <g id="line2d_26">
      <g>
       <use style="stroke:#000000;stroke-width:0.5;" x="72.0" xlink:href="#me78d8fc9b5" y="92.5714285714"/>
      </g>
     </g>
     <g id="line2d_27">
      <g>
       <use style="stroke:#000000;stroke-width:0.5;" x="518.4" xlink:href="#md7c2dfe8c2" y="92.5714285714"/>
      </g>
     </g>
     <g id="text_13">
      <!-- 0 -->
      <g transform="translate(60.365 95.8826785714)scale(0.12 -0.12)">
       <use xlink:href="#BitstreamVeraSans-Roman-30"/>
      </g>
     </g>
    </g>
    <g id="ytick_8">
     <g id="line2d_28">
      <g>
       <use style="stroke:#000000;stroke-width:0.5;" x="72.0" xlink:href="#me78d8fc9b5" y="43.2"/>
      </g>
     </g>
     <g id="line2d_29">
      <g>
       <use style="stroke:#000000;stroke-width:0.5;" x="518.4" xlink:href="#md7c2dfe8c2" y="43.2"/>
      </g>
     </g>
     <g id="text_14">
      <!-- 10 -->
      <g transform="translate(52.73 46.51125)scale(0.12 -0.12)">
       <use xlink:href="#BitstreamVeraSans-Roman-31"/>
       <use x="63.623046875" xlink:href="#BitstreamVeraSans-Roman-30"/>
      </g>
     </g>
    </g>
   </g>
  </g>
 </g>
 <defs>
  <clipPath id="p785564acaf">
   <rect height="345.6" width="446.4" x="72.0" y="43.2"/>
  </clipPath>
 </defs>
</svg>
