<?xml version="1.0" encoding="UTF-8"?>
<svg xmlns="http://www.w3.org/2000/svg"
     xmlns:xlink="http://www.w3.org/1999/xlink"
     xmlns:gadfly="http://www.gadflyjl.org/ns"
     version="1.2"
     width="152.4mm" height="101.6mm" viewBox="0 0 152.4 101.6"
     stroke="none"
     fill="#000000"
     stroke-width="0.3"
     font-size="3.88"
>
<g class="plotroot xscalable yscalable" id="img-92316c4f-1">
  <g font-size="3.88" font-family="'PT Sans','Helvetica Neue','Helvetica',sans-serif" fill="#564A55" stroke="#000000" stroke-opacity="0.000" id="img-92316c4f-2">
    <text x="82.37" y="90.07" text-anchor="middle" dy="0.6em">Frequency (Hz)</text>
  </g>
  <g class="guide xlabels" font-size="2.82" font-family="'PT Sans Caption','Helvetica Neue','Helvetica',sans-serif" fill="#6C606B" id="img-92316c4f-3">
    <text x="19.35" y="83.6" text-anchor="middle" dy="0.6em">0</text>
    <text x="82.37" y="83.6" text-anchor="middle" dy="0.6em">5</text>
    <text x="145.4" y="83.6" text-anchor="middle" dy="0.6em">10</text>
  </g>
<g clip-path="url(#img-92316c4f-4)">
  <g id="img-92316c4f-5">
    <g pointer-events="visible" opacity="1" fill="#000000" fill-opacity="0.000" stroke="#000000" stroke-opacity="0.000" class="guide background" id="img-92316c4f-6">
      <rect x="17.35" y="5" width="130.05" height="77.6"/>
    </g>
    <g class="guide ygridlines xfixed" stroke-dasharray="0.5,0.5" stroke-width="0.2" stroke="#D0D0E0" id="img-92316c4f-7">
      <path fill="none" d="M17.35,80.6 L 147.4 80.6"/>
      <path fill="none" d="M17.35,62.2 L 147.4 62.2"/>
      <path fill="none" d="M17.35,43.8 L 147.4 43.8"/>
      <path fill="none" d="M17.35,25.4 L 147.4 25.4"/>
      <path fill="none" d="M17.35,7 L 147.4 7"/>
    </g>
    <g class="guide xgridlines yfixed" stroke-dasharray="0.5,0.5" stroke-width="0.2" stroke="#D0D0E0" id="img-92316c4f-8">
      <path fill="none" d="M19.35,5 L 19.35 82.6"/>
      <path fill="none" d="M82.37,5 L 82.37 82.6"/>
      <path fill="none" d="M145.4,5 L 145.4 82.6"/>
    </g>
    <g class="plotpanel" id="img-92316c4f-9">
      <g stroke-width="0.3" fill="#000000" fill-opacity="0.000" class="geometry" stroke-dasharray="none" stroke="#00BFFF" id="img-92316c4f-10">
        <path fill="none" d="M19.35,25.4 L 19.47 25.4 19.6 25.4 19.72 25.4 19.84 25.4 19.97 25.4 20.09 25.4 20.21 25.4 20.34 25.4 20.46 25.4 20.58 25.4 20.71 25.4 20.83 25.4 20.95 25.4 21.08 25.4 21.2 25.4 21.32 25.4 21.44 25.4 21.57 25.4 21.69 25.4 21.81 25.4 21.94 25.41 22.06 25.41 22.18 25.41 22.31 25.41 22.43 25.41 22.55 25.41 22.68 25.41 22.8 25.41 22.92 25.41 23.05 25.41 23.17 25.41 23.29 25.41 23.42 25.41 23.54 25.41 23.66 25.41 23.79 25.41 23.91 25.41 24.03 25.41 24.16 25.41 24.28 25.41 24.4 25.41 24.53 25.41 24.65 25.41 24.77 25.41 24.89 25.41 25.02 25.41 25.14 25.41 25.26 25.4 25.39 25.4 25.51 25.4 25.63 25.4 25.76 25.4 25.88 25.4 26 25.4 26.13 25.4 26.25 25.4 26.37 25.4 26.5 25.4 26.62 25.4 26.74 25.4 26.87 25.4 26.99 25.4 27.11 25.4 27.24 25.4 27.36 25.4 27.48 25.4 27.61 25.4 27.73 25.4 27.85 25.4 27.98 25.4 28.1 25.4 28.22 25.4 28.34 25.4 28.47 25.4 28.59 25.4 28.71 25.4 28.84 25.4 28.96 25.4 29.08 25.4 29.21 25.4 29.33 25.4 29.45 25.4 29.58 25.4 29.7 25.4 29.82 25.4 29.95 25.4 30.07 25.4 30.19 25.4 30.32 25.41 30.44 25.41 30.56 25.41 30.69 25.41 30.81 25.41 30.93 25.41 31.06 25.41 31.18 25.41 31.3 25.41 31.43 25.41 31.55 25.41 31.67 25.41 31.79 25.41 31.92 25.41 32.04 25.41 32.16 25.41 32.29 25.41 32.41 25.41 32.53 25.41 32.66 25.41 32.78 25.41 32.9 25.41 33.03 25.41 33.15 25.41 33.27 25.41 33.4 25.41 33.52 25.41 33.64 25.4 33.77 25.4 33.89 25.4 34.01 25.4 34.14 25.4 34.26 25.4 34.38 25.4 34.51 25.4 34.63 25.4 34.75 25.4 34.88 25.4 35 25.4 35.12 25.4 35.24 25.4 35.37 25.4 35.49 25.4 35.61 25.4 35.74 25.4 35.86 25.4 35.98 25.4 36.11 25.4 36.23 25.4 36.35 25.4 36.48 25.4 36.6 25.4 36.72 25.4 36.85 25.4 36.97 25.4 37.09 25.4 37.22 25.4 37.34 25.4 37.46 25.4 37.59 25.4 37.71 25.4 37.83 25.4 37.96 25.4 38.08 25.4 38.2 25.4 38.33 25.4 38.45 25.4 38.57 25.4 38.69 25.41 38.82 25.41 38.94 25.41 39.06 25.41 39.19 25.41 39.31 25.41 39.43 25.41 39.56 25.41 39.68 25.41 39.8 25.41 39.93 25.41 40.05 25.41 40.17 25.41 40.3 25.41 40.42 25.41 40.54 25.41 40.67 25.41 40.79 25.41 40.91 25.41 41.04 25.41 41.16 25.41 41.28 25.41 41.41 25.41 41.53 25.41 41.65 25.41 41.78 25.41 41.9 25.41 42.02 25.41 42.14 25.4 42.27 25.4 42.39 25.4 42.51 25.4 42.64 25.4 42.76 25.4 42.88 25.4 43.01 25.4 43.13 25.4 43.25 25.4 43.38 25.4 43.5 25.4 43.62 25.4 43.75 25.4 43.87 25.4 43.99 25.4 44.12 25.4 44.24 25.4 44.36 25.4 44.49 25.4 44.61 25.4 44.73 25.4 44.86 25.4 44.98 25.4 45.1 25.4 45.23 25.4 45.35 25.4 45.47 25.4 45.6 25.4 45.72 25.4 45.84 25.4 45.96 25.4 46.09 25.4 46.21 25.4 46.33 25.4 46.46 25.4 46.58 25.4 46.7 25.4 46.83 25.4 46.95 25.4 47.07 25.41 47.2 25.41 47.32 25.41 47.44 25.41 47.57 25.41 47.69 25.41 47.81 25.41 47.94 25.41 48.06 25.41 48.18 25.41 48.31 25.41 48.43 25.41 48.55 25.41 48.68 25.41 48.8 25.41 48.92 25.41 49.05 25.41 49.17 25.41 49.29 25.41 49.41 25.41 49.54 25.41 49.66 25.41 49.78 25.41 49.91 25.41 50.03 25.41 50.15 25.41 50.28 25.41 50.4 25.41 50.52 25.4 50.65 25.4 50.77 25.4 50.89 25.4 51.02 25.4 51.14 25.4 51.26 25.4 51.39 25.4 51.51 25.4 51.63 25.4 51.76 25.4 51.88 25.4 52 25.4 52.13 25.4 52.25 25.4 52.37 25.4 52.5 25.4 52.62 25.4 52.74 25.4 52.86 25.4 52.99 25.4 53.11 25.4 53.23 25.4 53.36 25.4 53.48 25.4 53.6 25.4 53.73 25.4 53.85 25.4 53.97 25.4 54.1 25.4 54.22 25.4 54.34 25.4 54.47 25.4 54.59 25.4 54.71 25.4 54.84 25.4 54.96 25.4 55.08 25.4 55.21 25.4 55.33 25.41 55.45 25.41 55.58 25.41 55.7 25.41 55.82 25.41 55.95 25.41 56.07 25.41 56.19 25.41 56.31 25.41 56.44 25.41 56.56 25.41 56.68 25.41 56.81 25.41 56.93 25.41 57.05 25.41 57.18 25.41 57.3 25.41 57.42 25.41 57.55 25.41 57.67 25.41 57.79 25.41 57.92 25.41 58.04 25.41 58.16 25.41 58.29 25.41 58.41 25.41 58.53 25.41 58.66 25.41 58.78 25.41 58.9 25.41 59.03 25.4 59.15 25.4 59.27 25.4 59.4 25.4 59.52 25.4 59.64 25.4 59.76 25.4 59.89 25.4 60.01 25.4 60.13 25.4 60.26 25.4 60.38 25.4 60.5 25.4 60.63 25.4 60.75 25.4 60.87 25.4 61 25.4 61.12 25.4 61.24 25.4 61.37 25.4 61.49 25.4 61.61 25.4 61.74 25.4 61.86 25.4 61.98 25.4 62.11 25.4 62.23 25.4 62.35 25.4 62.48 25.4 62.6 25.4 62.72 25.4 62.85 25.4 62.97 25.4 63.09 25.4 63.21 25.4 63.34 25.4 63.46 25.4 63.58 25.4 63.71 25.4 63.83 25.41 63.95 25.41 64.08 25.41 64.2 25.41 64.32 25.41 64.45 25.41 64.57 25.41 64.69 25.41 64.82 25.41 64.94 25.41 65.06 25.41 65.19 25.41 65.31 25.41 65.43 25.41 65.56 25.41 65.68 25.41 65.8 25.41 65.93 25.41 66.05 25.41 66.17 25.41 66.3 25.41 66.42 25.41 66.54 25.41 66.66 25.41 66.79 25.41 66.91 25.41 67.03 25.41 67.16 25.41 67.28 25.41 67.4 25.41 67.53 25.4 67.65 25.4 67.77 25.4 67.9 25.4 68.02 25.4 68.14 25.4 68.27 25.4 68.39 25.4 68.51 25.4 68.64 25.4 68.76 25.4 68.88 25.4 69.01 25.4 69.13 25.4 69.25 25.4 69.38 25.4 69.5 25.4 69.62 25.4 69.75 25.4 69.87 25.4 69.99 25.4 70.12 25.4 70.24 25.4 70.36 25.4 70.48 25.4 70.61 25.4 70.73 25.4 70.85 25.4 70.98 25.4 71.1 25.4 71.22 25.4 71.35 25.4 71.47 25.4 71.59 25.4 71.72 25.4 71.84 25.4 71.96 25.4 72.09 25.4 72.21 25.4 72.33 25.4 72.46 25.4 72.58 25.4 72.7 25.4 72.83 25.4 72.95 25.4 73.07 25.4 73.2 25.4 73.32 25.4 73.44 25.4 73.57 25.4 73.69 25.4 73.81 25.4 73.93 25.4 74.06 25.4 74.18 25.4 74.3 25.4 74.43 25.4 74.55 25.4 74.67 25.4 74.8 25.4 74.92 25.4 75.04 25.4 75.17 25.41 75.29 25.41 75.41 25.41 75.54 25.42 75.66 25.42 75.78 25.43 75.91 25.43 76.03 25.44 76.15 25.45 76.28 25.45 76.4 25.46 76.52 25.47 76.65 25.48 76.77 25.5 76.89 25.51 77.02 25.52 77.14 25.54 77.26 25.56 77.38 25.57 77.51 25.59 77.63 25.62 77.75 25.64 77.88 25.66 78 25.69 78.12 25.72 78.25 25.75 78.37 25.78 78.49 25.81 78.62 25.85 78.74 25.88 78.86 25.92 78.99 25.96 79.11 26.01 79.23 26.05 79.36 26.1 79.48 26.15 79.6 26.2 79.73 26.26 79.85 26.32 79.97 26.38 80.1 26.44 80.22 26.51 80.34 26.58 80.47 26.65 80.59 26.72 80.71 26.8 80.83 26.88 80.96 26.96 81.08 27.05 81.2 27.14 81.33 27.23 81.45 27.33 81.57 27.43 81.7 27.54 81.82 27.64 81.94 27.75 82.07 27.87 82.19 27.99 82.31 28.11 82.44 28.24 82.56 28.37 82.68 28.5 82.81 28.64 82.93 28.78 83.05 28.93 83.18 29.08 83.3 29.24 83.42 29.4 83.55 29.57 83.67 29.74 83.79 29.92 83.92 30.1 84.04 30.28 84.16 30.48 84.28 30.67 84.41 30.88 84.53 31.09 84.65 31.3 84.78 31.52 84.9 31.75 85.02 31.98 85.15 32.23 85.27 32.47 85.39 32.73 85.52 32.99 85.64 33.26 85.76 33.54 85.89 33.83 86.01 34.12 86.13 34.43 86.26 34.74 86.38 35.07 86.5 35.4 86.63 35.74 86.75 36.1 86.87 36.47 87 36.85 87.12 37.25 87.24 37.66 87.37 38.08 87.49 38.53 87.61 38.99 87.73 39.47 87.86 39.97 87.98 40.49 88.1 41.05 88.23 41.63 88.35 42.25 88.47 42.91 88.6 43.61 88.72 44.37 88.84 45.21 88.97 46.12 89.09 47.16 89.21 48.37 89.34 49.83 89.46 51.75 89.58 54.73 89.71 65.77 89.83 56.06 89.95 53.52 90.08 52.24 90.2 51.48 90.32 50.98 90.45 50.67 90.57 50.49 90.69 50.4 90.82 50.39 90.94 50.43 91.06 50.53 91.18 50.68 91.31 50.86 91.43 51.07 91.55 51.31 91.68 51.57 91.8 51.85 91.92 52.15 92.05 52.45 92.17 52.75 92.29 53.04 92.42 53.31 92.54 53.57 92.66 53.79 92.79 53.98 92.91 54.12 93.03 54.22 93.16 54.27 93.28 54.27 93.4 54.24 93.53 54.17 93.65 54.08 93.77 53.97 93.9 53.84 94.02 53.71 94.14 53.58 94.27 53.46 94.39 53.35 94.51 53.26 94.63 53.18 94.76 53.12 94.88 53.09 95 53.08 95.13 53.1 95.25 53.15 95.37 53.23 95.5 53.36 95.62 53.52 95.74 53.73 95.87 53.99 95.99 54.32 96.11 54.73 96.24 55.23 96.36 55.85 96.48 56.66 96.61 57.74 96.73 59.32 96.85 62.12 96.98 74.69 97.1 61.72 97.22 59.01 97.35 57.41 97.47 56.28 97.59 55.42 97.72 54.72 97.84 54.16 97.96 53.68 98.09 53.29 98.21 52.95 98.33 52.67 98.45 52.44 98.58 52.24 98.7 52.09 98.82 51.98 98.95 51.9 99.07 51.85 99.19 51.84 99.32 51.86 99.44 51.91 99.56 52 99.69 52.12 99.81 52.29 99.93 52.49 100.06 52.75 100.18 53.05 100.3 53.42 100.43 53.87 100.55 54.4 100.67 55.06 100.8 55.9 100.92 56.99 101.04 58.56 101.17 61.22 101.29 73.86 101.41 61.58 101.54 58.74 101.66 57.12 101.78 56 101.9 55.15 102.03 54.48 102.15 53.94 102.27 53.49 102.4 53.12 102.52 52.82 102.64 52.56 102.77 52.36 102.89 52.2 103.01 52.07 103.14 51.99 103.26 51.93 103.38 51.92 103.51 51.93 103.63 51.99 103.75 52.07 103.88 52.19 104 52.35 104.12 52.55 104.25 52.8 104.37 53.1 104.49 53.46 104.62 53.89 104.74 54.4 104.86 55.04 104.99 55.82 105.11 56.84 105.23 58.26 105.35 60.51 105.48 66.27 105.6 63.08 105.72 59.52 105.85 57.7 105.97 56.48 106.09 55.58 106.22 54.88 106.34 54.31 106.46 53.85 106.59 53.46 106.71 53.15 106.83 52.89 106.96 52.67 107.08 52.51 107.2 52.38 107.33 52.29 107.45 52.23 107.57 52.21 107.7 52.23 107.82 52.27 107.94 52.36 108.07 52.47 108.19 52.63 108.31 52.83 108.44 53.07 108.56 53.36 108.68 53.71 108.8 54.14 108.93 54.64 109.05 55.26 109.17 56.03 109.3 57.01 109.42 58.37 109.54 60.47 109.67 65.28 109.79 64.14 109.91 60.12 110.04 58.19 110.16 56.92 110.28 55.99 110.41 55.27 110.53 54.69 110.65 54.21 110.78 53.82 110.9 53.5 111.02 53.23 111.15 53.01 111.27 52.84 111.39 52.71 111.52 52.62 111.64 52.56 111.76 52.53 111.89 52.54 112.01 52.59 112.13 52.67 112.25 52.78 112.38 52.93 112.5 53.13 112.62 53.37 112.75 53.65 112.87 54 112.99 54.41 113.12 54.91 113.24 55.52 113.36 56.27 113.49 57.24 113.61 58.55 113.73 60.57 113.86 64.92 113.98 65.05 114.1 60.64 114.23 58.62 114.35 57.31 114.47 56.36 114.6 55.62 114.72 55.03 114.84 54.55 114.97 54.15 115.09 53.82 115.21 53.55 115.34 53.33 115.46 53.15 115.58 53.02 115.7 52.92 115.83 52.86 115.95 52.83 116.07 52.84 116.2 52.88 116.32 52.95 116.44 53.07 116.57 53.21 116.69 53.4 116.81 53.64 116.94 53.92 117.06 54.26 117.18 54.67 117.31 55.16 117.43 55.76 117.55 56.5 117.68 57.44 117.8 58.73 117.92 60.68 118.05 64.7 118.17 65.91 118.29 61.1 118.42 59 118.54 57.66 118.66 56.69 118.79 55.94 118.91 55.34 119.03 54.85 119.15 54.45 119.28 54.11 119.4 53.84 119.52 53.61 119.65 53.43 119.77 53.29 119.89 53.19 120.02 53.12 120.14 53.09 120.26 53.1 120.39 53.13 120.51 53.21 120.63 53.31 120.76 53.46 120.88 53.64 121 53.87 121.13 54.15 121.25 54.49 121.37 54.89 121.5 55.37 121.62 55.96 121.74 56.69 121.87 57.62 121.99 58.87 122.11 60.76 122.24 64.52 122.36 66.8 122.48 61.51 122.61 59.34 122.73 57.97 122.85 56.98 122.97 56.22 123.1 55.61 123.22 55.11 123.34 54.7 123.47 54.36 123.59 54.08 123.71 53.85 123.84 53.66 123.96 53.52 124.08 53.42 124.21 53.35 124.33 53.31 124.45 53.31 124.58 53.35 124.7 53.41 124.82 53.52 124.95 53.66 125.07 53.84 125.19 54.07 125.32 54.34 125.44 54.67 125.56 55.07 125.69 55.55 125.81 56.13 125.93 56.84 126.06 57.75 126.18 58.98 126.3 60.81 126.42 64.34 126.55 67.77 126.67 61.9 126.79 59.64 126.92 58.24 127.04 57.23 127.16 56.45 127.29 55.83 127.41 55.33 127.53 54.91 127.66 54.57 127.78 54.28 127.9 54.05 128.03 53.86 128.15 53.71 128.27 53.6 128.4 53.53 128.52 53.49 128.64 53.49 128.77 53.52 128.89 53.58 129.01 53.68 129.14 53.82 129.26 54 129.38 54.22 129.51 54.49 129.63 54.82 129.75 55.21 129.87 55.68 130 56.25 130.12 56.95 130.24 57.85 130.37 59.05 130.49 60.82 130.61 64.14 130.74 68.91 130.86 62.26 130.98 59.91 131.11 58.47 131.23 57.43 131.35 56.65 131.48 56.02 131.6 55.5 131.72 55.08 131.85 54.73 131.97 54.44 132.09 54.2 132.22 54.01 132.34 53.86 132.46 53.75 132.59 53.67 132.71 53.63 132.83 53.62 132.96 53.65 133.08 53.71 133.2 53.81 133.32 53.94 133.45 54.12 133.57 54.33 133.69 54.6 133.82 54.92 133.94 55.3 134.06 55.77 134.19 56.33 134.31 57.02 134.43 57.9 134.56 59.07 134.68 60.79 134.8 63.93 134.93 70.34 135.05 62.59 135.17 60.14 135.3 58.66 135.42 57.6 135.54 56.8 135.67 56.16 135.79 55.64 135.91 55.21 136.04 54.86 136.16 54.56 136.28 54.32 136.41 54.12 136.53 53.97 136.65 53.85 136.77 53.77 136.9 53.73 137.02 53.72 137.14 53.74 137.27 53.8 137.39 53.89 137.51 54.02 137.64 54.19 137.76 54.41 137.88 54.67 138.01 54.98 138.13 55.36 138.25 55.82 138.38 56.37 138.5 57.05 138.62 57.92 138.75 59.06 138.87 60.73 138.99 63.7 139.12 72.45 139.24 62.9 139.36 60.34 139.49 58.81 139.61 57.74 139.73 56.92 139.86 56.27 139.98 55.74 140.1 55.31 140.22 54.94 140.35 54.64 140.47 54.4 140.59 54.2 140.72 54.04 140.84 53.92 140.96 53.83 141.09 53.79 141.21 53.77 141.33 53.79 141.46 53.85 141.58 53.94 141.7 54.07 141.83 54.23 141.95 54.44 142.07 54.7 142.2 55.01 142.32 55.38 142.44 55.83 142.57 56.37 142.69 57.05 142.81 57.89 142.94 59.02 143.06 60.63 143.18 63.45 143.31 76.87 143.43 63.19 143.55 60.5 143.67 58.93 143.8 57.83 143.92 57 144.04 56.34 144.17 55.8 144.29 55.36 144.41 54.99 144.54 54.69 144.66 54.44 144.78 54.23 144.91 54.07 145.03 53.95 145.15 53.86 145.28 53.81 145.4 53.79"/>
      </g>
    </g>
  </g>
</g>
  <g class="guide ylabels" font-size="2.82" font-family="'PT Sans Caption','Helvetica Neue','Helvetica',sans-serif" fill="#6C606B" id="img-92316c4f-11">
    <text x="16.35" y="80.6" text-anchor="end" dy="0.35em">-6</text>
    <text x="16.35" y="62.2" text-anchor="end" dy="0.35em">-4</text>
    <text x="16.35" y="43.8" text-anchor="end" dy="0.35em">-2</text>
    <text x="16.35" y="25.4" text-anchor="end" dy="0.35em">0</text>
    <text x="16.35" y="7" text-anchor="end" dy="0.35em">2</text>
  </g>
  <g font-size="3.88" font-family="'PT Sans','Helvetica Neue','Helvetica',sans-serif" fill="#564A55" stroke="#000000" stroke-opacity="0.000" id="img-92316c4f-12">
    <text x="8.76" y="41.8" text-anchor="middle" dy="0.35em" transform="rotate(-90, 8.76, 43.8)">Magnitude (db)</text>
  </g>
</g>
<defs>
  <clipPath id="img-92316c4f-4">
  <path d="M17.35,5 L 147.4 5 147.4 82.6 17.35 82.6" />
</clipPath>
</defs>
</svg>
