<?xml version="1.0" encoding="UTF-8"?>
<svg xmlns="http://www.w3.org/2000/svg"
     xmlns:xlink="http://www.w3.org/1999/xlink"
     xmlns:gadfly="http://www.gadflyjl.org/ns"
     version="1.2"
     width="152.4mm" height="101.6mm" viewBox="0 0 152.4 101.6"
     stroke="none"
     fill="#000000"
     stroke-width="0.3"
     font-size="3.88"
>
<g class="plotroot xscalable yscalable" id="img-ebf5b211-1">
  <g font-size="3.88" font-family="'PT Sans','Helvetica Neue','Helvetica',sans-serif" fill="#564A55" stroke="#000000" stroke-opacity="0.000" id="img-ebf5b211-2">
    <text x="83.26" y="90.07" text-anchor="middle" dy="0.6em">Frequency (Hz)</text>
  </g>
  <g class="guide xlabels" font-size="2.82" font-family="'PT Sans Caption','Helvetica Neue','Helvetica',sans-serif" fill="#6C606B" id="img-ebf5b211-3">
    <text x="21.11" y="83.6" text-anchor="middle" dy="0.6em">0</text>
    <text x="83.26" y="83.6" text-anchor="middle" dy="0.6em">5</text>
    <text x="145.4" y="83.6" text-anchor="middle" dy="0.6em">10</text>
  </g>
<g clip-path="url(#img-ebf5b211-4)">
  <g id="img-ebf5b211-5">
    <g pointer-events="visible" opacity="1" fill="#000000" fill-opacity="0.000" stroke="#000000" stroke-opacity="0.000" class="guide background" id="img-ebf5b211-6">
      <rect x="19.11" y="5" width="128.29" height="77.6"/>
    </g>
    <g class="guide ygridlines xfixed" stroke-dasharray="0.5,0.5" stroke-width="0.2" stroke="#D0D0E0" id="img-ebf5b211-7">
      <path fill="none" d="M19.11,80.6 L 147.4 80.6"/>
      <path fill="none" d="M19.11,68.34 L 147.4 68.34"/>
      <path fill="none" d="M19.11,56.07 L 147.4 56.07"/>
      <path fill="none" d="M19.11,43.8 L 147.4 43.8"/>
      <path fill="none" d="M19.11,31.53 L 147.4 31.53"/>
      <path fill="none" d="M19.11,19.27 L 147.4 19.27"/>
      <path fill="none" d="M19.11,7 L 147.4 7"/>
    </g>
    <g class="guide xgridlines yfixed" stroke-dasharray="0.5,0.5" stroke-width="0.2" stroke="#D0D0E0" id="img-ebf5b211-8">
      <path fill="none" d="M21.11,5 L 21.11 82.6"/>
      <path fill="none" d="M83.26,5 L 83.26 82.6"/>
      <path fill="none" d="M145.4,5 L 145.4 82.6"/>
    </g>
    <g class="plotpanel" id="img-ebf5b211-9">
      <g stroke-width="0.3" fill="#000000" fill-opacity="0.000" class="geometry" stroke-dasharray="none" stroke="#00BFFF" id="img-ebf5b211-10">
        <path fill="none" d="M21.11,7 L 21.24 7.12 21.36 7.23 21.48 7.35 21.6 7.47 21.72 7.58 21.84 7.7 21.96 7.82 22.09 7.93 22.21 8.05 22.33 8.17 22.45 8.28 22.57 8.4 22.69 8.52 22.81 8.63 22.94 8.75 23.06 8.87 23.18 8.99 23.3 9.1 23.42 9.22 23.54 9.34 23.67 9.45 23.79 9.57 23.91 9.69 24.03 9.8 24.15 9.92 24.27 10.04 24.39 10.15 24.52 10.27 24.64 10.39 24.76 10.5 24.88 10.62 25 10.74 25.12 10.85 25.24 10.97 25.37 11.09 25.49 11.2 25.61 11.32 25.73 11.44 25.85 11.55 25.97 11.67 26.1 11.79 26.22 11.9 26.34 12.02 26.46 12.14 26.58 12.26 26.7 12.37 26.82 12.49 26.95 12.61 27.07 12.72 27.19 12.84 27.31 12.96 27.43 13.07 27.55 13.19 27.67 13.31 27.8 13.42 27.92 13.54 28.04 13.66 28.16 13.77 28.28 13.89 28.4 14.01 28.52 14.12 28.65 14.24 28.77 14.36 28.89 14.47 29.01 14.59 29.13 14.71 29.25 14.82 29.38 14.94 29.5 15.06 29.62 15.17 29.74 15.29 29.86 15.41 29.98 15.53 30.1 15.64 30.23 15.76 30.35 15.88 30.47 15.99 30.59 16.11 30.71 16.23 30.83 16.34 30.95 16.46 31.08 16.58 31.2 16.69 31.32 16.81 31.44 16.93 31.56 17.04 31.68 17.16 31.81 17.28 31.93 17.39 32.05 17.51 32.17 17.63 32.29 17.74 32.41 17.86 32.53 17.98 32.66 18.09 32.78 18.21 32.9 18.33 33.02 18.44 33.14 18.56 33.26 18.68 33.38 18.8 33.51 18.91 33.63 19.03 33.75 19.15 33.87 19.26 33.99 19.38 34.11 19.5 34.24 19.61 34.36 19.73 34.48 19.85 34.6 19.96 34.72 20.08 34.84 20.2 34.96 20.31 35.09 20.43 35.21 20.55 35.33 20.66 35.45 20.78 35.57 20.9 35.69 21.01 35.81 21.13 35.94 21.25 36.06 21.36 36.18 21.48 36.3 21.6 36.42 21.71 36.54 21.83 36.66 21.95 36.79 22.06 36.91 22.18 37.03 22.3 37.15 22.42 37.27 22.53 37.39 22.65 37.52 22.77 37.64 22.88 37.76 23 37.88 23.12 38 23.23 38.12 23.35 38.24 23.47 38.37 23.58 38.49 23.7 38.61 23.82 38.73 23.93 38.85 24.05 38.97 24.17 39.09 24.28 39.22 24.4 39.34 24.52 39.46 24.63 39.58 24.75 39.7 24.87 39.82 24.98 39.95 25.1 40.07 25.22 40.19 25.33 40.31 25.45 40.43 25.57 40.55 25.69 40.67 25.8 40.8 25.92 40.92 26.04 41.04 26.15 41.16 26.27 41.28 26.39 41.4 26.5 41.52 26.62 41.65 26.74 41.77 26.85 41.89 26.97 42.01 27.09 42.13 27.2 42.25 27.32 42.37 27.44 42.5 27.55 42.62 27.67 42.74 27.79 42.86 27.9 42.98 28.02 43.1 28.14 43.23 28.25 43.35 28.37 43.47 28.49 43.59 28.6 43.71 28.72 43.83 28.84 43.95 28.96 44.08 29.07 44.2 29.19 44.32 29.31 44.44 29.42 44.56 29.54 44.68 29.66 44.8 29.77 44.93 29.89 45.05 30.01 45.17 30.12 45.29 30.24 45.41 30.36 45.53 30.47 45.66 30.59 45.78 30.71 45.9 30.82 46.02 30.94 46.14 31.06 46.26 31.17 46.38 31.29 46.51 31.41 46.63 31.52 46.75 31.64 46.87 31.76 46.99 31.87 47.11 31.99 47.23 32.11 47.36 32.23 47.48 32.34 47.6 32.46 47.72 32.58 47.84 32.69 47.96 32.81 48.09 32.93 48.21 33.04 48.33 33.16 48.45 33.28 48.57 33.39 48.69 33.51 48.81 33.63 48.94 33.74 49.06 33.86 49.18 33.98 49.3 34.09 49.42 34.21 49.54 34.33 49.66 34.44 49.79 34.56 49.91 34.68 50.03 34.79 50.15 34.91 50.27 35.03 50.39 35.14 50.51 35.26 50.64 35.38 50.76 35.5 50.88 35.61 51 35.73 51.12 35.85 51.24 35.96 51.37 36.08 51.49 36.2 51.61 36.31 51.73 36.43 51.85 36.55 51.97 36.66 52.09 36.78 52.22 36.9 52.34 37.01 52.46 37.13 52.58 37.25 52.7 37.36 52.82 37.48 52.94 37.6 53.07 37.71 53.19 37.83 53.31 37.95 53.43 38.06 53.55 38.18 53.67 38.3 53.8 38.41 53.92 38.53 54.04 38.65 54.16 38.76 54.28 38.88 54.4 39 54.52 39.12 54.65 39.23 54.77 39.35 54.89 39.47 55.01 39.58 55.13 39.7 55.25 39.82 55.37 39.93 55.5 40.05 55.62 40.17 55.74 40.28 55.86 40.4 55.98 40.52 56.1 40.63 56.23 40.75 56.35 40.87 56.47 40.98 56.59 41.1 56.71 41.22 56.83 41.33 56.95 41.45 57.08 41.57 57.2 41.68 57.32 41.8 57.44 41.92 57.56 42.03 57.68 42.15 57.8 42.27 57.93 42.39 58.05 42.5 58.17 42.62 58.29 42.74 58.41 42.85 58.53 42.97 58.65 43.09 58.78 43.2 58.9 43.32 59.02 43.44 59.14 43.55 59.26 43.67 59.38 43.79 59.51 43.9 59.63 44.02 59.75 44.14 59.87 44.25 59.99 44.37 60.11 44.49 60.23 44.6 60.36 44.72 60.48 44.84 60.6 44.95 60.72 45.07 60.84 45.19 60.96 45.3 61.08 45.42 61.21 45.54 61.33 45.66 61.45 45.77 61.57 45.89 61.69 46.01 61.81 46.12 61.94 46.24 62.06 46.36 62.18 46.47 62.3 46.59 62.42 46.71 62.54 46.82 62.66 46.94 62.79 47.06 62.91 47.17 63.03 47.29 63.15 47.41 63.27 47.52 63.39 47.64 63.51 47.76 63.64 47.87 63.76 47.99 63.88 48.11 64 48.22 64.12 48.34 64.24 48.46 64.36 48.57 64.49 48.69 64.61 48.81 64.73 48.93 64.85 49.04 64.97 49.16 65.09 49.28 65.22 49.39 65.34 49.51 65.46 49.63 65.58 49.74 65.7 49.86 65.82 49.98 65.94 50.09 66.07 50.21 66.19 50.33 66.31 50.44 66.43 50.56 66.55 50.68 66.67 50.79 66.79 50.91 66.92 51.03 67.04 51.14 67.16 51.26 67.28 51.38 67.4 51.49 67.52 51.61 67.65 51.73 67.77 51.84 67.89 51.96 68.01 52.08 68.13 52.19 68.25 52.31 68.37 52.43 68.5 52.55 68.62 52.66 68.74 52.78 68.86 52.9 68.98 53.01 69.1 53.13 69.22 53.25 69.35 53.36 69.47 53.48 69.59 53.6 69.71 53.71 69.83 53.83 69.95 53.95 70.08 54.06 70.2 54.18 70.32 54.3 70.44 54.41 70.56 54.53 70.68 54.65 70.8 54.76 70.93 54.88 71.05 55 71.17 55.11 71.29 55.23 71.41 55.35 71.53 55.46 71.65 55.58 71.78 55.7 71.9 55.82 72.02 55.93 72.14 56.05 72.26 56.17 72.38 56.28 72.5 56.4 72.63 56.52 72.75 56.63 72.87 56.75 72.99 56.87 73.11 56.98 73.23 57.1 73.36 57.22 73.48 57.33 73.6 57.45 73.72 57.57 73.84 57.68 73.96 57.8 74.08 57.92 74.21 58.03 74.33 58.15 74.45 58.27 74.57 58.38 74.69 58.5 74.81 58.62 74.93 58.73 75.06 58.85 75.18 58.97 75.3 59.09 75.42 59.2 75.54 59.32 75.66 59.44 75.79 59.55 75.91 59.67 76.03 59.79 76.15 59.9 76.27 60.02 76.39 60.14 76.51 60.25 76.64 60.37 76.76 60.49 76.88 60.6 77 60.72 77.12 60.84 77.24 60.95 77.36 61.07 77.49 61.19 77.61 61.3 77.73 61.42 77.85 61.54 77.97 61.65 78.09 61.77 78.22 61.89 78.34 62 78.46 62.12 78.58 62.24 78.7 62.36 78.82 62.47 78.94 62.59 79.07 62.71 79.19 62.82 79.31 62.94 79.43 63.06 79.55 63.17 79.67 63.29 79.79 63.41 79.92 63.52 80.04 63.64 80.16 63.76 80.28 63.87 80.4 63.99 80.52 64.11 80.64 64.22 80.77 64.34 80.89 64.46 81.01 64.57 81.13 64.69 81.25 64.81 81.37 64.92 81.5 65.04 81.62 65.16 81.74 65.27 81.86 65.39 81.98 65.51 82.1 65.62 82.22 65.74 82.35 65.86 82.47 65.98 82.59 66.09 82.71 66.21 82.83 66.33 82.95 66.44 83.07 66.56 83.2 66.68 83.32 66.79 83.44 66.91 83.56 67.03 83.68 67.14 83.8 67.26 83.93 67.38 84.05 67.49 84.17 67.61 84.29 67.73 84.41 67.84 84.53 67.96 84.65 68.08 84.78 68.19 84.9 68.31 85.02 68.43 85.14 68.54 85.26 68.66 85.38 68.78 85.5 68.89 85.63 69.01 85.75 69.13 85.87 69.25 85.99 69.36 86.11 69.48 86.23 69.6 86.35 69.71 86.48 69.83 86.6 69.95 86.72 70.06 86.84 70.18 86.96 70.3 87.08 70.41 87.21 70.53 87.33 70.65 87.45 70.76 87.57 70.88 87.69 71 87.81 71.11 87.93 71.23 88.06 71.35 88.18 71.46 88.3 71.58 88.42 71.7 88.54 71.81 88.66 71.93 88.78 72.05 88.91 72.16 89.03 72.28 89.15 72.4 89.27 72.52 89.39 72.63 89.51 72.75 89.64 72.87 89.76 72.98 89.88 73.1 90 73.22 90.12 73.33 90.24 73.45 90.36 73.57 90.49 73.68 90.61 69.95 90.73 70.06 90.85 70.18 90.97 70.3 91.09 70.41 91.21 70.53 91.34 70.65 91.46 70.76 91.58 70.88 91.7 71 91.82 71.11 91.94 71.23 92.07 71.35 92.19 71.46 92.31 71.58 92.43 71.7 92.55 71.81 92.67 71.93 92.79 72.05 92.92 72.16 93.04 72.28 93.16 72.4 93.28 72.52 93.4 72.63 93.52 72.75 93.64 72.87 93.77 72.98 93.89 73.1 94.01 73.22 94.13 73.33 94.25 73.45 94.37 73.57 94.49 73.68 94.62 73.8 94.74 73.92 94.86 74.03 94.98 74.15 95.1 74.27 95.22 74.38 95.35 74.5 95.47 74.62 95.59 74.73 95.71 74.85 95.83 74.97 95.95 75.08 96.07 75.2 96.2 75.32 96.32 75.43 96.44 75.55 96.56 75.67 96.68 75.79 96.8 75.9 96.92 76.02 97.05 76.14 97.17 76.25 97.29 76.37 97.41 76.49 97.53 76.6 97.65 72.87 97.78 72.98 97.9 73.1 98.02 73.22 98.14 73.33 98.26 73.45 98.38 73.57 98.5 73.68 98.63 73.8 98.75 73.92 98.87 74.03 98.99 74.15 99.11 74.27 99.23 74.38 99.35 74.5 99.48 74.62 99.6 74.73 99.72 74.85 99.84 74.97 99.96 75.08 100.08 75.2 100.21 75.32 100.33 75.43 100.45 75.55 100.57 75.67 100.69 75.79 100.81 75.9 100.93 76.02 101.06 76.14 101.18 76.25 101.3 76.37 101.42 76.49 101.54 76.6 101.66 76.72 101.78 76.84 101.91 76.95 102.03 73.22 102.15 73.33 102.27 73.45 102.39 73.57 102.51 73.68 102.63 73.8 102.76 73.92 102.88 74.03 103 74.15 103.12 74.27 103.24 74.38 103.36 74.5 103.49 74.62 103.61 74.73 103.73 74.85 103.85 74.97 103.97 75.08 104.09 75.2 104.21 75.32 104.34 75.43 104.46 75.55 104.58 75.67 104.7 75.79 104.82 75.9 104.94 76.02 105.06 76.14 105.19 76.25 105.31 76.37 105.43 76.49 105.55 76.6 105.67 76.72 105.79 76.84 105.92 76.95 106.04 77.07 106.16 73.33 106.28 73.45 106.4 73.57 106.52 73.68 106.64 73.8 106.77 73.92 106.89 74.03 107.01 74.15 107.13 74.27 107.25 74.38 107.37 74.5 107.49 74.62 107.62 74.73 107.74 74.85 107.86 74.97 107.98 75.08 108.1 75.2 108.22 75.32 108.35 75.43 108.47 75.55 108.59 75.67 108.71 75.79 108.83 75.9 108.95 76.02 109.07 76.14 109.2 76.25 109.32 76.37 109.44 76.49 109.56 76.6 109.68 76.72 109.8 76.84 109.92 76.95 110.05 77.07 110.17 77.19 110.29 73.45 110.41 73.57 110.53 73.68 110.65 73.8 110.77 73.92 110.9 74.03 111.02 74.15 111.14 74.27 111.26 74.38 111.38 74.5 111.5 74.62 111.63 74.73 111.75 74.85 111.87 74.97 111.99 75.08 112.11 75.2 112.23 75.32 112.35 75.43 112.48 75.55 112.6 75.67 112.72 75.79 112.84 75.9 112.96 76.02 113.08 76.14 113.2 76.25 113.33 76.37 113.45 76.49 113.57 76.6 113.69 76.72 113.81 76.84 113.93 76.95 114.06 77.07 114.18 77.19 114.3 77.3 114.42 73.57 114.54 73.68 114.66 73.8 114.78 73.92 114.91 74.03 115.03 74.15 115.15 74.27 115.27 74.38 115.39 74.5 115.51 74.62 115.63 74.73 115.76 74.85 115.88 74.97 116 75.08 116.12 75.2 116.24 75.32 116.36 75.43 116.48 75.55 116.61 75.67 116.73 75.79 116.85 75.9 116.97 76.02 117.09 76.14 117.21 76.25 117.34 76.37 117.46 76.49 117.58 76.6 117.7 76.72 117.82 76.84 117.94 76.95 118.06 77.07 118.19 77.19 118.31 77.3 118.43 77.42 118.55 73.68 118.67 73.8 118.79 73.92 118.91 74.03 119.04 74.15 119.16 74.27 119.28 74.38 119.4 74.5 119.52 74.62 119.64 74.73 119.77 74.85 119.89 74.97 120.01 75.08 120.13 75.2 120.25 75.32 120.37 75.43 120.49 75.55 120.62 75.67 120.74 75.79 120.86 75.9 120.98 76.02 121.1 76.14 121.22 76.25 121.34 76.37 121.47 76.49 121.59 76.6 121.71 76.72 121.83 76.84 121.95 76.95 122.07 77.07 122.2 77.19 122.32 77.3 122.44 77.42 122.56 77.54 122.68 73.8 122.8 73.92 122.92 74.03 123.05 74.15 123.17 74.27 123.29 74.38 123.41 74.5 123.53 74.62 123.65 74.73 123.77 74.85 123.9 74.97 124.02 75.08 124.14 75.2 124.26 75.32 124.38 75.43 124.5 75.55 124.62 75.67 124.75 75.79 124.87 75.9 124.99 76.02 125.11 76.14 125.23 76.25 125.35 76.37 125.48 76.49 125.6 76.6 125.72 76.72 125.84 76.84 125.96 76.95 126.08 77.07 126.2 77.19 126.33 77.3 126.45 77.42 126.57 77.54 126.69 77.65 126.81 73.92 126.93 74.03 127.05 74.15 127.18 74.27 127.3 74.38 127.42 74.5 127.54 74.62 127.66 74.73 127.78 74.85 127.91 74.97 128.03 75.08 128.15 75.2 128.27 75.32 128.39 75.43 128.51 75.55 128.63 75.67 128.76 75.79 128.88 75.9 129 76.02 129.12 76.14 129.24 76.25 129.36 76.37 129.48 76.49 129.61 76.6 129.73 76.72 129.85 76.84 129.97 76.95 130.09 77.07 130.21 77.19 130.34 77.3 130.46 77.42 130.58 77.54 130.7 77.65 130.82 77.77 130.94 74.03 131.06 74.15 131.19 74.27 131.31 74.38 131.43 74.5 131.55 74.62 131.67 74.73 131.79 74.85 131.91 74.97 132.04 75.08 132.16 75.2 132.28 75.32 132.4 75.43 132.52 75.55 132.64 75.67 132.76 75.79 132.89 75.9 133.01 76.02 133.13 76.14 133.25 76.25 133.37 76.37 133.49 76.49 133.62 76.6 133.74 76.72 133.86 76.84 133.98 76.95 134.1 77.07 134.22 77.19 134.34 77.3 134.47 77.42 134.59 77.54 134.71 77.65 134.83 77.77 134.95 77.89 135.07 74.15 135.19 74.27 135.32 74.38 135.44 74.5 135.56 74.62 135.68 74.73 135.8 74.85 135.92 74.97 136.05 75.08 136.17 75.2 136.29 75.32 136.41 75.43 136.53 75.55 136.65 75.67 136.77 75.79 136.9 75.9 137.02 76.02 137.14 76.14 137.26 76.25 137.38 76.37 137.5 76.49 137.62 76.6 137.75 76.72 137.87 76.84 137.99 76.95 138.11 77.07 138.23 77.19 138.35 77.3 138.47 77.42 138.6 77.54 138.72 77.65 138.84 77.77 138.96 77.89 139.08 78 139.2 74.27 139.33 74.38 139.45 74.5 139.57 74.62 139.69 74.73 139.81 74.85 139.93 74.97 140.05 75.08 140.18 75.2 140.3 75.32 140.42 75.43 140.54 75.55 140.66 75.67 140.78 75.79 140.9 75.9 141.03 76.02 141.15 76.14 141.27 76.25 141.39 76.37 141.51 76.49 141.63 76.6 141.76 76.72 141.88 76.84 142 76.95 142.12 77.07 142.24 77.19 142.36 77.3 142.48 77.42 142.61 77.54 142.73 77.65 142.85 77.77 142.97 77.89 143.09 78 143.21 78.12 143.33 74.38 143.46 74.5 143.58 74.62 143.7 74.73 143.82 74.85 143.94 74.97 144.06 75.08 144.19 75.2 144.31 75.32 144.43 75.43 144.55 75.55 144.67 75.67 144.79 75.79 144.91 75.9 145.04 76.02 145.16 76.14 145.28 76.25 145.4 76.37"/>
      </g>
    </g>
  </g>
</g>
  <g class="guide ylabels" font-size="2.82" font-family="'PT Sans Caption','Helvetica Neue','Helvetica',sans-serif" fill="#6C606B" id="img-ebf5b211-11">
    <text x="18.11" y="80.6" text-anchor="end" dy="0.35em">-60</text>
    <text x="18.11" y="68.34" text-anchor="end" dy="0.35em">-50</text>
    <text x="18.11" y="56.07" text-anchor="end" dy="0.35em">-40</text>
    <text x="18.11" y="43.8" text-anchor="end" dy="0.35em">-30</text>
    <text x="18.11" y="31.53" text-anchor="end" dy="0.35em">-20</text>
    <text x="18.11" y="19.27" text-anchor="end" dy="0.35em">-10</text>
    <text x="18.11" y="7" text-anchor="end" dy="0.35em">0</text>
  </g>
  <g font-size="3.88" font-family="'PT Sans','Helvetica Neue','Helvetica',sans-serif" fill="#564A55" stroke="#000000" stroke-opacity="0.000" id="img-ebf5b211-12">
    <text x="8.76" y="41.8" text-anchor="middle" dy="0.35em" transform="rotate(-90, 8.76, 43.8)">Phase (radians)</text>
  </g>
</g>
<defs>
  <clipPath id="img-ebf5b211-4">
  <path d="M19.11,5 L 147.4 5 147.4 82.6 19.11 82.6" />
</clipPath>
</defs>
</svg>
