<?xml version="1.0" encoding="UTF-8"?>
<svg xmlns="http://www.w3.org/2000/svg"
     xmlns:xlink="http://www.w3.org/1999/xlink"
     xmlns:gadfly="http://www.gadflyjl.org/ns"
     version="1.2"
     width="203.2mm" height="101.6mm" viewBox="0 0 203.2 101.6"
     stroke="none"
     fill="#000000"
     stroke-width="0.3"
     font-size="3.88"
>
<g class="plotroot xscalable yscalable" id="img-a616238a-1">
  <g class="guide xlabels" font-size="2.82" font-family="'PT Sans Caption','Helvetica Neue','Helvetica',sans-serif" fill="#6C606B" id="img-a616238a-2">
    <text x="20.06" y="93.13" text-anchor="middle" dy="0.6em">0</text>
    <text x="108.13" y="93.13" text-anchor="middle" dy="0.6em">500</text>
    <text x="196.2" y="93.13" text-anchor="middle" dy="0.6em">1000</text>
  </g>
<g clip-path="url(#img-a616238a-3)">
  <g id="img-a616238a-4">
    <g pointer-events="visible" opacity="1" fill="#000000" fill-opacity="0.000" stroke="#000000" stroke-opacity="0.000" class="guide background" id="img-a616238a-5">
      <rect x="18.06" y="5" width="180.14" height="87.13"/>
    </g>
    <g class="guide ygridlines xfixed" stroke-dasharray="0.5,0.5" stroke-width="0.2" stroke="#D0D0E0" id="img-a616238a-6">
      <path fill="none" d="M18.06,90.13 L 198.2 90.13"/>
      <path fill="none" d="M18.06,73.5 L 198.2 73.5"/>
      <path fill="none" d="M18.06,56.88 L 198.2 56.88"/>
      <path fill="none" d="M18.06,40.25 L 198.2 40.25"/>
      <path fill="none" d="M18.06,23.63 L 198.2 23.63"/>
      <path fill="none" d="M18.06,7 L 198.2 7"/>
    </g>
    <g class="guide xgridlines yfixed" stroke-dasharray="0.5,0.5" stroke-width="0.2" stroke="#D0D0E0" id="img-a616238a-7">
      <path fill="none" d="M20.06,5 L 20.06 92.13"/>
      <path fill="none" d="M108.13,5 L 108.13 92.13"/>
      <path fill="none" d="M196.2,5 L 196.2 92.13"/>
    </g>
    <g class="plotpanel" id="img-a616238a-8">
      <g stroke-width="0.3" fill="#000000" fill-opacity="0.000" class="geometry" stroke-dasharray="none" stroke="#00BFFF" id="img-a616238a-9">
        <path fill="none" d="M20.23,72.8 L 20.41 72.7 20.58 73.72 20.76 73.7 20.94 74.02 21.11 73.65 21.29 72.65 21.46 72.64 21.64 72.2 21.82 72.51 21.99 72.86 22.17 74.09 22.35 73.03 22.52 72.81 22.7 71.63 22.87 71.53 23.05 71.17 23.23 71.48 23.4 72.06 23.58 71.36 23.75 70.49 23.93 69.79 24.11 69.86 24.28 70.43 24.46 71.11 24.64 70.34 24.81 69.12 24.99 68.61 25.16 67.78 25.34 67.5 25.52 67.71 25.69 68.02 25.87 67.48 26.04 66.07 26.22 66.35 26.4 64.93 26.57 64.74 26.75 64.58 26.93 63.54 27.1 63.54 27.28 63.96 27.45 64.4 27.63 63.26 27.81 63.34 27.98 62.17 28.16 60.89 28.33 61.13 28.51 61.16 28.69 60.28 28.86 57.58 29.04 57.7 29.22 56.95 29.39 56.64 29.57 57.64 29.74 58.31 29.92 58.23 30.1 58.18 30.27 60.44 30.45 61.41 30.62 62.2 30.8 63.15 30.98 61.95 31.15 62.6 31.33 62.12 31.5 62.6 31.68 64.01 31.86 64.79 32.03 65.22 32.21 64.64 32.39 64.09 32.56 62.99 32.74 61.9 32.91 62.06 33.09 62.74 33.27 62.8 33.44 63.12 33.62 63.53 33.79 63.57 33.97 63.42 34.15 63.58 34.32 63.08 34.5 62.94 34.68 62.78 34.85 62.2 35.03 62.08 35.2 62.24 35.38 62.59 35.56 64.18 35.73 63.49 35.91 62.85 36.08 62.77 36.26 63.51 36.44 63.45 36.61 63.23 36.79 63.32 36.97 63.19 37.14 62.15 37.32 62.96 37.49 63.14 37.67 63.7 37.85 64.33 38.02 65.21 38.2 65.62 38.37 66.35 38.55 66.6 38.73 67.45 38.9 66.62 39.08 66.54 39.26 66.66 39.43 66.83 39.61 66.27 39.78 66.04 39.96 66.65 40.14 67.01 40.31 65.92 40.49 65.71 40.66 67.12 40.84 66.79 41.02 67.18 41.19 67.39 41.37 67.39 41.55 65.61 41.72 64.57 41.9 64.84 42.07 64.78 42.25 64.23 42.43 64.06 42.6 65.3 42.78 66 42.95 66.89 43.13 67.56 43.31 66.22 43.48 66.88 43.66 67.45 43.84 68.3 44.01 67.7 44.19 68.2 44.36 68.45 44.54 68.58 44.72 70.3 44.89 70.65 45.07 69.23 45.24 69.81 45.42 68.75 45.6 68.69 45.77 67.92 45.95 68.03 46.12 68.94 46.3 68.79 46.48 68.77 46.65 69.75 46.83 69.71 47.01 70.64 47.18 70.67 47.36 71.17 47.53 71.24 47.71 73.25 47.89 72.94 48.06 72.18 48.24 71.57 48.41 71.2 48.59 70.29 48.77 70.84 48.94 70.46 49.12 70.91 49.3 71.57 49.47 72.5 49.65 73.05 49.82 74.15 50 74.99 50.18 74.52 50.35 73.57 50.53 73.44 50.7 74.35 50.88 73.16 51.06 72.65 51.23 71.35 51.41 70.55 51.59 70.1 51.76 69.26 51.94 69.23 52.11 69.28 52.29 68.69 52.47 68.7 52.64 69.38 52.82 70.83 52.99 70.39 53.17 69.12 53.35 70.35 53.52 70.85 53.7 70.05 53.88 70.02 54.05 70.29 54.23 71.07 54.4 70.67 54.58 72.58 54.76 71.3 54.93 71.5 55.11 72.15 55.28 72.55 55.46 72.35 55.64 72.17 55.81 71.33 55.99 71.26 56.17 71.71 56.34 72.91 56.52 72.77 56.69 70.05 56.87 69.07 57.05 70.63 57.22 71.26 57.4 71.43 57.57 71.38 57.75 71.22 57.93 71.71 58.1 71.21 58.28 72.36 58.46 71.84 58.63 72.06 58.81 71.98 58.98 70.45 59.16 68.43 59.34 68.72 59.51 67.58 59.69 67.75 59.86 68.88 60.04 69 60.22 70.34 60.39 69.32 60.57 68.96 60.74 68.69 60.92 68.82 61.1 67.92 61.27 67.26 61.45 66.75 61.63 66.98 61.8 66.78 61.98 67.58 62.15 67.85 62.33 67.97 62.51 67.55 62.68 67.42 62.86 66.75 63.03 67.06 63.21 67.7 63.39 67.07 63.56 67.23 63.74 67.6 63.92 67.71 64.09 66.41 64.27 68.2 64.44 69.13 64.62 68.6 64.8 68.86 64.97 68.63 65.15 68.12 65.32 68.31 65.5 67.93 65.68 67.5 65.85 67.01 66.03 66.74 66.21 65.4 66.38 62.89 66.56 62.92 66.73 61.23 66.91 61.09 67.09 60.58 67.26 60.06 67.44 59.11 67.61 59.35 67.79 59.33 67.97 59.26 68.14 58.99 68.32 58.29 68.5 56.64 68.67 55.58 68.85 56.26 69.02 56.35 69.2 57.03 69.38 56.94 69.55 55.93 69.73 56.06 69.9 56.07 70.08 57.33 70.26 57.57 70.43 58.27 70.61 58.62 70.79 59.3 70.96 59.15 71.14 58.48 71.31 59.02 71.49 58.53 71.67 58.09 71.84 57.12 72.02 56.79 72.19 56.32 72.37 55.43 72.55 54.17 72.72 55.5 72.9 54.5 73.08 54.96 73.25 55.44 73.43 53.93 73.6 54.35 73.78 55.25 73.96 54.81 74.13 54.95 74.31 54.97 74.48 54.93 74.66 55.61 74.84 56.04 75.01 55.62 75.19 56.59 75.36 54.89 75.54 53.91 75.72 54.28 75.89 55.44 76.07 55.84 76.25 56.54 76.42 56.73 76.6 57.83 76.77 57.81 76.95 57.59 77.13 58.59 77.3 59.74 77.48 59.12 77.65 61.04 77.83 61.18 78.01 61.01 78.18 60.92 78.36 60.75 78.54 60.96 78.71 61.02 78.89 60.34 79.06 60.59 79.24 59.9 79.42 59.11 79.59 58.76 79.77 58.04 79.94 56.98 80.12 56.2 80.3 56.63 80.47 56.7 80.65 56.77 80.83 56.59 81 56.77 81.18 56.94 81.35 57.76 81.53 59.23 81.71 60.82 81.88 61.4 82.06 61.79 82.23 63.33 82.41 63.67 82.59 63.72 82.76 63.04 82.94 62.13 83.12 63.79 83.29 62.12 83.47 60.39 83.64 60.49 83.82 60.75 84 59.95 84.17 60.03 84.35 60.31 84.52 59.47 84.7 59.85 84.88 59.59 85.05 60.13 85.23 58.35 85.41 57.9 85.58 56.35 85.76 56.6 85.93 55.48 86.11 55.71 86.29 55.79 86.46 55.42 86.64 56.24 86.81 55.78 86.99 55.42 87.17 55.13 87.34 53.1 87.52 51.57 87.7 51.02 87.87 50.93 88.05 51.56 88.22 50.84 88.4 51.82 88.58 52.04 88.75 52.05 88.93 52.67 89.1 54.51 89.28 53.09 89.46 53.29 89.63 54.51 89.81 55.71 89.98 57.04 90.16 57.27 90.34 56.24 90.51 56.67 90.69 56.05 90.87 55.23 91.04 55.26 91.22 53.8 91.39 54.54 91.57 54.06 91.75 53.61 91.92 53.98 92.1 54.55 92.27 54.87 92.45 56.9 92.63 57.01 92.8 55.75 92.98 54.73 93.16 54.19 93.33 55.6 93.51 56.68 93.68 55.54 93.86 56.77 94.04 57.53 94.21 57.65 94.39 57.42 94.56 57.12 94.74 55.95 94.92 55.88 95.09 54.86 95.27 54.79 95.45 54.77 95.62 54.51 95.8 53.42 95.97 52.34 96.15 52 96.33 51.49 96.5 50.16 96.68 49.86 96.85 50.31 97.03 50.85 97.21 50.97 97.38 50.82 97.56 50.5 97.74 52.24 97.91 52.47 98.09 51.53 98.26 51.96 98.44 50.96 98.62 52.11 98.79 51.83 98.97 51.03 99.14 49.81 99.32 50.18 99.5 48.77 99.67 48.4 99.85 49.21 100.03 49.47 100.2 49.58 100.38 50.06 100.55 51.21 100.73 52.12 100.91 51.38 101.08 50.85 101.26 50.34 101.43 51.5 101.61 52.57 101.79 52.43 101.96 53.45 102.14 52.75 102.32 52.21 102.49 51.56 102.67 52.01 102.84 52.79 103.02 53.17 103.2 53.01 103.37 51.87 103.55 51.84 103.72 52.05 103.9 51.33 104.08 52.27 104.25 53.59 104.43 53.95 104.6 52.94 104.78 52.32 104.96 52.31 105.13 51.93 105.31 51.45 105.49 50.82 105.66 50.34 105.84 51.75 106.01 51.34 106.19 52.57 106.37 50.41 106.54 51.67 106.72 50.67 106.89 51.38 107.07 50.19 107.25 51.04 107.42 51.34 107.6 52.22 107.78 51.82 107.95 51.77 108.13 51.14 108.3 51.94 108.48 52.41 108.66 52.5 108.83 51.73 109.01 50.71 109.18 51.16 109.36 50.91 109.54 50.04 109.71 50.72 109.89 50.77 110.07 51.29 110.24 51.22 110.42 51.54 110.59 51.49 110.77 51.08 110.95 50.61 111.12 49.82 111.3 50.2 111.47 50.35 111.65 51.1 111.83 50.28 112 49.39 112.18 50.64 112.36 50.98 112.53 50.89 112.71 49.73 112.88 50 113.06 50.95 113.24 50.97 113.41 51.3 113.59 52.09 113.76 51.76 113.94 51.34 114.12 49.53 114.29 48.25 114.47 48.53 114.65 49.86 114.82 48.16 115 48.05 115.17 48.23 115.35 48.01 115.53 47.39 115.7 47.88 115.88 48.21 116.05 49.24 116.23 49.38 116.41 50.25 116.58 49.13 116.76 49.01 116.93 48.58 117.11 48.63 117.29 49.05 117.46 47.87 117.64 47.83 117.82 47.54 117.99 48.46 118.17 47.93 118.34 47.94 118.52 47.89 118.7 47.92 118.87 47.62 119.05 48.16 119.22 48.61 119.4 49.96 119.58 49.94 119.75 50.9 119.93 50.86 120.11 52.57 120.28 52.87 120.46 54.03 120.63 55.12 120.81 54.9 120.99 54.06 121.16 53.81 121.34 52.93 121.51 53.04 121.69 53.67 121.87 54.2 122.04 52.7 122.22 53.54 122.4 53.12 122.57 52.62 122.75 53.5 122.92 53.29 123.1 54.17 123.28 53.72 123.45 53.38 123.63 52.59 123.8 53.08 123.98 52.01 124.16 51.17 124.33 50.74 124.51 51.19 124.69 49.38 124.86 48.42 125.04 48.83 125.21 48.65 125.39 48.97 125.57 48.68 125.74 48.94 125.92 49.61 126.09 50.19 126.27 49.32 126.45 48.09 126.62 47.45 126.8 48.79 126.98 50.19 127.15 48.77 127.33 49.7 127.5 49.91 127.68 50.24 127.86 51.64 128.03 52 128.21 51.71 128.38 52.1 128.56 51.38 128.74 52.8 128.91 52.76 129.09 51.43 129.27 50.19 129.44 50.07 129.62 50.85 129.79 50.58 129.97 50.69 130.15 51.69 130.32 52.13 130.5 52.43 130.67 52.95 130.85 50.56 131.03 49.74 131.2 49.45 131.38 50.05 131.55 49.83 131.73 49.85 131.91 50.22 132.08 50.06 132.26 50.93 132.44 51.03 132.61 52.03 132.79 53.12 132.96 52.92 133.14 52.58 133.32 54.31 133.49 52.93 133.67 52.85 133.84 52.64 134.02 51.51 134.2 51.41 134.37 51.34 134.55 50.74 134.73 51.73 134.9 51.92 135.08 51.77 135.25 51.14 135.43 50.68 135.61 51.27 135.78 50.31 135.96 50.22 136.13 51.52 136.31 50.93 136.49 50.8 136.66 51.4 136.84 50.97 137.02 50.41 137.19 48.45 137.37 47.35 137.54 47.25 137.72 45.68 137.9 46.04 138.07 48.04 138.25 47.99 138.42 47.02 138.6 48.42 138.78 50.41 138.95 50.8 139.13 52.33 139.31 52.82 139.48 52.36 139.66 51.69 139.83 52.53 140.01 51.71 140.19 53.04 140.36 52.97 140.54 53.17 140.71 52.37 140.89 53.27 141.07 52.59 141.24 52.01 141.42 51.96 141.6 51.17 141.77 51 141.95 49.7 142.12 49.59 142.3 48.33 142.48 47.41 142.65 48.28 142.83 48.63 143 48.11 143.18 48.22 143.36 48.14 143.53 49.26 143.71 49.78 143.89 50.49 144.06 49.16 144.24 48.09 144.41 47.26 144.59 48.15 144.77 47.07 144.94 47.38 145.12 49.13 145.29 48.37 145.47 46.52 145.65 46.86 145.82 46.22 146 44.94 146.17 43.97 146.35 45.19 146.53 45.53 146.7 46.44 146.88 45.16 147.06 45.08 147.23 45.65 147.41 46.18 147.58 45.92 147.76 46.13 147.94 46.42 148.11 46.34 148.29 45.84 148.46 47.26 148.64 47.56 148.82 48.33 148.99 50.15 149.17 49.4 149.35 47.25 149.52 48 149.7 49.25 149.87 50.56 150.05 50.82 150.23 50.93 150.4 50.15 150.58 49.03 150.75 48.17 150.93 48.56 151.11 48.33 151.28 48.91 151.46 48.72 151.64 49.62 151.81 48.67 151.99 47.33 152.16 48.75 152.34 48.38 152.52 48.95 152.69 48.73 152.87 49.42 153.04 49.72 153.22 49.09 153.4 49.6 153.57 49.78 153.75 50.02 153.93 50.87 154.1 51.89 154.28 52.51 154.45 53.35 154.63 54.57 154.81 53.53 154.98 52.81 155.16 52.97 155.33 53.22 155.51 52.28 155.69 53.15 155.86 52.87 156.04 51.11 156.22 50.53 156.39 49.96 156.57 49.67 156.74 49.84 156.92 50.65 157.1 49.85 157.27 51.26 157.45 51.33 157.62 50.92 157.8 49.75 157.98 49.2 158.15 49.93 158.33 49.78 158.51 50.29 158.68 50.5 158.86 50.36 159.03 49.51 159.21 49.52 159.39 48.56 159.56 48.54 159.74 48.86 159.91 47.32 160.09 49.44 160.27 51.02 160.44 52.36 160.62 50.17 160.79 49.41 160.97 50 161.15 49.47 161.32 48.52 161.5 47.63 161.68 47.11 161.85 47.36 162.03 46.89 162.2 47.37 162.38 46.11 162.56 46.67 162.73 46.43 162.91 45.33 163.08 46.13 163.26 46.12 163.44 46.25 163.61 45.69 163.79 45.05 163.97 44.37 164.14 43.09 164.32 42.51 164.49 42.34 164.67 42.7 164.85 43.47 165.02 43 165.2 43.01 165.37 43.91 165.55 45.69 165.73 47.04 165.9 46.36 166.08 45.9 166.26 46.68 166.43 45.26 166.61 45.43 166.78 45.12 166.96 45.81 167.14 45.73 167.31 46.54 167.49 45.68 167.66 44.45 167.84 43.55 168.02 43.77 168.19 43.53 168.37 42.88 168.55 41.52 168.72 41.76 168.9 39.8 169.07 40.95 169.25 39.75 169.43 40.57 169.6 39.87 169.78 40.03 169.95 39.77 170.13 37.88 170.31 37.5 170.48 36.65 170.66 37.04 170.84 36.72 171.01 36.07 171.19 35.28 171.36 34.71 171.54 35.18 171.72 35.36 171.89 34.83 172.07 34.43 172.24 34.04 172.42 33.79 172.6 34.39 172.77 34.51 172.95 35.35 173.13 34.57 173.3 34.47 173.48 33.54 173.65 33.59 173.83 33.25 174.01 30.86 174.18 31.4 174.36 32.46 174.53 31.22 174.71 29.95 174.89 30.16 175.06 30.84 175.24 30 175.41 30.12 175.59 30.42 175.77 29.27 175.94 28.08 176.12 27.91 176.3 27.24 176.47 27.01 176.65 27.46 176.82 27.38 177 27.66 177.18 27.43 177.35 28.19 177.53 28.98 177.7 28.76 177.88 28.45 178.06 28.06 178.23 28.04 178.41 28.03 178.59 26.62 178.76 27.42 178.94 28.02 179.11 28.24 179.29 28.32 179.47 28.51 179.64 27.89 179.82 27.73 179.99 29.08 180.17 28.96 180.35 27.46 180.52 27.95 180.7 27.64 180.88 26.26 181.05 25.04 181.23 24.39 181.4 24.2 181.58 24.23 181.76 24.69 181.93 25.52 182.11 27.61 182.28 26.44 182.46 28.34 182.64 28.2 182.81 27.88 182.99 27.12 183.17 27.99 183.34 28.88 183.52 29.79 183.69 28.12 183.87 27.87 184.05 27.15 184.22 26.67 184.4 27.22 184.57 25.97 184.75 25.61 184.93 25.33 185.1 24.6 185.28 24.85 185.46 25.97 185.63 27.5 185.81 26.75 185.98 25.89 186.16 25.41 186.34 25.09 186.51 25.71 186.69 24.81 186.86 24.69 187.04 24.7 187.22 25.59 187.39 25.01 187.57 23.73 187.75 23.17 187.92 23.32 188.1 23.64 188.27 21.64 188.45 21.45 188.63 20.34 188.8 19.8 188.98 20.84 189.15 19.8 189.33 19.41 189.51 18.86 189.68 18.48 189.86 18.4 190.03 18.39 190.21 18.74 190.39 17.69 190.56 17.16 190.74 16.11 190.92 14.59 191.09 14.87 191.27 14.41 191.44 14.34 191.62 14.3 191.8 14.45 191.97 14.66 192.15 14.78 192.32 15.01 192.5 13.66 192.68 12.97 192.85 13.29 193.03 12.91 193.21 12.68 193.38 13.57 193.56 13.36 193.73 12.95 193.91 13.06 194.09 12.59 194.26 11.08 194.44 11.78 194.61 11.96 194.79 11.15 194.97 11.32 195.14 11.4 195.32 12.54 195.5 12.96 195.67 13.08 195.85 13.84 196.02 14.44 196.2 14.57"/>
      </g>
    </g>
  </g>
</g>
  <g class="guide ylabels" font-size="2.82" font-family="'PT Sans Caption','Helvetica Neue','Helvetica',sans-serif" fill="#6C606B" id="img-a616238a-10">
    <text x="17.06" y="90.13" text-anchor="end" dy="0.35em">-20</text>
    <text x="17.06" y="73.5" text-anchor="end" dy="0.35em">0</text>
    <text x="17.06" y="56.88" text-anchor="end" dy="0.35em">20</text>
    <text x="17.06" y="40.25" text-anchor="end" dy="0.35em">40</text>
    <text x="17.06" y="23.63" text-anchor="end" dy="0.35em">60</text>
    <text x="17.06" y="7" text-anchor="end" dy="0.35em">80</text>
  </g>
  <g font-size="3.88" font-family="'PT Sans','Helvetica Neue','Helvetica',sans-serif" fill="#564A55" stroke="#000000" stroke-opacity="0.000" id="img-a616238a-11">
    <text x="9.47" y="48.57" text-anchor="end" dy="0.35em">y</text>
  </g>
</g>
<defs>
  <clipPath id="img-a616238a-3">
  <path d="M18.06,5 L 198.2 5 198.2 92.13 18.06 92.13" />
</clipPath>
</defs>
</svg>
