<?xml version="1.0" encoding="UTF-8"?>
<svg xmlns="http://www.w3.org/2000/svg"
     xmlns:xlink="http://www.w3.org/1999/xlink"
     xmlns:gadfly="http://www.gadflyjl.org/ns"
     version="1.2"
     width="203.2mm" height="101.6mm" viewBox="0 0 203.2 101.6"
     stroke="none"
     fill="#000000"
     stroke-width="0.3"
     font-size="3.88"
>
<g class="plotroot xscalable yscalable" id="img-cec58fa3-1">
  <g class="guide xlabels" font-size="2.82" font-family="'PT Sans Caption','Helvetica Neue','Helvetica',sans-serif" fill="#6C606B" id="img-cec58fa3-2">
    <text x="19.27" y="92.93" text-anchor="middle" dy="0.6em">0</text>
    <text x="107.73" y="92.93" text-anchor="middle" dy="0.6em">500</text>
    <text x="196.2" y="92.93" text-anchor="middle" dy="0.6em">1000</text>
  </g>
<g clip-path="url(#img-cec58fa3-3)">
  <g id="img-cec58fa3-4">
    <g pointer-events="visible" opacity="1" fill="#000000" fill-opacity="0.000" stroke="#000000" stroke-opacity="0.000" class="guide background" id="img-cec58fa3-5">
      <rect x="17.27" y="5" width="180.93" height="86.93"/>
    </g>
    <g class="guide ygridlines xfixed" stroke-dasharray="0.5,0.5" stroke-width="0.2" stroke="#D0D0E0" id="img-cec58fa3-6">
      <path fill="none" d="M17.27,89.93 L 198.2 89.93"/>
      <path fill="none" d="M17.27,73.34 L 198.2 73.34"/>
      <path fill="none" d="M17.27,56.76 L 198.2 56.76"/>
      <path fill="none" d="M17.27,40.17 L 198.2 40.17"/>
      <path fill="none" d="M17.27,23.59 L 198.2 23.59"/>
      <path fill="none" d="M17.27,7 L 198.2 7"/>
    </g>
    <g class="guide xgridlines yfixed" stroke-dasharray="0.5,0.5" stroke-width="0.2" stroke="#D0D0E0" id="img-cec58fa3-7">
      <path fill="none" d="M19.27,5 L 19.27 91.93"/>
      <path fill="none" d="M107.73,5 L 107.73 91.93"/>
      <path fill="none" d="M196.2,5 L 196.2 91.93"/>
    </g>
    <g class="plotpanel" id="img-cec58fa3-8">
      <g stroke-width="0.3" fill="#000000" fill-opacity="0.000" class="geometry" stroke-dasharray="none" stroke="#00BFFF" id="img-cec58fa3-9">
        <path fill="none" d="M19.44,73.43 L 19.62 72.51 19.8 75.14 19.97 74.96 20.15 74.86 20.33 74.75 20.5 73.58 20.68 73.58 20.86 69.35 21.04 69.87 21.21 69.78 21.39 71.6 21.57 74.32 21.74 76.99 21.92 80.26 22.1 81.08 22.27 83.64 22.45 83.48 22.63 79.01 22.8 79.61 22.98 78.57 23.16 80.31 23.34 80.83 23.51 78.07 23.69 79.91 23.87 79.68 24.04 77.75 24.22 76.07 24.4 72.39 24.57 71.06 24.75 70.86 24.93 72.17 25.1 70.87 25.28 70.47 25.46 70.44 25.64 70.86 25.81 68.88 25.99 68.3 26.17 68.12 26.34 66.83 26.52 67.6 26.7 68.51 26.87 71.09 27.05 72.48 27.23 75.1 27.4 73.37 27.58 74.04 27.76 73.17 27.94 71.64 28.11 72.68 28.29 68.64 28.47 69.58 28.64 71.16 28.82 68.89 29 66.97 29.17 66.26 29.35 67.36 29.53 67.47 29.7 66.03 29.88 67.62 30.06 67.43 30.24 70.7 30.41 68.55 30.59 67.95 30.77 67.53 30.94 67.84 31.12 70.42 31.3 74.05 31.47 72.12 31.65 69.3 31.83 69.04 32.01 70.65 32.18 71.11 32.36 70.24 32.54 68.78 32.71 68.04 32.89 64.56 33.07 63.74 33.24 61.62 33.42 61.69 33.6 63.09 33.77 62.99 33.95 61.16 34.13 65.16 34.31 65.41 34.48 65.01 34.66 67.74 34.84 65.92 35.01 69.81 35.19 69.9 35.37 69.68 35.54 68.87 35.72 68.43 35.9 69.35 36.07 70.7 36.25 73.38 36.43 74.4 36.61 73.43 36.78 73.95 36.96 76.87 37.14 77.36 37.31 75.22 37.49 76.76 37.67 75.75 37.84 75.54 38.02 78.33 38.2 77.74 38.37 77.2 38.55 77.17 38.73 76.92 38.91 74 39.08 71.74 39.26 70.63 39.44 68.84 39.61 68.85 39.79 67.53 39.97 68.79 40.14 66.45 40.32 65.49 40.5 63.46 40.67 64.2 40.85 63.81 41.03 67.5 41.21 69.1 41.38 67.55 41.56 70.69 41.74 72.33 41.91 72.35 42.09 71.87 42.27 73.36 42.44 73.31 42.62 74.24 42.8 70.99 42.98 70.85 43.15 69.63 43.33 68.9 43.51 67.88 43.68 68.25 43.86 69.42 44.04 67.78 44.21 66.03 44.39 68.36 44.57 68.88 44.74 71.21 44.92 71.97 45.1 70.24 45.28 70.83 45.45 71.21 45.63 71.35 45.81 73.17 45.98 75.02 46.16 75.48 46.34 72.73 46.51 75.4 46.69 74.75 46.87 72.78 47.04 72.68 47.22 71.29 47.4 71.47 47.58 73.06 47.75 74.94 47.93 73.59 48.11 72.61 48.28 71.32 48.46 71.59 48.64 71.78 48.81 72.9 48.99 70.7 49.17 69.51 49.34 69.36 49.52 71.35 49.7 70.29 49.88 71.73 50.05 71.3 50.23 71.05 50.41 72.65 50.58 69.94 50.76 71.61 50.94 71.21 51.11 69.71 51.29 70.36 51.47 69.38 51.64 70.43 51.82 71.74 52 71.25 52.18 72.03 52.35 73.46 52.53 72.17 52.71 69.62 52.88 70.31 53.06 68.19 53.24 68.59 53.41 66.64 53.59 67.02 53.77 65.6 53.94 69.23 54.12 67.72 54.3 68.53 54.48 70.72 54.65 66.57 54.83 64.89 55.01 65.9 55.18 65.29 55.36 67.82 55.54 68.07 55.71 64.96 55.89 66.55 56.07 66.01 56.25 65.88 56.42 65.27 56.6 64.6 56.78 69.29 56.95 67.39 57.13 64.62 57.31 62.79 57.48 61 57.66 59.67 57.84 59.71 58.01 61.97 58.19 60.96 58.37 61.7 58.55 62.07 58.72 61.95 58.9 61.33 59.08 63.68 59.25 64.19 59.43 61.44 59.61 63.37 59.78 62.83 59.96 62.02 60.14 62.74 60.31 62.49 60.49 65.85 60.67 66.26 60.85 65.82 61.02 62.49 61.2 60.65 61.38 61.32 61.55 59.53 61.73 64.51 61.91 62.46 62.08 61.17 62.26 60.8 62.44 58.9 62.61 57.78 62.79 61.19 62.97 61.26 63.15 62.82 63.32 63 63.5 64.77 63.68 64.92 63.85 66.16 64.03 67.29 64.21 68.59 64.38 69.07 64.56 69.94 64.74 70.45 64.91 70.39 65.09 67.48 65.27 70.04 65.45 71.47 65.62 70.14 65.8 71.2 65.98 72.06 66.15 74.31 66.33 76.89 66.51 76.22 66.68 76.91 66.86 74.64 67.04 76.35 67.21 76.28 67.39 75.66 67.57 75.6 67.75 76.19 67.92 77.71 68.1 80.37 68.28 78.57 68.45 75.74 68.63 73.76 68.81 72.58 68.98 72.65 69.16 74.11 69.34 72.62 69.52 71.68 69.69 72.09 69.87 72.22 70.05 67.61 70.22 69.45 70.4 69.13 70.58 68.7 70.75 66.44 70.93 64.89 71.11 64.48 71.28 63.62 71.46 61.89 71.64 64.9 71.82 63.94 71.99 63.77 72.17 62.01 72.35 62.44 72.52 65.86 72.7 65.58 72.88 58.24 73.05 57.82 73.23 58.73 73.41 62.21 73.58 63.01 73.76 62.93 73.94 64.03 74.12 64.33 74.29 61.8 74.47 62.55 74.65 63.62 74.82 63.57 75 62.88 75.18 65.49 75.35 65.77 75.53 64.69 75.71 64.84 75.88 66.3 76.06 66.38 76.24 66.97 76.42 68.4 76.59 70.77 76.77 68.61 76.95 66.86 77.12 67.61 77.3 65.63 77.48 66.57 77.65 67.92 77.83 67.64 78.01 67.09 78.18 67.43 78.36 66.04 78.54 67.73 78.72 69.39 78.89 66.89 79.07 68.39 79.25 66.94 79.42 67.22 79.6 67.48 79.78 69.32 79.95 68.17 80.13 69.09 80.31 67.84 80.49 67.42 80.66 66.66 80.84 65.99 81.02 67.81 81.19 66.97 81.37 69.77 81.55 67.08 81.72 67.19 81.9 67.82 82.08 65.94 82.25 63.87 82.43 63.84 82.61 59.85 82.79 61.21 82.96 59.98 83.14 57.43 83.32 59.65 83.49 59.89 83.67 63.46 83.85 63.98 84.02 62.83 84.2 62.79 84.38 62.39 84.55 61.06 84.73 62.58 84.91 60.57 85.09 61.01 85.26 59.36 85.44 59.96 85.62 56.66 85.79 56.32 85.97 60.23 86.15 56.24 86.32 56.11 86.5 56.13 86.68 54.31 86.85 54.38 87.03 53.35 87.21 54.15 87.39 53.89 87.56 55.6 87.74 59.21 87.92 56.98 88.09 56.12 88.27 57.38 88.45 56.3 88.62 59.53 88.8 57.42 88.98 60.85 89.15 61.76 89.33 60.31 89.51 59.65 89.69 58.35 89.86 59.89 90.04 57.2 90.22 59.96 90.39 60.89 90.57 60 90.75 61.95 90.92 66.63 91.1 64.61 91.28 65.94 91.45 63.21 91.63 63.75 91.81 63.69 91.99 61.93 92.16 63.39 92.34 59.79 92.52 58.04 92.69 58.76 92.87 61.12 93.05 59.41 93.22 56.2 93.4 54.2 93.58 53.58 93.76 51.72 93.93 51.28 94.11 52.15 94.29 53.25 94.46 54.52 94.64 56.69 94.82 55.08 94.99 52.74 95.17 51.03 95.35 51.79 95.52 51.74 95.7 52.43 95.88 55.63 96.06 55.49 96.23 52.41 96.41 49.03 96.59 48.36 96.76 47.53 96.94 48.9 97.12 50.21 97.29 51.99 97.47 50.33 97.65 49.21 97.82 50.98 98 51.97 98.18 51.17 98.36 51.67 98.53 53.69 98.71 52.08 98.89 50.53 99.06 52.22 99.24 53.54 99.42 50.02 99.59 50.36 99.77 50.64 99.95 51.93 100.12 49.84 100.3 51.44 100.48 51 100.66 49.97 100.83 47.87 101.01 47.86 101.19 49.51 101.36 49.84 101.54 51.03 101.72 51.73 101.89 52.6 102.07 53.24 102.25 54.97 102.42 53.89 102.6 53.38 102.78 52.84 102.96 53.34 103.13 53.92 103.31 53.64 103.49 52.48 103.66 52.83 103.84 55.26 104.02 53.91 104.19 54.79 104.37 53.12 104.55 51.41 104.73 52.57 104.9 51.68 105.08 51.87 105.26 54.31 105.43 56.06 105.61 55.17 105.79 55.03 105.96 55.82 106.14 55.13 106.32 54.53 106.49 54.55 106.67 51.75 106.85 51.33 107.03 52.1 107.2 53.22 107.38 57.34 107.56 59.96 107.73 58.25 107.91 56.46 108.09 55.18 108.26 51.15 108.44 51.29 108.62 50.91 108.79 53.03 108.97 53.54 109.15 53.32 109.33 48.83 109.5 49.79 109.68 51.59 109.86 52.07 110.03 50.55 110.21 48.15 110.39 47.27 110.56 49.69 110.74 47.41 110.92 46.05 111.09 46.73 111.27 46.77 111.45 46.8 111.63 47.82 111.8 49.22 111.98 50.52 112.16 49.28 112.33 50.66 112.51 52.11 112.69 53.19 112.86 53.9 113.04 57.61 113.22 57.46 113.39 55.23 113.57 54.44 113.75 56.49 113.93 56.72 114.1 56.82 114.28 56.64 114.46 55.2 114.63 53 114.81 51.54 114.99 53.59 115.16 52.47 115.34 51.47 115.52 50.12 115.69 52.32 115.87 53.03 116.05 54.04 116.23 55.53 116.4 54.06 116.58 51.66 116.76 51.1 116.93 51.8 117.11 50.2 117.29 49.46 117.46 48.41 117.64 46.58 117.82 45.85 118 46.28 118.17 46.02 118.35 44.74 118.53 45.17 118.7 47.43 118.88 48.36 119.06 50.85 119.23 50.86 119.41 51.5 119.59 51.11 119.76 50.19 119.94 51.08 120.12 53.16 120.3 50.88 120.47 50.64 120.65 51.35 120.83 50.13 121 50.24 121.18 51.08 121.36 49.94 121.53 48.9 121.71 46.61 121.89 45.78 122.06 45.95 122.24 44.41 122.42 45.3 122.6 47.25 122.77 46.91 122.95 49.35 123.13 48.01 123.3 52.52 123.48 53.47 123.66 53.16 123.83 54.48 124.01 54.14 124.19 51.73 124.36 53.34 124.54 51.25 124.72 50.46 124.9 51.04 125.07 53.43 125.25 52.09 125.43 50.7 125.6 49.15 125.78 48.09 125.96 47.76 126.13 49.79 126.31 51.06 126.49 51.32 126.66 50.88 126.84 50.93 127.02 52.87 127.2 55.2 127.37 53.33 127.55 53.83 127.73 53.72 127.9 51.11 128.08 50.25 128.26 48.3 128.43 43.46 128.61 44.41 128.79 44.62 128.97 44.5 129.14 43.62 129.32 45.28 129.5 47.64 129.67 47.97 129.85 47.61 130.03 46.94 130.2 47.42 130.38 48.04 130.56 48.51 130.73 50.14 130.91 52.33 131.09 55.58 131.27 56.4 131.44 53.53 131.62 54.44 131.8 53.87 131.97 53.35 132.15 52.3 132.33 49.68 132.5 48.02 132.68 45.62 132.86 47.07 133.03 45.53 133.21 46.57 133.39 46.53 133.57 45.69 133.74 48.17 133.92 49.07 134.1 50.82 134.27 48.94 134.45 49.21 134.63 48.72 134.8 49.07 134.98 48.6 135.16 50 135.33 48.63 135.51 50.32 135.69 50.1 135.87 50.92 136.04 54.11 136.22 53.36 136.4 55.33 136.57 57.39 136.75 58.15 136.93 56.51 137.1 57.6 137.28 58.42 137.46 57.96 137.63 55.71 137.81 57.05 137.99 56.66 138.17 55.4 138.34 55.6 138.52 58.4 138.7 56.58 138.87 54.74 139.05 54.4 139.23 52.99 139.4 54.15 139.58 52.92 139.76 51.48 139.93 51.58 140.11 49.93 140.29 47.61 140.47 50.78 140.64 51.8 140.82 48.48 141 47.08 141.17 47.13 141.35 45.89 141.53 46.63 141.7 45.82 141.88 46.25 142.06 45.26 142.24 46.25 142.41 46.89 142.59 50.03 142.77 49.39 142.94 48.81 143.12 50.1 143.3 51.81 143.47 52.76 143.65 54.05 143.83 52.11 144 52.54 144.18 49.26 144.36 49.66 144.54 49.84 144.71 47.83 144.89 51.29 145.07 54.3 145.24 53.67 145.42 52.85 145.6 51.82 145.77 50.57 145.95 53.01 146.13 52.83 146.3 51.34 146.48 55.83 146.66 56.58 146.84 54.35 147.01 51.75 147.19 52.21 147.37 53.79 147.54 56.01 147.72 53.87 147.9 55.19 148.07 54.6 148.25 51.44 148.43 51.83 148.6 52.76 148.78 54.73 148.96 52.6 149.14 52.04 149.31 50.82 149.49 53.22 149.67 56.22 149.84 53.42 150.02 54.09 150.2 55.15 150.37 53.41 150.55 50.48 150.73 48.04 150.9 47.09 151.08 45.89 151.26 47.14 151.44 47.5 151.61 48.74 151.79 51.84 151.97 53.95 152.14 53.49 152.32 52.8 152.5 54.35 152.67 53.26 152.85 54.17 153.03 52.87 153.2 51.07 153.38 49.97 153.56 48.16 153.74 49.94 153.91 49.62 154.09 50.2 154.27 50.34 154.44 50.47 154.62 50.96 154.8 49.19 154.97 46.74 155.15 45.04 155.33 46.08 155.51 45.08 155.68 47.78 155.86 47.12 156.04 47.38 156.21 43.28 156.39 42.23 156.57 40.43 156.74 41.5 156.92 40.75 157.1 42.14 157.27 38.98 157.45 38.89 157.63 38.41 157.81 39.81 157.98 39.34 158.16 39.56 158.34 41.3 158.51 41.91 158.69 40.53 158.87 40.03 159.04 38.15 159.22 39.08 159.4 41.44 159.57 42.74 159.75 44.74 159.93 44.85 160.11 44.82 160.28 44.28 160.46 43.54 160.64 42.15 160.81 40.45 160.99 40.2 161.17 38.76 161.34 39 161.52 38.13 161.7 39.04 161.87 38.08 162.05 36.58 162.23 35.78 162.41 36.74 162.58 35.98 162.76 37.37 162.94 38.85 163.11 41.07 163.29 40.67 163.47 41.76 163.64 39.61 163.82 38.17 164 37.45 164.17 39.57 164.35 40.93 164.53 40.39 164.71 42.58 164.88 41.86 165.06 42.05 165.24 40.46 165.41 39.68 165.59 41.59 165.77 42.37 165.94 40.13 166.12 39.51 166.3 39.24 166.48 40.23 166.65 38.63 166.83 41.67 167.01 43.01 167.18 42.49 167.36 40.1 167.54 42.21 167.71 39.91 167.89 41.42 168.07 41.05 168.24 41.95 168.42 40.14 168.6 42.96 168.78 42.84 168.95 43.16 169.13 46.32 169.31 44.56 169.48 44.15 169.66 42.09 169.84 43.76 170.01 43.23 170.19 43 170.37 42.74 170.54 43.21 170.72 41.64 170.9 42.89 171.08 44.52 171.25 44.84 171.43 47.85 171.61 43.78 171.78 41.92 171.96 43.92 172.14 44.92 172.31 45.34 172.49 40.96 172.67 41.89 172.84 40.9 173.02 40.83 173.2 41.67 173.38 39.18 173.55 36.76 173.73 35.18 173.91 36.78 174.08 34.92 174.26 33.08 174.44 32.46 174.61 31.35 174.79 32.5 174.97 31.55 175.14 32.29 175.32 31.67 175.5 30.41 175.68 28.98 175.85 33.4 176.03 31.22 176.21 33.32 176.38 32.23 176.56 34.97 176.74 35.41 176.91 32.65 177.09 31.26 177.27 28.84 177.44 25.06 177.62 26.92 177.8 30.96 177.98 30.51 178.15 29.65 178.33 29.01 178.51 31.33 178.68 33.35 178.86 34.86 179.04 34.98 179.21 35.28 179.39 36.23 179.57 38.13 179.75 36.75 179.92 37.23 180.1 38.07 180.28 38.05 180.45 37.17 180.63 36.21 180.81 36.4 180.98 38.28 181.16 36.1 181.34 37.81 181.51 37.19 181.69 41.18 181.87 40.8 182.05 38.45 182.22 40.51 182.4 40.63 182.58 38.48 182.75 39.65 182.93 38.66 183.11 36.7 183.28 37.29 183.46 35.04 183.64 37.02 183.81 35.51 183.99 34.42 184.17 30.89 184.35 29.41 184.52 30.05 184.7 31.32 184.88 29.87 185.05 29.95 185.23 31.67 185.41 30.52 185.58 29.51 185.76 28.33 185.94 28.47 186.11 28.12 186.29 25.38 186.47 24.86 186.65 23.58 186.82 20.42 187 18.74 187.18 20.26 187.35 24.59 187.53 26.86 187.71 28.12 187.88 27.83 188.06 28.79 188.24 27.73 188.41 29.34 188.59 26.48 188.77 23.16 188.95 22.99 189.12 24.89 189.3 21.77 189.48 22.06 189.65 22.57 189.83 22.12 190.01 24.27 190.18 30.49 190.36 30.89 190.54 31.67 190.72 31.97 190.89 32.77 191.07 31.76 191.25 31.92 191.42 33.75 191.6 34.28 191.78 34.19 191.95 36.33 192.13 34.67 192.31 34.74 192.48 33.13 192.66 29.71 192.84 30.55 193.02 31.56 193.19 31.57 193.37 28.67 193.55 25.55 193.72 26.19 193.9 23.95 194.08 24.27 194.25 22.2 194.43 21.07 194.61 20.36 194.78 19.7 194.96 18.57 195.14 18.72 195.32 17.66 195.49 16.7 195.67 14.55 195.85 12.77 196.02 14.23 196.2 14.67"/>
      </g>
    </g>
  </g>
</g>
  <g class="guide ylabels" font-size="2.82" font-family="'PT Sans Caption','Helvetica Neue','Helvetica',sans-serif" fill="#6C606B" id="img-cec58fa3-10">
    <text x="16.27" y="89.93" text-anchor="end" dy="0.35em">-10</text>
    <text x="16.27" y="73.34" text-anchor="end" dy="0.35em">0</text>
    <text x="16.27" y="56.76" text-anchor="end" dy="0.35em">10</text>
    <text x="16.27" y="40.17" text-anchor="end" dy="0.35em">20</text>
    <text x="16.27" y="23.59" text-anchor="end" dy="0.35em">30</text>
    <text x="16.27" y="7" text-anchor="end" dy="0.35em">40</text>
  </g>
  <g font-size="3.88" font-family="'PT Sans','Helvetica Neue','Helvetica',sans-serif" fill="#564A55" stroke="#000000" stroke-opacity="0.000" id="img-cec58fa3-11">
    <text x="8.81" y="48.46" text-anchor="end" dy="0.35em">y</text>
  </g>
</g>
<defs>
  <clipPath id="img-cec58fa3-3">
  <path d="M17.27,5 L 198.2 5 198.2 91.93 17.27 91.93" />
</clipPath>
</defs>
</svg>
