<?xml version="1.0" encoding="UTF-8"?>
<svg xmlns="http://www.w3.org/2000/svg"
     xmlns:xlink="http://www.w3.org/1999/xlink"
     xmlns:gadfly="http://www.gadflyjl.org/ns"
     version="1.2"
     width="152.4mm" height="101.6mm" viewBox="0 0 152.4 101.6"
     stroke="none"
     fill="#000000"
     stroke-width="0.3"
     font-size="3.88"
>
<g class="plotroot xscalable yscalable" id="img-040a3d7f-1">
  <g font-size="3.88" font-family="'PT Sans','Helvetica Neue','Helvetica',sans-serif" fill="#564A55" stroke="#000000" stroke-opacity="0.000" id="img-040a3d7f-2">
    <text x="82.4" y="89.99" text-anchor="middle" dy="0.6em">Frequency (Hz)</text>
  </g>
  <g class="guide xlabels" font-size="2.82" font-family="'PT Sans Caption','Helvetica Neue','Helvetica',sans-serif" fill="#6C606B" id="img-040a3d7f-3">
    <text x="19.4" y="83.32" text-anchor="middle" dy="0.6em">0</text>
    <text x="82.4" y="83.32" text-anchor="middle" dy="0.6em">5</text>
    <text x="145.4" y="83.32" text-anchor="middle" dy="0.6em">10</text>
  </g>
<g clip-path="url(#img-040a3d7f-4)">
  <g id="img-040a3d7f-5">
    <g pointer-events="visible" opacity="1" fill="#000000" fill-opacity="0.000" stroke="#000000" stroke-opacity="0.000" class="guide background" id="img-040a3d7f-6">
      <rect x="17.4" y="5" width="130" height="77.32"/>
    </g>
    <g class="guide ygridlines xfixed" stroke-dasharray="0.5,0.5" stroke-width="0.2" stroke="#D0D0E0" id="img-040a3d7f-7">
      <path fill="none" d="M17.4,80.31 L 147.4 80.31"/>
      <path fill="none" d="M17.4,61.99 L 147.4 61.99"/>
      <path fill="none" d="M17.4,43.66 L 147.4 43.66"/>
      <path fill="none" d="M17.4,25.33 L 147.4 25.33"/>
      <path fill="none" d="M17.4,7 L 147.4 7"/>
    </g>
    <g class="guide xgridlines yfixed" stroke-dasharray="0.5,0.5" stroke-width="0.2" stroke="#D0D0E0" id="img-040a3d7f-8">
      <path fill="none" d="M19.4,5 L 19.4 82.32"/>
      <path fill="none" d="M82.4,5 L 82.4 82.32"/>
      <path fill="none" d="M145.4,5 L 145.4 82.32"/>
    </g>
    <g class="plotpanel" id="img-040a3d7f-9">
      <g stroke-width="0.3" fill="#000000" fill-opacity="0.000" class="geometry" stroke-dasharray="none" stroke="#00BFFF" id="img-040a3d7f-10">
        <path fill="none" d="M19.4,25.33 L 19.52 25.33 19.64 25.33 19.77 25.33 19.89 25.33 20.01 25.33 20.14 25.33 20.26 25.33 20.38 25.33 20.51 25.33 20.63 25.33 20.75 25.33 20.88 25.33 21 25.33 21.12 25.33 21.25 25.33 21.37 25.33 21.49 25.33 21.62 25.33 21.74 25.33 21.86 25.33 21.98 25.33 22.11 25.33 22.23 25.33 22.35 25.33 22.48 25.33 22.6 25.33 22.72 25.33 22.85 25.33 22.97 25.33 23.09 25.34 23.22 25.34 23.34 25.34 23.46 25.34 23.59 25.34 23.71 25.34 23.83 25.34 23.96 25.34 24.08 25.34 24.2 25.33 24.33 25.33 24.45 25.33 24.57 25.33 24.69 25.33 24.82 25.33 24.94 25.33 25.06 25.33 25.19 25.33 25.31 25.33 25.43 25.33 25.56 25.33 25.68 25.33 25.8 25.33 25.93 25.33 26.05 25.33 26.17 25.33 26.3 25.33 26.42 25.33 26.54 25.33 26.67 25.33 26.79 25.33 26.91 25.33 27.03 25.33 27.16 25.33 27.28 25.33 27.4 25.33 27.53 25.33 27.65 25.33 27.77 25.33 27.9 25.33 28.02 25.33 28.14 25.33 28.27 25.33 28.39 25.33 28.51 25.33 28.64 25.33 28.76 25.33 28.88 25.33 29.01 25.33 29.13 25.33 29.25 25.33 29.38 25.33 29.5 25.33 29.62 25.33 29.74 25.33 29.87 25.33 29.99 25.33 30.11 25.33 30.24 25.33 30.36 25.33 30.48 25.33 30.61 25.33 30.73 25.33 30.85 25.33 30.98 25.33 31.1 25.33 31.22 25.33 31.35 25.34 31.47 25.34 31.59 25.34 31.72 25.34 31.84 25.34 31.96 25.34 32.08 25.34 32.21 25.34 32.33 25.34 32.45 25.34 32.58 25.34 32.7 25.33 32.82 25.33 32.95 25.33 33.07 25.33 33.19 25.33 33.32 25.33 33.44 25.33 33.56 25.33 33.69 25.33 33.81 25.33 33.93 25.33 34.06 25.33 34.18 25.33 34.3 25.33 34.42 25.33 34.55 25.33 34.67 25.33 34.79 25.33 34.92 25.33 35.04 25.33 35.16 25.33 35.29 25.33 35.41 25.33 35.53 25.33 35.66 25.33 35.78 25.33 35.9 25.33 36.03 25.33 36.15 25.33 36.27 25.33 36.4 25.33 36.52 25.33 36.64 25.33 36.77 25.33 36.89 25.33 37.01 25.33 37.13 25.33 37.26 25.33 37.38 25.33 37.5 25.33 37.63 25.33 37.75 25.33 37.87 25.33 38 25.33 38.12 25.33 38.24 25.33 38.37 25.33 38.49 25.33 38.61 25.33 38.74 25.33 38.86 25.33 38.98 25.33 39.11 25.33 39.23 25.33 39.35 25.33 39.47 25.33 39.6 25.34 39.72 25.34 39.84 25.34 39.97 25.34 40.09 25.34 40.21 25.34 40.34 25.34 40.46 25.34 40.58 25.34 40.71 25.34 40.83 25.34 40.95 25.34 41.08 25.34 41.2 25.34 41.32 25.33 41.45 25.33 41.57 25.33 41.69 25.33 41.82 25.33 41.94 25.33 42.06 25.33 42.18 25.33 42.31 25.33 42.43 25.33 42.55 25.33 42.68 25.33 42.8 25.33 42.92 25.33 43.05 25.33 43.17 25.33 43.29 25.33 43.42 25.33 43.54 25.33 43.66 25.33 43.79 25.33 43.91 25.33 44.03 25.33 44.16 25.33 44.28 25.33 44.4 25.33 44.52 25.33 44.65 25.33 44.77 25.33 44.89 25.33 45.02 25.33 45.14 25.33 45.26 25.33 45.39 25.33 45.51 25.33 45.63 25.33 45.76 25.33 45.88 25.33 46 25.33 46.13 25.33 46.25 25.33 46.37 25.33 46.5 25.33 46.62 25.33 46.74 25.33 46.86 25.33 46.99 25.33 47.11 25.33 47.23 25.33 47.36 25.33 47.48 25.33 47.6 25.33 47.73 25.33 47.85 25.34 47.97 25.34 48.1 25.34 48.22 25.34 48.34 25.34 48.47 25.34 48.59 25.34 48.71 25.34 48.84 25.34 48.96 25.34 49.08 25.34 49.21 25.34 49.33 25.34 49.45 25.34 49.57 25.34 49.7 25.34 49.82 25.34 49.94 25.33 50.07 25.33 50.19 25.33 50.31 25.33 50.44 25.33 50.56 25.33 50.68 25.33 50.81 25.33 50.93 25.33 51.05 25.33 51.18 25.33 51.3 25.33 51.42 25.33 51.55 25.33 51.67 25.33 51.79 25.33 51.91 25.33 52.04 25.33 52.16 25.33 52.28 25.33 52.41 25.33 52.53 25.33 52.65 25.33 52.78 25.33 52.9 25.33 53.02 25.33 53.15 25.33 53.27 25.33 53.39 25.33 53.52 25.33 53.64 25.33 53.76 25.33 53.89 25.33 54.01 25.33 54.13 25.33 54.26 25.33 54.38 25.33 54.5 25.33 54.62 25.33 54.75 25.33 54.87 25.33 54.99 25.33 55.12 25.33 55.24 25.33 55.36 25.33 55.49 25.33 55.61 25.33 55.73 25.33 55.86 25.33 55.98 25.34 56.1 25.34 56.23 25.34 56.35 25.34 56.47 25.34 56.6 25.34 56.72 25.34 56.84 25.34 56.96 25.34 57.09 25.34 57.21 25.34 57.33 25.34 57.46 25.34 57.58 25.34 57.7 25.34 57.83 25.34 57.95 25.34 58.07 25.34 58.2 25.34 58.32 25.34 58.44 25.33 58.57 25.33 58.69 25.33 58.81 25.33 58.94 25.33 59.06 25.33 59.18 25.33 59.31 25.33 59.43 25.33 59.55 25.33 59.67 25.33 59.8 25.33 59.92 25.33 60.04 25.33 60.17 25.33 60.29 25.33 60.41 25.33 60.54 25.33 60.66 25.33 60.78 25.33 60.91 25.33 61.03 25.33 61.15 25.33 61.28 25.33 61.4 25.33 61.52 25.33 61.65 25.33 61.77 25.33 61.89 25.33 62.01 25.33 62.14 25.33 62.26 25.33 62.38 25.33 62.51 25.33 62.63 25.33 62.75 25.33 62.88 25.33 63 25.33 63.12 25.33 63.25 25.33 63.37 25.33 63.49 25.33 63.62 25.33 63.74 25.33 63.86 25.33 63.99 25.33 64.11 25.33 64.23 25.33 64.35 25.34 64.48 25.34 64.6 25.34 64.72 25.34 64.85 25.34 64.97 25.34 65.09 25.34 65.22 25.34 65.34 25.34 65.46 25.34 65.59 25.34 65.71 25.34 65.83 25.34 65.96 25.34 66.08 25.34 66.2 25.34 66.33 25.34 66.45 25.34 66.57 25.34 66.7 25.34 66.82 25.34 66.94 25.34 67.06 25.33 67.19 25.33 67.31 25.33 67.43 25.33 67.56 25.33 67.68 25.33 67.8 25.33 67.93 25.33 68.05 25.33 68.17 25.33 68.3 25.33 68.42 25.33 68.54 25.33 68.67 25.33 68.79 25.33 68.91 25.33 69.04 25.33 69.16 25.33 69.28 25.33 69.4 25.33 69.53 25.33 69.65 25.33 69.77 25.33 69.9 25.33 70.02 25.33 70.14 25.33 70.27 25.33 70.39 25.33 70.51 25.33 70.64 25.33 70.76 25.33 70.88 25.33 71.01 25.33 71.13 25.33 71.25 25.33 71.38 25.33 71.5 25.33 71.62 25.33 71.75 25.33 71.87 25.33 71.99 25.33 72.11 25.33 72.24 25.33 72.36 25.33 72.48 25.33 72.61 25.33 72.73 25.33 72.85 25.33 72.98 25.33 73.1 25.33 73.22 25.33 73.35 25.33 73.47 25.33 73.59 25.32 73.72 25.32 73.84 25.32 73.96 25.32 74.09 25.32 74.21 25.32 74.33 25.32 74.45 25.33 74.58 25.33 74.7 25.33 74.82 25.33 74.95 25.33 75.07 25.33 75.19 25.33 75.32 25.34 75.44 25.34 75.56 25.34 75.69 25.35 75.81 25.35 75.93 25.36 76.06 25.37 76.18 25.37 76.3 25.38 76.43 25.39 76.55 25.4 76.67 25.41 76.79 25.42 76.92 25.44 77.04 25.45 77.16 25.47 77.29 25.48 77.41 25.5 77.53 25.52 77.66 25.54 77.78 25.57 77.9 25.59 78.03 25.62 78.15 25.64 78.27 25.67 78.4 25.7 78.52 25.74 78.64 25.77 78.77 25.81 78.89 25.85 79.01 25.89 79.14 25.93 79.26 25.98 79.38 26.03 79.5 26.08 79.63 26.13 79.75 26.18 79.87 26.24 80 26.3 80.12 26.36 80.24 26.43 80.37 26.5 80.49 26.57 80.61 26.64 80.74 26.72 80.86 26.8 80.98 26.89 81.11 26.97 81.23 27.06 81.35 27.16 81.48 27.25 81.6 27.35 81.72 27.46 81.84 27.56 81.97 27.67 82.09 27.79 82.21 27.91 82.34 28.03 82.46 28.15 82.58 28.28 82.71 28.42 82.83 28.56 82.95 28.7 83.08 28.85 83.2 29 83.32 29.15 83.45 29.32 83.57 29.48 83.69 29.65 83.82 29.83 83.94 30.01 84.06 30.19 84.19 30.38 84.31 30.58 84.43 30.78 84.55 30.99 84.68 31.21 84.8 31.43 84.92 31.65 85.05 31.89 85.17 32.13 85.29 32.37 85.42 32.63 85.54 32.89 85.66 33.16 85.79 33.44 85.91 33.72 86.03 34.02 86.16 34.32 86.28 34.63 86.4 34.96 86.53 35.29 86.65 35.63 86.77 35.99 86.89 36.36 87.02 36.74 87.14 37.13 87.26 37.54 87.39 37.96 87.51 38.4 87.63 38.86 87.76 39.34 87.88 39.84 88 40.36 88.13 40.92 88.25 41.5 88.37 42.11 88.5 42.77 88.62 43.47 88.74 44.23 88.87 45.06 88.99 45.97 89.11 47.01 89.24 48.21 89.36 49.66 89.48 51.57 89.6 54.54 89.73 65.54 89.85 55.87 89.97 53.34 90.1 52.07 90.22 51.3 90.34 50.81 90.47 50.5 90.59 50.32 90.71 50.23 90.84 50.22 90.96 50.26 91.08 50.36 91.21 50.51 91.33 50.69 91.45 50.9 91.58 51.14 91.7 51.4 91.82 51.68 91.94 51.97 92.07 52.27 92.19 52.57 92.31 52.86 92.44 53.13 92.56 53.39 92.68 53.61 92.81 53.79 92.93 53.93 93.05 54.03 93.18 54.08 93.3 54.09 93.42 54.05 93.55 53.99 93.67 53.89 93.79 53.78 93.92 53.66 94.04 53.53 94.16 53.4 94.28 53.28 94.41 53.17 94.53 53.07 94.65 53 94.78 52.94 94.9 52.91 95.02 52.9 95.15 52.92 95.27 52.97 95.39 53.05 95.52 53.18 95.64 53.34 95.76 53.55 95.89 53.81 96.01 54.14 96.13 54.54 96.26 55.04 96.38 55.66 96.5 56.47 96.63 57.54 96.75 59.12 96.87 61.9 96.99 74.43 97.12 61.51 97.24 58.81 97.36 57.21 97.49 56.09 97.61 55.23 97.73 54.54 97.86 53.97 97.98 53.5 98.1 53.1 98.23 52.77 98.35 52.49 98.47 52.26 98.6 52.07 98.72 51.92 98.84 51.8 98.97 51.72 99.09 51.68 99.21 51.66 99.33 51.68 99.46 51.74 99.58 51.82 99.7 51.95 99.83 52.11 99.95 52.32 100.07 52.57 100.2 52.87 100.32 53.24 100.44 53.68 100.57 54.22 100.69 54.88 100.81 55.7 100.94 56.8 101.06 58.35 101.18 61.01 101.31 73.6 101.43 61.37 101.55 58.54 101.68 56.92 101.8 55.81 101.92 54.96 102.04 54.3 102.17 53.76 102.29 53.31 102.41 52.94 102.54 52.64 102.66 52.39 102.78 52.18 102.91 52.02 103.03 51.9 103.15 51.81 103.28 51.76 103.4 51.74 103.52 51.76 103.65 51.81 103.77 51.89 103.89 52.02 104.02 52.18 104.14 52.38 104.26 52.62 104.38 52.92 104.51 53.28 104.63 53.7 104.75 54.22 104.88 54.85 105 55.63 105.12 56.65 105.25 58.06 105.37 60.3 105.49 66.04 105.62 62.86 105.74 59.32 105.86 57.5 105.99 56.29 106.11 55.39 106.23 54.69 106.36 54.13 106.48 53.66 106.6 53.28 106.73 52.97 106.85 52.71 106.97 52.5 107.09 52.33 107.22 52.2 107.34 52.11 107.46 52.06 107.59 52.03 107.71 52.05 107.83 52.1 107.96 52.18 108.08 52.3 108.2 52.45 108.33 52.65 108.45 52.89 108.57 53.18 108.7 53.53 108.82 53.95 108.94 54.46 109.07 55.07 109.19 55.83 109.31 56.82 109.43 58.17 109.56 60.26 109.68 65.06 109.8 63.92 109.93 59.92 110.05 57.99 110.17 56.73 110.3 55.8 110.42 55.08 110.54 54.5 110.67 54.03 110.79 53.64 110.91 53.32 111.04 53.05 111.16 52.83 111.28 52.66 111.41 52.53 111.53 52.44 111.65 52.38 111.77 52.35 111.9 52.36 112.02 52.41 112.14 52.49 112.27 52.6 112.39 52.75 112.51 52.95 112.64 53.18 112.76 53.47 112.88 53.82 113.01 54.23 113.13 54.73 113.25 55.33 113.38 56.08 113.5 57.04 113.62 58.35 113.75 60.36 113.87 64.69 113.99 64.82 114.12 60.43 114.24 58.42 114.36 57.12 114.48 56.17 114.61 55.43 114.73 54.85 114.85 54.37 114.98 53.97 115.1 53.64 115.22 53.37 115.35 53.15 115.47 52.97 115.59 52.84 115.72 52.74 115.84 52.68 115.96 52.65 116.09 52.66 116.21 52.7 116.33 52.77 116.46 52.89 116.58 53.03 116.7 53.22 116.82 53.46 116.95 53.74 117.07 54.08 117.19 54.48 117.32 54.97 117.44 55.57 117.56 56.3 117.69 57.25 117.81 58.53 117.93 60.47 118.06 64.48 118.18 65.68 118.3 60.88 118.43 58.8 118.55 57.46 118.67 56.5 118.8 55.75 118.92 55.15 119.04 54.66 119.17 54.26 119.29 53.93 119.41 53.65 119.53 53.43 119.66 53.25 119.78 53.11 119.9 53.01 120.03 52.94 120.15 52.91 120.27 52.92 120.4 52.95 120.52 53.02 120.64 53.13 120.77 53.28 120.89 53.46 121.01 53.69 121.14 53.97 121.26 54.3 121.38 54.7 121.51 55.19 121.63 55.77 121.75 56.5 121.87 57.42 122 58.67 122.12 60.55 122.24 64.29 122.37 66.56 122.49 61.3 122.61 59.14 122.74 57.77 122.86 56.78 122.98 56.02 123.11 55.42 123.23 54.92 123.35 54.51 123.48 54.17 123.6 53.89 123.72 53.67 123.85 53.48 123.97 53.34 124.09 53.23 124.21 53.17 124.34 53.13 124.46 53.13 124.58 53.17 124.71 53.23 124.83 53.34 124.95 53.48 125.08 53.66 125.2 53.88 125.32 54.16 125.45 54.49 125.57 54.88 125.69 55.36 125.82 55.93 125.94 56.65 126.06 57.56 126.19 58.78 126.31 60.6 126.43 64.11 126.56 67.53 126.68 61.69 126.8 59.44 126.92 58.04 127.05 57.03 127.17 56.26 127.29 55.64 127.42 55.14 127.54 54.72 127.66 54.38 127.79 54.09 127.91 53.86 128.03 53.67 128.16 53.53 128.28 53.42 128.4 53.35 128.53 53.31 128.65 53.31 128.77 53.34 128.9 53.4 129.02 53.5 129.14 53.64 129.26 53.82 129.39 54.04 129.51 54.3 129.63 54.63 129.76 55.02 129.88 55.49 130 56.05 130.13 56.76 130.25 57.65 130.37 58.84 130.5 60.61 130.62 63.92 130.74 68.66 130.87 62.04 130.99 59.7 131.11 58.26 131.24 57.24 131.36 56.45 131.48 55.83 131.61 55.31 131.73 54.89 131.85 54.54 131.97 54.25 132.1 54.02 132.22 53.82 132.34 53.67 132.47 53.56 132.59 53.49 132.71 53.45 132.84 53.44 132.96 53.47 133.08 53.53 133.21 53.62 133.33 53.76 133.45 53.93 133.58 54.15 133.7 54.41 133.82 54.73 133.95 55.11 134.07 55.58 134.19 56.14 134.31 56.83 134.44 57.7 134.56 58.87 134.68 60.58 134.81 63.71 134.93 70.1 135.05 62.37 135.18 59.93 135.3 58.45 135.42 57.41 135.55 56.61 135.67 55.97 135.79 55.45 135.92 55.02 136.04 54.67 136.16 54.38 136.29 54.13 136.41 53.94 136.53 53.78 136.66 53.67 136.78 53.59 136.9 53.54 137.02 53.53 137.15 53.56 137.27 53.62 137.39 53.71 137.52 53.84 137.64 54.01 137.76 54.22 137.89 54.48 138.01 54.79 138.13 55.17 138.26 55.63 138.38 56.18 138.5 56.86 138.63 57.72 138.75 58.86 138.87 60.52 139 63.48 139.12 72.19 139.24 62.68 139.36 60.13 139.49 58.61 139.61 57.54 139.73 56.72 139.86 56.08 139.98 55.55 140.1 55.12 140.23 54.76 140.35 54.46 140.47 54.21 140.6 54.01 140.72 53.85 140.84 53.73 140.97 53.65 141.09 53.6 141.21 53.59 141.34 53.61 141.46 53.67 141.58 53.76 141.7 53.88 141.83 54.05 141.95 54.26 142.07 54.51 142.2 54.82 142.32 55.19 142.44 55.64 142.57 56.18 142.69 56.85 142.81 57.69 142.94 58.81 143.06 60.42 143.18 63.23 143.31 76.6 143.43 62.97 143.55 60.29 143.68 58.73 143.8 57.63 143.92 56.81 144.05 56.15 144.17 55.61 144.29 55.17 144.41 54.81 144.54 54.5 144.66 54.25 144.78 54.05 144.91 53.89 145.03 53.76 145.15 53.68 145.28 53.63 145.4 53.61"/>
      </g>
    </g>
  </g>
</g>
  <g class="guide ylabels" font-size="2.82" font-family="'PT Sans Caption','Helvetica Neue','Helvetica',sans-serif" fill="#6C606B" id="img-040a3d7f-11">
    <text x="16.4" y="80.31" text-anchor="end" dy="0.35em">-6</text>
    <text x="16.4" y="61.99" text-anchor="end" dy="0.35em">-4</text>
    <text x="16.4" y="43.66" text-anchor="end" dy="0.35em">-2</text>
    <text x="16.4" y="25.33" text-anchor="end" dy="0.35em">0</text>
    <text x="16.4" y="7" text-anchor="end" dy="0.35em">2</text>
  </g>
  <g font-size="3.88" font-family="'PT Sans','Helvetica Neue','Helvetica',sans-serif" fill="#564A55" stroke="#000000" stroke-opacity="0.000" id="img-040a3d7f-12">
    <text x="8.81" y="41.66" text-anchor="middle" dy="0.35em" transform="rotate(-90, 8.81, 43.66)">Magnitude (db)</text>
  </g>
</g>
<defs>
  <clipPath id="img-040a3d7f-4">
  <path d="M17.4,5 L 147.4 5 147.4 82.32 17.4 82.32" />
</clipPath>
</defs>
</svg>
