<?xml version="1.0" encoding="UTF-8"?>
<svg xmlns="http://www.w3.org/2000/svg"
     xmlns:xlink="http://www.w3.org/1999/xlink"
     xmlns:gadfly="http://www.gadflyjl.org/ns"
     version="1.2"
     width="203.2mm" height="101.6mm" viewBox="0 0 203.2 101.6"
     stroke="none"
     fill="#000000"
     stroke-width="0.3"
     font-size="3.88"
>
<g class="plotroot xscalable yscalable" id="img-c29c7e64-1">
  <g class="guide xlabels" font-size="2.82" font-family="'PT Sans Caption','Helvetica Neue','Helvetica',sans-serif" fill="#6C606B" id="img-c29c7e64-2">
    <text x="19.27" y="92.93" text-anchor="middle" dy="0.6em">0</text>
    <text x="107.73" y="92.93" text-anchor="middle" dy="0.6em">500</text>
    <text x="196.2" y="92.93" text-anchor="middle" dy="0.6em">1000</text>
  </g>
<g clip-path="url(#img-c29c7e64-3)">
  <g id="img-c29c7e64-4">
    <g pointer-events="visible" opacity="1" fill="#000000" fill-opacity="0.000" stroke="#000000" stroke-opacity="0.000" class="guide background" id="img-c29c7e64-5">
      <rect x="17.27" y="5" width="180.93" height="86.93"/>
    </g>
    <g class="guide ygridlines xfixed" stroke-dasharray="0.5,0.5" stroke-width="0.2" stroke="#D0D0E0" id="img-c29c7e64-6">
      <path fill="none" d="M17.27,89.93 L 198.2 89.93"/>
      <path fill="none" d="M17.27,69.2 L 198.2 69.2"/>
      <path fill="none" d="M17.27,48.46 L 198.2 48.46"/>
      <path fill="none" d="M17.27,27.73 L 198.2 27.73"/>
      <path fill="none" d="M17.27,7 L 198.2 7"/>
    </g>
    <g class="guide xgridlines yfixed" stroke-dasharray="0.5,0.5" stroke-width="0.2" stroke="#D0D0E0" id="img-c29c7e64-7">
      <path fill="none" d="M19.27,5 L 19.27 91.93"/>
      <path fill="none" d="M107.73,5 L 107.73 91.93"/>
      <path fill="none" d="M196.2,5 L 196.2 91.93"/>
    </g>
    <g class="plotpanel" id="img-c29c7e64-8">
      <g stroke-width="0.3" fill="#000000" fill-opacity="0.000" class="geometry" stroke-dasharray="none" stroke="#00BFFF" id="img-c29c7e64-9">
        <path fill="none" d="M19.44,67.27 L 19.62 63.97 19.8 66.18 19.97 67.33 20.15 68.93 20.33 67.72 20.5 66.2 20.68 63.76 20.86 64.09 21.04 63.34 21.21 63.56 21.39 64.21 21.57 66.06 21.74 66.26 21.92 66.84 22.1 66.7 22.27 67.78 22.45 71.63 22.63 73.29 22.8 72.24 22.98 72.1 23.16 70 23.34 71.56 23.51 69.06 23.69 67.73 23.87 69.57 24.04 67.25 24.22 65.47 24.4 62.15 24.57 63.24 24.75 59.62 24.93 55.16 25.1 52.04 25.28 53.52 25.46 52.04 25.64 51.98 25.81 49.27 25.99 45.9 26.17 45.19 26.34 47.01 26.52 49.3 26.7 44.74 26.87 46.22 27.05 44.58 27.23 43.8 27.4 44.26 27.58 43.52 27.76 43.73 27.94 42.26 28.11 43.13 28.29 45.2 28.47 43.75 28.64 47.01 28.82 46.4 29 49.08 29.17 50.1 29.35 48.74 29.53 46.48 29.7 46.94 29.88 45.18 30.06 45.62 30.24 48.94 30.41 47.41 30.59 42.7 30.77 44.8 30.94 47.12 31.12 45.95 31.3 44.82 31.47 44.79 31.65 46.23 31.83 48.98 32.01 48.87 32.18 49.29 32.36 49.46 32.54 48.49 32.71 48.15 32.89 48.51 33.07 44.98 33.24 45.74 33.42 44.48 33.6 47.17 33.77 46.14 33.95 45.94 34.13 40.39 34.31 39.08 34.48 38.52 34.66 39 34.84 41.22 35.01 40.83 35.19 42.48 35.37 40.53 35.54 39.3 35.72 40.99 35.9 40.53 36.07 39.77 36.25 38.17 36.43 43.69 36.61 41.06 36.78 41.91 36.96 45.62 37.14 46.65 37.31 48.28 37.49 45.55 37.67 43.75 37.84 41.83 38.02 42.87 38.2 41.99 38.37 42.65 38.55 46.47 38.73 44.19 38.91 43.89 39.08 42.63 39.26 40.5 39.44 38.4 39.61 37.7 39.79 39.26 39.97 37.5 40.14 37.11 40.32 37.32 40.5 41.4 40.67 38.85 40.85 41 41.03 42.59 41.21 40.55 41.38 37.35 41.56 37.87 41.74 36.7 41.91 39.68 42.09 37.22 42.27 38.07 42.44 35.45 42.62 38.73 42.8 37.52 42.98 37.37 43.15 35.61 43.33 32.82 43.51 32.14 43.68 31.14 43.86 29.37 44.04 29.33 44.21 33.91 44.39 38.31 44.57 38.55 44.74 40.96 44.92 40.97 45.1 37.74 45.28 36.88 45.45 37.29 45.63 37.33 45.81 40.37 45.98 40.11 46.16 36.17 46.34 37.49 46.51 36.21 46.69 35.05 46.87 33.31 47.04 31.95 47.22 28.73 47.4 28.94 47.58 27.25 47.75 27.24 47.93 27.7 48.11 26.31 48.28 23.68 48.46 20.91 48.64 19.71 48.81 19.85 48.99 21.95 49.17 20.08 49.34 23.55 49.52 25.3 49.7 26.97 49.88 27.43 50.05 33.79 50.23 35.77 50.41 35.28 50.58 34.5 50.76 33.24 50.94 34.88 51.11 34.37 51.29 33.79 51.47 33.88 51.64 35.21 51.82 35.74 52 34.53 52.18 34.81 52.35 37.48 52.53 40.54 52.71 39.1 52.88 38.24 53.06 34.69 53.24 33.69 53.41 33.47 53.59 37.42 53.77 39.65 53.94 40.28 54.12 36.29 54.3 35.55 54.48 36.96 54.65 39.46 54.83 38.67 55.01 38.68 55.18 36.59 55.36 38.08 55.54 37.32 55.71 38.66 55.89 40.23 56.07 40.31 56.25 39.37 56.42 42.31 56.6 42.73 56.78 43.32 56.95 44.63 57.13 45.6 57.31 45.43 57.48 46.84 57.66 47.81 57.84 49.09 58.01 49.42 58.19 50.63 58.37 53.19 58.55 54.95 58.72 53.67 58.9 55.25 59.08 56.03 59.25 54.8 59.43 60.79 59.61 59.29 59.78 53.75 59.96 58.03 60.14 57.83 60.31 56.89 60.49 60.28 60.67 60.84 60.85 59 61.02 60.68 61.2 59.73 61.38 55.62 61.55 55.35 61.73 55.5 61.91 52.37 62.08 52.46 62.26 53.38 62.44 52.14 62.61 52.59 62.79 50.24 62.97 49.61 63.15 52.31 63.32 53.57 63.5 54.99 63.68 55.99 63.85 56.56 64.03 58.16 64.21 56.05 64.38 55.1 64.56 56.87 64.74 57.43 64.91 55.04 65.09 52.31 65.27 55.51 65.45 54.9 65.62 54.95 65.8 51.86 65.98 52.75 66.15 48.86 66.33 49.46 66.51 46.1 66.68 49.5 66.86 49.08 67.04 48.5 67.21 52.16 67.39 52.12 67.57 51.08 67.75 49.33 67.92 49.06 68.1 49.96 68.28 49.92 68.45 50.39 68.63 50.65 68.81 49.63 68.98 53.79 69.16 49.95 69.34 49.63 69.52 48.5 69.69 52.98 69.87 50.23 70.05 49.39 70.22 50.2 70.4 50.46 70.58 50.26 70.75 49.96 70.93 49.96 71.11 53.65 71.28 52.88 71.46 52.39 71.64 52 71.82 53.42 71.99 53.26 72.17 51.43 72.35 52.54 72.52 50.95 72.7 52.07 72.88 50.45 73.05 51.32 73.23 51.67 73.41 45.66 73.58 42.46 73.76 43.18 73.94 43.37 74.12 44.96 74.29 45.11 74.47 45.88 74.65 48.79 74.82 47.54 75 50.84 75.18 50.95 75.35 47.11 75.53 47.06 75.71 49.52 75.88 50.38 76.06 47.06 76.24 46.25 76.42 45.56 76.59 43.8 76.77 42.99 76.95 43.04 77.12 41.41 77.3 43.02 77.48 42.74 77.65 41.17 77.83 39.7 78.01 40.14 78.18 38.61 78.36 35.53 78.54 36.49 78.72 33.45 78.89 34.25 79.07 34.24 79.25 33.76 79.42 34.97 79.6 33.33 79.78 32.5 79.95 31.42 80.13 30.45 80.31 26.94 80.49 27.05 80.66 23.19 80.84 23.55 81.02 21.9 81.19 22.03 81.37 21.16 81.55 20.34 81.72 20.97 81.9 20.51 82.08 22.11 82.25 24.05 82.43 22.95 82.61 21.13 82.79 20.72 82.96 22.61 83.14 21.11 83.32 18.34 83.49 17.89 83.67 17.6 83.85 19.5 84.02 15.1 84.2 10.54 84.38 10.83 84.55 11.91 84.73 12.21 84.91 15.77 85.09 16.1 85.26 16.93 85.44 16.91 85.62 14.86 85.79 18.2 85.97 19.45 86.15 21.34 86.32 23.47 86.5 22.73 86.68 22.1 86.85 24.27 87.03 24.34 87.21 23.84 87.39 24.98 87.56 23.09 87.74 22 87.92 22.21 88.09 24.6 88.27 26.08 88.45 25.56 88.62 26.28 88.8 26.09 88.98 28.56 89.15 28.91 89.33 29.33 89.51 30.46 89.69 33.68 89.86 31.33 90.04 31.27 90.22 35.41 90.39 34.17 90.57 36.27 90.75 37.28 90.92 39.04 91.1 40.83 91.28 42.62 91.45 42.22 91.63 42.73 91.81 44.77 91.99 43.29 92.16 42.66 92.34 42.07 92.52 40.21 92.69 42.64 92.87 46.76 93.05 48.13 93.22 45.22 93.4 48.09 93.58 43.38 93.76 48.43 93.93 53.28 94.11 54.16 94.29 54.57 94.46 56.02 94.64 57.13 94.82 55.23 94.99 53.58 95.17 49.11 95.35 51.93 95.52 53.6 95.7 52.77 95.88 54.55 96.06 55.93 96.23 55.04 96.41 57.2 96.59 57.33 96.76 57.77 96.94 55.66 97.12 55.11 97.29 56.51 97.47 56.89 97.65 56.38 97.82 56.37 98 58.95 98.18 61.58 98.36 62.86 98.53 63.55 98.71 66.09 98.89 68.63 99.06 64.88 99.24 69.54 99.42 64.9 99.59 63.58 99.77 59.27 99.95 60.43 100.12 62.08 100.3 64.14 100.48 66.11 100.66 68.09 100.83 66.01 101.01 64.22 101.19 63.58 101.36 66.21 101.54 62.84 101.72 67.6 101.89 67.63 102.07 70.21 102.25 74.8 102.42 73.71 102.6 76.46 102.78 78.18 102.96 78.79 103.13 77.61 103.31 78.53 103.49 77.9 103.66 76.62 103.84 78.43 104.02 75.35 104.19 76.86 104.37 78.46 104.55 78.47 104.73 81.15 104.9 78.33 105.08 80.63 105.26 79.13 105.43 80.61 105.61 82.87 105.79 75.08 105.96 73.6 106.14 69.58 106.32 67.92 106.49 65.47 106.67 63.57 106.85 65.42 107.03 66.61 107.2 63.4 107.38 62.26 107.56 61.08 107.73 64.1 107.91 63.59 108.09 62.91 108.26 60.22 108.44 62.43 108.62 63.87 108.79 64.75 108.97 67.29 109.15 66.42 109.33 64.71 109.5 63.91 109.68 61.83 109.86 61.97 110.03 58.58 110.21 56.41 110.39 58.34 110.56 61.03 110.74 65.6 110.92 64.74 111.09 67.05 111.27 68.17 111.45 67.74 111.63 67.36 111.8 64.85 111.98 69.18 112.16 65.84 112.33 68.94 112.51 66.6 112.69 66.51 112.86 62.94 113.04 60.51 113.22 63.74 113.39 66.94 113.57 68.54 113.75 67.95 113.93 69.73 114.1 69.56 114.28 71.1 114.46 70.51 114.63 67.1 114.81 65.67 114.99 64.64 115.16 61.91 115.34 62.72 115.52 62.05 115.69 60.46 115.87 63.14 116.05 63.72 116.23 66.55 116.4 66.23 116.58 64.38 116.76 66.1 116.93 67.79 117.11 69.6 117.29 68.95 117.46 69.23 117.64 68.24 117.82 66.9 118 67.08 118.17 71.19 118.35 71.34 118.53 72.55 118.7 71.68 118.88 72.6 119.06 68.35 119.23 71.01 119.41 72.01 119.59 74.71 119.76 74.67 119.94 76.34 120.12 78.73 120.3 78.14 120.47 79.57 120.65 81.72 120.83 79.57 121 80.25 121.18 80.24 121.36 84.13 121.53 84.16 121.71 84.64 121.89 83.45 122.06 81.49 122.24 83.61 122.42 83.78 122.6 82.52 122.77 81.38 122.95 79.63 123.13 79.25 123.3 79.58 123.48 75.93 123.66 76.04 123.83 72.4 124.01 75.33 124.19 72.83 124.36 71.73 124.54 70.91 124.72 68.23 124.9 68.6 125.07 75.16 125.25 77.13 125.43 76.94 125.6 82.57 125.78 81.84 125.96 81.62 126.13 81.65 126.31 84.66 126.49 81.15 126.66 77.31 126.84 77.3 127.02 84.04 127.2 84.99 127.37 84.15 127.55 84.58 127.73 87.08 127.9 87.17 128.08 87.25 128.26 86.14 128.43 85.78 128.61 85.27 128.79 81.17 128.97 80.31 129.14 78.41 129.32 79.28 129.5 79.36 129.67 79.7 129.85 79.92 130.03 79.54 130.2 79.97 130.38 78.11 130.56 78.61 130.73 75.84 130.91 73.18 131.09 71.18 131.27 70.42 131.44 70.93 131.62 69.86 131.8 69.07 131.97 71.11 132.15 74.08 132.33 75.1 132.5 73.73 132.68 71.94 132.86 69.67 133.03 69.72 133.21 67.89 133.39 69.9 133.57 71.32 133.74 70.77 133.92 69.37 134.1 72.64 134.27 72.16 134.45 72.89 134.63 72.24 134.8 72.49 134.98 73.27 135.16 72.42 135.33 72.73 135.51 67.15 135.69 69.22 135.87 70.2 136.04 70.58 136.22 69.47 136.4 67.31 136.57 67.62 136.75 67.28 136.93 70.29 137.1 72.85 137.28 74.82 137.46 77.19 137.63 76.34 137.81 74.11 137.99 71.31 138.17 69.74 138.34 71.29 138.52 72.87 138.7 75.44 138.87 71.83 139.05 70.42 139.23 72.12 139.4 69.49 139.58 69.75 139.76 70.08 139.93 68.82 140.11 70.09 140.29 68.69 140.47 70.6 140.64 69.44 140.82 69.29 141 71.87 141.17 70.31 141.35 72.94 141.53 73.14 141.7 70.69 141.88 67.77 142.06 67.11 142.24 65.82 142.41 64.95 142.59 63.62 142.77 64.06 142.94 60.75 143.12 59.79 143.3 58.31 143.47 54.35 143.65 49.58 143.83 50.83 144 54.17 144.18 52.17 144.36 51.67 144.54 49.14 144.71 46.36 144.89 42.09 145.07 42.56 145.24 41.33 145.42 39.86 145.6 39.28 145.77 43.11 145.95 42.54 146.13 40.63 146.3 42.83 146.48 43.3 146.66 44.35 146.84 44.55 147.01 47.85 147.19 47.91 147.37 48.02 147.54 49.31 147.72 48.15 147.9 50.91 148.07 47.46 148.25 45.48 148.43 46.32 148.6 45.59 148.78 45.55 148.96 43.59 149.14 45.32 149.31 43.46 149.49 46.21 149.67 47.56 149.84 49.18 150.02 48.44 150.2 47.89 150.37 48 150.55 45.06 150.73 44.78 150.9 45.87 151.08 42.77 151.26 44.39 151.44 48.08 151.61 44.7 151.79 43.91 151.97 44.42 152.14 42.26 152.32 41.47 152.5 39.14 152.67 37.48 152.85 37.33 153.03 34.23 153.2 32.35 153.38 36.23 153.56 34.98 153.74 31.66 153.91 33.86 154.09 35.39 154.27 34.99 154.44 36.79 154.62 36.12 154.8 37.62 154.97 37.26 155.15 37.15 155.33 30.38 155.51 26.67 155.68 26.82 155.86 26.35 156.04 27.29 156.21 26.11 156.39 24.98 156.57 26.87 156.74 28.8 156.92 29.93 157.1 29.68 157.27 27.97 157.45 26.13 157.63 24.69 157.81 28.98 157.98 26.95 158.16 29.04 158.34 27.52 158.51 32.76 158.69 33.68 158.87 33.55 159.04 36.97 159.22 38.63 159.4 37.71 159.57 39.12 159.75 38.68 159.93 36.98 160.11 43.78 160.28 43.8 160.46 45.6 160.64 47.3 160.81 47.52 160.99 45.22 161.17 44.93 161.34 46.93 161.52 50.24 161.7 51.54 161.87 54.09 162.05 55.68 162.23 55.27 162.41 54.52 162.58 51.36 162.76 49.43 162.94 50.3 163.11 53.14 163.29 48.65 163.47 46.32 163.64 44.44 163.82 43.05 164 37.55 164.17 36.26 164.35 35.82 164.53 34.24 164.71 35.28 164.88 33.6 165.06 35.24 165.24 35.21 165.41 33.95 165.59 36.9 165.77 37.67 165.94 37.27 166.12 37.44 166.3 36.47 166.48 34.8 166.65 34.81 166.83 35.81 167.01 36.81 167.18 38.64 167.36 39.83 167.54 37.19 167.71 37.91 167.89 34.43 168.07 29.3 168.24 29.75 168.42 31.71 168.6 29.66 168.78 32.42 168.95 31.72 169.13 36.21 169.31 40.14 169.48 39.61 169.66 41.73 169.84 42.43 170.01 42.44 170.19 43.61 170.37 42.51 170.54 43.47 170.72 39.5 170.9 40.14 171.08 38.96 171.25 41.22 171.43 41.34 171.61 40.92 171.78 40.34 171.96 39.83 172.14 42.1 172.31 45.73 172.49 46.61 172.67 45.17 172.84 48.71 173.02 47.86 173.2 48.09 173.38 49.58 173.55 51.06 173.73 49.75 173.91 48.19 174.08 46.72 174.26 45.62 174.44 47.53 174.61 44.07 174.79 44.08 174.97 45.9 175.14 46.39 175.32 47.56 175.5 46.85 175.68 49.13 175.85 52.87 176.03 50.85 176.21 51.09 176.38 51.83 176.56 53.6 176.74 54.12 176.91 53.33 177.09 54.78 177.27 54.57 177.44 56.17 177.62 54.6 177.8 53.25 177.98 47.24 178.15 46 178.33 47.65 178.51 48.78 178.68 48.2 178.86 46.94 179.04 48.75 179.21 49.05 179.39 47.12 179.57 43.32 179.75 41.98 179.92 40.68 180.1 41.55 180.28 39.04 180.45 35.25 180.63 36.93 180.81 36.11 180.98 38.34 181.16 37.53 181.34 39.25 181.51 38.95 181.69 40.93 181.87 39.13 182.05 40.72 182.22 40.16 182.4 40.06 182.58 40.84 182.75 41.45 182.93 40.3 183.11 40.98 183.28 37.53 183.46 40.32 183.64 38.48 183.81 35.96 183.99 34.14 184.17 38.01 184.35 40.69 184.52 42.6 184.7 40.57 184.88 37.74 185.05 37.07 185.23 43.65 185.41 48.45 185.58 48.4 185.76 45.8 185.94 46.51 186.11 48.18 186.29 47.75 186.47 45.92 186.65 42.39 186.82 41.21 187 42.2 187.18 42.01 187.35 44.16 187.53 45.98 187.71 45.33 187.88 46.64 188.06 42.55 188.24 46.31 188.41 45.57 188.59 45.8 188.77 47 188.95 44.68 189.12 43.11 189.3 40.48 189.48 38.17 189.65 38.48 189.83 43.42 190.01 42.82 190.18 44.51 190.36 44.12 190.54 45.45 190.72 48.58 190.89 49.54 191.07 49.08 191.25 47.8 191.42 45.97 191.6 47.05 191.78 48.77 191.95 46.34 192.13 47.81 192.31 44.95 192.48 49.17 192.66 47.87 192.84 48.08 193.02 46.82 193.19 45.93 193.37 46.46 193.55 48.39 193.72 50.54 193.9 49.37 194.08 50.33 194.25 52.35 194.43 53.05 194.61 55.04 194.78 55.5 194.96 55.99 195.14 57.7 195.32 58.96 195.49 55.55 195.67 56.08 195.85 58.69 196.02 63.48 196.2 66.22"/>
      </g>
    </g>
  </g>
</g>
  <g class="guide ylabels" font-size="2.82" font-family="'PT Sans Caption','Helvetica Neue','Helvetica',sans-serif" fill="#6C606B" id="img-c29c7e64-10">
    <text x="16.27" y="89.93" text-anchor="end" dy="0.35em">-10</text>
    <text x="16.27" y="69.2" text-anchor="end" dy="0.35em">0</text>
    <text x="16.27" y="48.46" text-anchor="end" dy="0.35em">10</text>
    <text x="16.27" y="27.73" text-anchor="end" dy="0.35em">20</text>
    <text x="16.27" y="7" text-anchor="end" dy="0.35em">30</text>
  </g>
  <g font-size="3.88" font-family="'PT Sans','Helvetica Neue','Helvetica',sans-serif" fill="#564A55" stroke="#000000" stroke-opacity="0.000" id="img-c29c7e64-11">
    <text x="8.81" y="48.46" text-anchor="end" dy="0.35em">y</text>
  </g>
</g>
<defs>
  <clipPath id="img-c29c7e64-3">
  <path d="M17.27,5 L 198.2 5 198.2 91.93 17.27 91.93" />
</clipPath>
</defs>
</svg>
