<?xml version="1.0" encoding="UTF-8"?>
<svg xmlns="http://www.w3.org/2000/svg"
     xmlns:xlink="http://www.w3.org/1999/xlink"
     xmlns:gadfly="http://www.gadflyjl.org/ns"
     version="1.2"
     width="203.2mm" height="101.6mm" viewBox="0 0 203.2 101.6"
     stroke="none"
     fill="#000000"
     stroke-width="0.3"
     font-size="3.88"
>
<g class="plotroot xscalable yscalable" id="img-8432e15a-1">
  <g class="guide xlabels" font-size="2.82" font-family="'PT Sans Caption','Helvetica Neue','Helvetica',sans-serif" fill="#6C606B" id="img-8432e15a-2">
    <text x="19.27" y="92.93" text-anchor="middle" dy="0.6em">0</text>
    <text x="107.73" y="92.93" text-anchor="middle" dy="0.6em">500</text>
    <text x="196.2" y="92.93" text-anchor="middle" dy="0.6em">1000</text>
  </g>
<g clip-path="url(#img-8432e15a-3)">
  <g id="img-8432e15a-4">
    <g pointer-events="visible" opacity="1" fill="#000000" fill-opacity="0.000" stroke="#000000" stroke-opacity="0.000" class="guide background" id="img-8432e15a-5">
      <rect x="17.27" y="5" width="180.93" height="86.93"/>
    </g>
    <g class="guide ygridlines xfixed" stroke-dasharray="0.5,0.5" stroke-width="0.2" stroke="#D0D0E0" id="img-8432e15a-6">
      <path fill="none" d="M17.27,89.93 L 198.2 89.93"/>
      <path fill="none" d="M17.27,73.34 L 198.2 73.34"/>
      <path fill="none" d="M17.27,56.76 L 198.2 56.76"/>
      <path fill="none" d="M17.27,40.17 L 198.2 40.17"/>
      <path fill="none" d="M17.27,23.59 L 198.2 23.59"/>
      <path fill="none" d="M17.27,7 L 198.2 7"/>
    </g>
    <g class="guide xgridlines yfixed" stroke-dasharray="0.5,0.5" stroke-width="0.2" stroke="#D0D0E0" id="img-8432e15a-7">
      <path fill="none" d="M19.27,5 L 19.27 91.93"/>
      <path fill="none" d="M107.73,5 L 107.73 91.93"/>
      <path fill="none" d="M196.2,5 L 196.2 91.93"/>
    </g>
    <g class="plotpanel" id="img-8432e15a-8">
      <g stroke-width="0.3" fill="#000000" fill-opacity="0.000" class="geometry" stroke-dasharray="none" stroke="#00BFFF" id="img-8432e15a-9">
        <path fill="none" d="M19.44,10.67 L 19.62 9.33 19.8 9.34 19.97 10.4 20.15 11.21 20.33 10.35 20.5 9.91 20.68 7.36 20.86 9.42 21.04 9.99 21.21 12.92 21.39 10.46 21.57 10.44 21.74 12.03 21.92 10.17 22.1 11.54 22.27 12.7 22.45 11.93 22.63 10.81 22.8 14.76 22.98 12.42 23.16 12.65 23.34 11.72 23.51 12.87 23.69 14.22 23.87 12.77 24.04 15.11 24.22 15.81 24.4 18.54 24.57 17.17 24.75 16.58 24.93 16.89 25.1 17.34 25.28 16.6 25.46 18.46 25.64 17.1 25.81 17.51 25.99 16.99 26.17 18.68 26.34 19.73 26.52 22.94 26.7 22.91 26.87 22.97 27.05 23.05 27.23 26.13 27.4 26.61 27.58 25.2 27.76 26.71 27.94 25.39 28.11 25.35 28.29 24.07 28.47 25.82 28.64 24.68 28.82 24.36 29 24.17 29.17 23.26 29.35 22.01 29.53 24.23 29.7 22.87 29.88 20.73 30.06 22.49 30.24 24.27 30.41 24.65 30.59 23.01 30.77 20.55 30.94 22.06 31.12 19.97 31.3 24.02 31.47 23.3 31.65 21.75 31.83 22.26 32.01 22.81 32.18 21.66 32.36 22.85 32.54 25.03 32.71 24.73 32.89 24.89 33.07 25.54 33.24 27.28 33.42 27.81 33.6 26.47 33.77 25.88 33.95 28.88 34.13 28.36 34.31 29.95 34.48 28.58 34.66 29.8 34.84 31.26 35.01 28.15 35.19 28.38 35.37 26.59 35.54 26.36 35.72 24.38 35.9 24.82 36.07 24.9 36.25 27.65 36.43 31.01 36.61 28.7 36.78 27.04 36.96 28.66 37.14 31 37.31 30.25 37.49 32.56 37.67 33.19 37.84 30.26 38.02 31.3 38.2 32.15 38.37 28.06 38.55 26.9 38.73 27.96 38.91 29.82 39.08 33.02 39.26 34.32 39.44 35.07 39.61 36.93 39.79 38.46 39.97 39.86 40.14 40.67 40.32 38.9 40.5 36.62 40.67 34.66 40.85 32.15 41.03 31.4 41.21 30.83 41.38 30.37 41.56 33.83 41.74 34.29 41.91 31.06 42.09 31.58 42.27 32.36 42.44 31.84 42.62 35.65 42.8 35.07 42.98 34 43.15 34.42 43.33 37.7 43.51 36.65 43.68 34.04 43.86 34.23 44.04 31.07 44.21 33.79 44.39 33.3 44.57 32.95 44.74 34.11 44.92 33.88 45.1 33.15 45.28 33.04 45.45 34.27 45.63 35.8 45.81 36.35 45.98 39.57 46.16 39.37 46.34 36.56 46.51 36.29 46.69 34.54 46.87 35.22 47.04 37.4 47.22 35.33 47.4 30.89 47.58 31.21 47.75 31.49 47.93 27.34 48.11 27.38 48.28 27.86 48.46 26.86 48.64 25.7 48.81 24.59 48.99 24.61 49.17 25.07 49.34 24.91 49.52 24.93 49.7 26.14 49.88 29.08 50.05 29.55 50.23 30.84 50.41 32.14 50.58 30.98 50.76 30.01 50.94 31.48 51.11 32.91 51.29 33 51.47 31.89 51.64 30.22 51.82 33.25 52 31.96 52.18 32.1 52.35 30.87 52.53 29.97 52.71 31.14 52.88 33.22 53.06 34.37 53.24 36.27 53.41 36 53.59 40.02 53.77 41.77 53.94 39.17 54.12 37 54.3 36.75 54.48 37.28 54.65 38.81 54.83 37.43 55.01 35.52 55.18 37.44 55.36 38.44 55.54 38.3 55.71 37.44 55.89 36.1 56.07 35.61 56.25 34.9 56.42 35.03 56.6 37.99 56.78 36.79 56.95 39.92 57.13 38.14 57.31 37.1 57.48 37.59 57.66 37.97 57.84 38.49 58.01 39.73 58.19 38.19 58.37 40.76 58.55 40.55 58.72 40.06 58.9 42.14 59.08 41.46 59.25 41.44 59.43 43.72 59.61 42.77 59.78 41.91 59.96 42.54 60.14 43.2 60.31 43.21 60.49 42.07 60.67 44.2 60.85 44.13 61.02 46.74 61.2 48.78 61.38 49.22 61.55 47.73 61.73 48.47 61.91 49.65 62.08 50.54 62.26 52.42 62.44 55.29 62.61 56.32 62.79 56.62 62.97 55.33 63.15 55.01 63.32 54.51 63.5 57.15 63.68 57.9 63.85 54.75 64.03 53.76 64.21 55.74 64.38 57.8 64.56 57.17 64.74 57.31 64.91 60.38 65.09 57.94 65.27 59.56 65.45 57.33 65.62 54.96 65.8 55.52 65.98 53.41 66.15 57.13 66.33 58.9 66.51 60.11 66.68 61.53 66.86 60.13 67.04 59.81 67.21 59.98 67.39 61.96 67.57 62.11 67.75 62.06 67.92 62.67 68.1 60.33 68.28 58.61 68.45 61.44 68.63 61.43 68.81 60.61 68.98 57.24 69.16 58.2 69.34 58.84 69.52 60.66 69.69 60.88 69.87 61.1 70.05 61.56 70.22 61.45 70.4 63.28 70.58 62.97 70.75 62.44 70.93 61.38 71.11 60.29 71.28 60.02 71.46 60.81 71.64 62.95 71.82 64.28 71.99 65.66 72.17 64.1 72.35 60.39 72.52 59.84 72.7 60.86 72.88 60.09 73.05 58.75 73.23 58.76 73.41 58.26 73.58 57.07 73.76 57.07 73.94 58.67 74.12 59.12 74.29 59.47 74.47 61.17 74.65 65.36 74.82 65.7 75 64 75.18 63.77 75.35 62.16 75.53 59.89 75.71 63.41 75.88 64.2 76.06 65.49 76.24 64.68 76.42 66.21 76.59 64.94 76.77 63.35 76.95 62.28 77.12 59.73 77.3 60.53 77.48 62.1 77.65 60.95 77.83 64.89 78.01 63.36 78.18 62.24 78.36 61.27 78.54 60.52 78.72 62.34 78.89 60.3 79.07 60.81 79.25 61.04 79.42 62.4 79.6 62.71 79.78 63.13 79.95 64.48 80.13 66.87 80.31 68.83 80.49 69.46 80.66 72.07 80.84 72.07 81.02 71.18 81.19 69.24 81.37 68.75 81.55 68.58 81.72 69.18 81.9 68.66 82.08 70.03 82.25 70.23 82.43 71.31 82.61 71.4 82.79 74.85 82.96 76.92 83.14 77.87 83.32 77.83 83.49 78.69 83.67 75.72 83.85 72.34 84.02 74.21 84.2 71.9 84.38 72.51 84.55 76.09 84.73 75.32 84.91 76.85 85.09 79.48 85.26 78.17 85.44 80.66 85.62 80.94 85.79 82.14 85.97 80.75 86.15 81.35 86.32 85.07 86.5 82.93 86.68 81.24 86.85 81.07 87.03 80.11 87.21 80.42 87.39 80.4 87.56 81.06 87.74 79.77 87.92 83.29 88.09 83.39 88.27 83.44 88.45 83.36 88.62 82.84 88.8 81.25 88.98 81.43 89.15 81.03 89.33 79.59 89.51 81.59 89.69 80.71 89.86 81.02 90.04 79.84 90.22 79.62 90.39 80.24 90.57 80.83 90.75 85.34 90.92 87.78 91.1 88.94 91.28 88.03 91.45 88.28 91.63 88.51 91.81 86.81 91.99 83.88 92.16 80.99 92.34 78.11 92.52 74.29 92.69 73.09 92.87 73.68 93.05 73.43 93.22 76.06 93.4 76.7 93.58 75.77 93.76 76.82 93.93 79.52 94.11 78.54 94.29 76.07 94.46 77.56 94.64 77.9 94.82 75.96 94.99 76.65 95.17 75.71 95.35 74.56 95.52 74.86 95.7 76.21 95.88 76.66 96.06 73.7 96.23 74.22 96.41 72.91 96.59 73.19 96.76 71.22 96.94 72 97.12 71.1 97.29 69.8 97.47 66.77 97.65 64.64 97.82 63.85 98 61.37 98.18 60.75 98.36 61.61 98.53 62.91 98.71 64.43 98.89 65.8 99.06 66.31 99.24 65.06 99.42 64.89 99.59 66.61 99.77 68.84 99.95 71.19 100.12 71.46 100.3 69.9 100.48 68.53 100.66 69.73 100.83 71.77 101.01 71.53 101.19 71.11 101.36 70.2 101.54 69.7 101.72 72.3 101.89 70.1 102.07 68.62 102.25 66.19 102.42 67.23 102.6 65.93 102.78 67.53 102.96 68.46 103.13 71.45 103.31 66.41 103.49 66.39 103.66 64.55 103.84 65.33 104.02 62.5 104.19 62.11 104.37 62.12 104.55 62 104.73 62.65 104.9 61.96 105.08 64.17 105.26 64.71 105.43 67.72 105.61 70.27 105.79 69.91 105.96 69.5 106.14 70.42 106.32 69.98 106.49 73.17 106.67 72.96 106.85 70.83 107.03 67.49 107.2 68.46 107.38 68.47 107.56 69.2 107.73 69.58 107.91 73.13 108.09 73.84 108.26 74.76 108.44 75.94 108.62 78.87 108.79 80.41 108.97 82.43 109.15 80.82 109.33 78.48 109.5 80.03 109.68 79.63 109.86 79.85 110.03 78.93 110.21 78.02 110.39 74.39 110.56 74.1 110.74 77.11 110.92 75.79 111.09 77.62 111.27 78.18 111.45 76.44 111.63 75.05 111.8 76.63 111.98 76.7 112.16 76.05 112.33 74.19 112.51 72.6 112.69 74.42 112.86 74.03 113.04 71.68 113.22 70.71 113.39 71.75 113.57 69.23 113.75 65.74 113.93 66.45 114.1 65.01 114.28 64.56 114.46 65.88 114.63 67.82 114.81 65.98 114.99 63.3 115.16 64.64 115.34 66.45 115.52 64.85 115.69 62.15 115.87 62.35 116.05 61.99 116.23 61.93 116.4 61.5 116.58 63.42 116.76 61.73 116.93 62.43 117.11 63.1 117.29 62.84 117.46 61.29 117.64 64.74 117.82 64.51 118 65.44 118.17 63.38 118.35 61.38 118.53 59.29 118.7 59.67 118.88 58.25 119.06 56.14 119.23 53.42 119.41 51.06 119.59 51.7 119.76 51.29 119.94 50.69 120.12 49.93 120.3 51.58 120.47 49.62 120.65 50.77 120.83 51.28 121 49.22 121.18 47.05 121.36 47.48 121.53 48.2 121.71 47.67 121.89 47.63 122.06 48.03 122.24 48.48 122.42 47.25 122.6 46.16 122.77 49.2 122.95 49.21 123.13 49.44 123.3 48.75 123.48 52.45 123.66 49.67 123.83 51.1 124.01 49.16 124.19 50.48 124.36 51.4 124.54 52.38 124.72 52.98 124.9 50.07 125.07 51.78 125.25 54.51 125.43 54.01 125.6 54.87 125.78 51.25 125.96 48.77 126.13 46.86 126.31 46.89 126.49 46.98 126.66 46.61 126.84 43.71 127.02 42.78 127.2 42.13 127.37 43.18 127.55 42.62 127.73 44.16 127.9 42.7 128.08 42.4 128.26 40.63 128.43 39.52 128.61 40.7 128.79 40.76 128.97 42.08 129.14 43.01 129.32 41.45 129.5 39.18 129.67 39.34 129.85 41.08 130.03 40.96 130.2 37.16 130.38 36.42 130.56 37.26 130.73 35.29 130.91 34.12 131.09 33.12 131.27 32.76 131.44 34.31 131.62 37.12 131.8 36.28 131.97 35.69 132.15 40.91 132.33 42.23 132.5 40.5 132.68 44.55 132.86 44.28 133.03 44.82 133.21 46.34 133.39 45.49 133.57 47.04 133.74 48.55 133.92 49.12 134.1 49.73 134.27 50.49 134.45 51.91 134.63 52.64 134.8 52.93 134.98 49.48 135.16 50.65 135.33 49.39 135.51 50.26 135.69 48.61 135.87 49.62 136.04 49.28 136.22 48.03 136.4 46.87 136.57 46.13 136.75 41.79 136.93 40.37 137.1 40.01 137.28 40.45 137.46 40.83 137.63 39.45 137.81 38.89 137.99 36.63 138.17 37.39 138.34 37.37 138.52 36.37 138.7 35.31 138.87 36.45 139.05 33.69 139.23 30.98 139.4 33.45 139.58 34.43 139.76 32.27 139.93 35.38 140.11 35.65 140.29 40.16 140.47 43.35 140.64 40.61 140.82 40.27 141 41.17 141.17 39.43 141.35 41.22 141.53 38.39 141.7 40.96 141.88 42.06 142.06 42.49 142.24 41.29 142.41 42.53 142.59 39.45 142.77 39.4 142.94 38.14 143.12 41.38 143.3 39.4 143.47 42.88 143.65 41.83 143.83 40.67 144 45.94 144.18 47.84 144.36 50.18 144.54 49.42 144.71 49.15 144.89 51.52 145.07 51.53 145.24 52.48 145.42 52.31 145.6 50.4 145.77 52 145.95 49.51 146.13 50.04 146.3 49.51 146.48 50.98 146.66 53.42 146.84 53.97 147.01 52.94 147.19 52.76 147.37 53.44 147.54 54.36 147.72 53.65 147.9 54.58 148.07 52.86 148.25 56.87 148.43 59.84 148.6 60.8 148.78 60.52 148.96 60.82 149.14 61.98 149.31 61.35 149.49 61.19 149.67 58.93 149.84 56.95 150.02 53.43 150.2 53.25 150.37 52.41 150.55 51.88 150.73 53.65 150.9 55.04 151.08 54.39 151.26 50.82 151.44 53.92 151.61 57.52 151.79 57.33 151.97 56.61 152.14 58.74 152.32 59.66 152.5 58.76 152.67 61.42 152.85 60.56 153.03 59.94 153.2 60.85 153.38 62.21 153.56 63.37 153.74 63.55 153.91 61.27 154.09 61.85 154.27 64 154.44 64.5 154.62 64.32 154.8 62.77 154.97 64.11 155.15 66.87 155.33 67.47 155.51 66.61 155.68 69.81 155.86 69.46 156.04 71.8 156.21 72.34 156.39 71.94 156.57 69.04 156.74 68.78 156.92 68.31 157.1 69.37 157.27 71.32 157.45 68.44 157.63 67.09 157.81 65.95 157.98 66.94 158.16 67.1 158.34 68.76 158.51 68.38 158.69 69.36 158.87 69.76 159.04 67.72 159.22 72.63 159.4 74.76 159.57 74.32 159.75 72.87 159.93 73.89 160.11 75.15 160.28 72.32 160.46 73.32 160.64 71.86 160.81 70.44 160.99 66.08 161.17 63.81 161.34 62.44 161.52 61.36 161.7 61.61 161.87 60.02 162.05 59.35 162.23 60.63 162.41 58.63 162.58 55.45 162.76 58.34 162.94 56.34 163.11 56.81 163.29 60.47 163.47 58.94 163.64 55.54 163.82 54.94 164 52.97 164.17 53.13 164.35 55.56 164.53 56.3 164.71 56.82 164.88 57.17 165.06 54.06 165.24 53.35 165.41 52.27 165.59 53.3 165.77 54.49 165.94 56.07 166.12 55.29 166.3 54.77 166.48 55.03 166.65 55.51 166.83 58.31 167.01 60.11 167.18 58.42 167.36 58.49 167.54 57.17 167.71 57.68 167.89 57.36 168.07 59.72 168.24 58.54 168.42 56.43 168.6 58.5 168.78 60.37 168.95 58.52 169.13 60.53 169.31 61.19 169.48 58.67 169.66 56.88 169.84 55.86 170.01 57.74 170.19 60.54 170.37 62.28 170.54 61.54 170.72 62.11 170.9 63.72 171.08 64.63 171.25 65.21 171.43 62.53 171.61 61.54 171.78 60.9 171.96 61.19 172.14 63.09 172.31 63.83 172.49 61.93 172.67 62.52 172.84 63.3 173.02 63.6 173.2 62.34 173.38 60.55 173.55 58.76 173.73 58.64 173.91 57.39 174.08 56.08 174.26 56.04 174.44 55.48 174.61 54.28 174.79 56.76 174.97 56.06 175.14 56.38 175.32 53.5 175.5 56.9 175.68 58.22 175.85 58.73 176.03 60.3 176.21 60.12 176.38 59.28 176.56 60.83 176.74 59.01 176.91 57.45 177.09 57.83 177.27 58.29 177.44 58.03 177.62 57.67 177.8 54.77 177.98 55.38 178.15 55.31 178.33 52.83 178.51 50.27 178.68 49.27 178.86 46.51 179.04 46.05 179.21 45.41 179.39 43.99 179.57 43.8 179.75 44.66 179.92 43.49 180.1 43.72 180.28 43 180.45 42.36 180.63 41.13 180.81 40.97 180.98 41.58 181.16 40.16 181.34 41.74 181.51 40.47 181.69 42.03 181.87 40.66 182.05 42.02 182.22 43.68 182.4 41.84 182.58 40.5 182.75 41.42 182.93 40.08 183.11 38.8 183.28 36.51 183.46 36.49 183.64 37.97 183.81 36.6 183.99 33.68 184.17 33.68 184.35 33.66 184.52 31.78 184.7 32.58 184.88 31.71 185.05 32.35 185.23 34.02 185.41 35.81 185.58 36.51 185.76 37.23 185.94 38.35 186.11 40.33 186.29 39.48 186.47 39.06 186.65 36.9 186.82 36.34 187 36.86 187.18 36.11 187.35 37.33 187.53 35.29 187.71 35.79 187.88 37.53 188.06 39.33 188.24 38.05 188.41 37 188.59 36.14 188.77 35.56 188.95 38.13 189.12 35.58 189.3 33.97 189.48 33.78 189.65 33.81 189.83 29.1 190.01 30.71 190.18 30.28 190.36 30.63 190.54 31.52 190.72 34 190.89 34.47 191.07 36.06 191.25 34.91 191.42 36.61 191.6 34.72 191.78 36.92 191.95 34.58 192.13 37.11 192.31 38.9 192.48 40.23 192.66 40.91 192.84 42.45 193.02 43.81 193.19 44.77 193.37 47.08 193.55 44.91 193.72 43.91 193.9 39.96 194.08 40.88 194.25 42.29 194.43 42.25 194.61 40.17 194.78 41.48 194.96 41.95 195.14 41.07 195.32 44.85 195.49 45.38 195.67 46.21 195.85 47.22 196.02 45.26 196.2 46.65"/>
      </g>
    </g>
  </g>
</g>
  <g class="guide ylabels" font-size="2.82" font-family="'PT Sans Caption','Helvetica Neue','Helvetica',sans-serif" fill="#6C606B" id="img-8432e15a-10">
    <text x="16.27" y="89.93" text-anchor="end" dy="0.35em">-50</text>
    <text x="16.27" y="73.34" text-anchor="end" dy="0.35em">-40</text>
    <text x="16.27" y="56.76" text-anchor="end" dy="0.35em">-30</text>
    <text x="16.27" y="40.17" text-anchor="end" dy="0.35em">-20</text>
    <text x="16.27" y="23.59" text-anchor="end" dy="0.35em">-10</text>
    <text x="16.27" y="7" text-anchor="end" dy="0.35em">0</text>
  </g>
  <g font-size="3.88" font-family="'PT Sans','Helvetica Neue','Helvetica',sans-serif" fill="#564A55" stroke="#000000" stroke-opacity="0.000" id="img-8432e15a-11">
    <text x="8.81" y="48.46" text-anchor="end" dy="0.35em">y</text>
  </g>
</g>
<defs>
  <clipPath id="img-8432e15a-3">
  <path d="M17.27,5 L 198.2 5 198.2 91.93 17.27 91.93" />
</clipPath>
</defs>
</svg>
