<?xml version="1.0" encoding="UTF-8"?>
<svg xmlns="http://www.w3.org/2000/svg"
     xmlns:xlink="http://www.w3.org/1999/xlink"
     xmlns:gadfly="http://www.gadflyjl.org/ns"
     version="1.2"
     width="203.2mm" height="101.6mm" viewBox="0 0 203.2 101.6"
     stroke="none"
     fill="#000000"
     stroke-width="0.3"
     font-size="3.88"
>
<g class="plotroot xscalable yscalable" id="img-bbe72387-1">
  <g class="guide xlabels" font-size="2.82" font-family="'PT Sans Caption','Helvetica Neue','Helvetica',sans-serif" fill="#6C606B" id="img-bbe72387-2">
    <text x="19.27" y="92.93" text-anchor="middle" dy="0.6em">0</text>
    <text x="107.73" y="92.93" text-anchor="middle" dy="0.6em">500</text>
    <text x="196.2" y="92.93" text-anchor="middle" dy="0.6em">1000</text>
  </g>
<g clip-path="url(#img-bbe72387-3)">
  <g id="img-bbe72387-4">
    <g pointer-events="visible" opacity="1" fill="#000000" fill-opacity="0.000" stroke="#000000" stroke-opacity="0.000" class="guide background" id="img-bbe72387-5">
      <rect x="17.27" y="5" width="180.93" height="86.93"/>
    </g>
    <g class="guide ygridlines xfixed" stroke-dasharray="0.5,0.5" stroke-width="0.2" stroke="#D0D0E0" id="img-bbe72387-6">
      <path fill="none" d="M17.27,89.93 L 198.2 89.93"/>
      <path fill="none" d="M17.27,69.2 L 198.2 69.2"/>
      <path fill="none" d="M17.27,48.46 L 198.2 48.46"/>
      <path fill="none" d="M17.27,27.73 L 198.2 27.73"/>
      <path fill="none" d="M17.27,7 L 198.2 7"/>
    </g>
    <g class="guide xgridlines yfixed" stroke-dasharray="0.5,0.5" stroke-width="0.2" stroke="#D0D0E0" id="img-bbe72387-7">
      <path fill="none" d="M19.27,5 L 19.27 91.93"/>
      <path fill="none" d="M107.73,5 L 107.73 91.93"/>
      <path fill="none" d="M196.2,5 L 196.2 91.93"/>
    </g>
    <g class="plotpanel" id="img-bbe72387-8">
      <g stroke-width="0.3" fill="#000000" fill-opacity="0.000" class="geometry" stroke-dasharray="none" stroke="#00BFFF" id="img-bbe72387-9">
        <path fill="none" d="M19.44,70.97 L 19.62 70.66 19.8 70.64 19.97 69.88 20.15 69.28 20.33 69.7 20.5 68.59 20.68 68.74 20.86 68.41 21.04 68.7 21.21 68.98 21.39 68.69 21.57 68.76 21.74 69.34 21.92 68.19 22.1 69.35 22.27 68.66 22.45 70.71 22.63 72.49 22.8 70.04 22.98 69.77 23.16 70.35 23.34 69.99 23.51 69.52 23.69 70.07 23.87 67.84 24.04 68.22 24.22 67.7 24.4 68.66 24.57 68.68 24.75 69.17 24.93 68.47 25.1 69.96 25.28 68.3 25.46 68.64 25.64 67.6 25.81 67.38 25.99 66.35 26.17 66.88 26.34 66.09 26.52 65.57 26.7 65.49 26.87 67.23 27.05 68.49 27.23 65.97 27.4 66.79 27.58 67.33 27.76 66.8 27.94 66.85 28.11 66.45 28.29 64.42 28.47 64.57 28.64 65.69 28.82 66.45 29 65.88 29.17 66.06 29.35 64.97 29.53 63.44 29.7 63.23 29.88 65.78 30.06 64.67 30.24 63.98 30.41 63.47 30.59 62.71 30.77 61.77 30.94 61.82 31.12 60.63 31.3 60.46 31.47 60.67 31.65 60.89 31.83 61.02 32.01 60.13 32.18 59.89 32.36 60.54 32.54 60.88 32.71 61.77 32.89 61.54 33.07 62.02 33.24 62.25 33.42 61.56 33.6 60.97 33.77 61.87 33.95 59.9 34.13 60.63 34.31 60.21 34.48 60.38 34.66 59.81 34.84 58.68 35.01 57.47 35.19 56.88 35.37 56.16 35.54 54.75 35.72 53.6 35.9 54.77 36.07 53.48 36.25 52.9 36.43 53 36.61 52.62 36.78 52.68 36.96 52.31 37.14 51.73 37.31 52.2 37.49 53.16 37.67 53.51 37.84 53.05 38.02 53.42 38.2 52.73 38.37 51.54 38.55 52.19 38.73 52.06 38.91 51.68 39.08 52.2 39.26 52.14 39.44 53.4 39.61 54.15 39.79 55.39 39.97 56.6 40.14 55.97 40.32 54.77 40.5 55.21 40.67 54 40.85 54.84 41.03 56.5 41.21 56.19 41.38 56.69 41.56 55.04 41.74 56.44 41.91 56.6 42.09 56.94 42.27 57.67 42.44 56.02 42.62 56.27 42.8 54.64 42.98 53.32 43.15 52.46 43.33 52.71 43.51 51.24 43.68 52.35 43.86 50.66 44.04 51.06 44.21 51.38 44.39 49.86 44.57 51.89 44.74 53.49 44.92 52.7 45.1 53.57 45.28 54.56 45.45 52.35 45.63 52.6 45.81 51.86 45.98 51.52 46.16 51.46 46.34 51.81 46.51 52.75 46.69 51.45 46.87 51.95 47.04 51.39 47.22 52.83 47.4 53.45 47.58 53.01 47.75 55.22 47.93 55.87 48.11 54.17 48.28 55.75 48.46 56.86 48.64 57.71 48.81 55.57 48.99 54.57 49.17 53.44 49.34 51.66 49.52 51.6 49.7 51.54 49.88 52.17 50.05 51.66 50.23 50.44 50.41 49.57 50.58 48.73 50.76 48.84 50.94 48.4 51.11 47.66 51.29 48.4 51.47 49.65 51.64 49.33 51.82 49.84 52 51.41 52.18 52.84 52.35 53.01 52.53 53.16 52.71 52.75 52.88 53.1 53.06 52.39 53.24 52.88 53.41 52.37 53.59 53.25 53.77 53.3 53.94 53.17 54.12 53.49 54.3 54.92 54.48 53.55 54.65 53.83 54.83 52.26 55.01 53.2 55.18 53.39 55.36 53.7 55.54 54.2 55.71 54.77 55.89 55.16 56.07 55.52 56.25 55.85 56.42 56.09 56.6 54.56 56.78 53.12 56.95 53.03 57.13 53.28 57.31 51.54 57.48 52.2 57.66 52.03 57.84 52.48 58.01 53.37 58.19 52.79 58.37 53.27 58.55 52.85 58.72 51.8 58.9 51.32 59.08 49.93 59.25 47.96 59.43 49.18 59.61 47.41 59.78 45.65 59.96 44.98 60.14 44.71 60.31 45.17 60.49 45.93 60.67 45.66 60.85 44.97 61.02 45.41 61.2 46.64 61.38 47.06 61.55 47.52 61.73 47.09 61.91 48 62.08 48.37 62.26 48.13 62.44 47.18 62.61 50.19 62.79 48.57 62.97 48.66 63.15 50.02 63.32 49.17 63.5 49.63 63.68 50.57 63.85 52.06 64.03 52.02 64.21 51.24 64.38 52.18 64.56 51.57 64.74 51.53 64.91 51.02 65.09 53.43 65.27 53.4 65.45 53.37 65.62 52.11 65.8 51.89 65.98 53.51 66.15 54.05 66.33 55.47 66.51 55.23 66.68 53.83 66.86 55.25 67.04 54.26 67.21 54.68 67.39 54.74 67.57 53.19 67.75 53.73 67.92 53.74 68.1 55.12 68.28 56.01 68.45 56.75 68.63 55.88 68.81 57.7 68.98 58.08 69.16 56.86 69.34 57.79 69.52 57.77 69.69 55.47 69.87 55.36 70.05 53.95 70.22 52.69 70.4 50.86 70.58 51.58 70.75 51.31 70.93 51.61 71.11 50.23 71.28 50.38 71.46 48.85 71.64 48.76 71.82 47.46 71.99 47.29 72.17 47.12 72.35 46.27 72.52 44.3 72.7 45.75 72.88 45.1 73.05 43.14 73.23 44.25 73.41 44.49 73.58 43.68 73.76 44.49 73.94 44.2 74.12 42.25 74.29 41.38 74.47 41.05 74.65 40.67 74.82 39.58 75 37.62 75.18 37.22 75.35 37.65 75.53 37.02 75.71 37.94 75.88 37.51 76.06 37 76.24 37.96 76.42 36.69 76.59 35.53 76.77 35.92 76.95 36.56 77.12 37.73 77.3 38.07 77.48 40.71 77.65 40.41 77.83 41.46 78.01 41.66 78.18 40.48 78.36 39.11 78.54 39.94 78.72 39.85 78.89 38.38 79.07 37.65 79.25 38.58 79.42 38.43 79.6 37.61 79.78 36.86 79.95 38.62 80.13 39.77 80.31 39.67 80.49 40.48 80.66 40.48 80.84 39.05 81.02 39.03 81.19 39.62 81.37 38.44 81.55 37.05 81.72 37.3 81.9 37.02 82.08 36.87 82.25 38.13 82.43 37.81 82.61 37.31 82.79 37.22 82.96 38.2 83.14 40.27 83.32 40.11 83.49 40.82 83.67 41.98 83.85 39.74 84.02 41.89 84.2 44.61 84.38 45.03 84.55 44.34 84.73 45.21 84.91 45.7 85.09 46.56 85.26 45.58 85.44 45.39 85.62 44.67 85.79 42.8 85.97 41.16 86.15 41.84 86.32 41.57 86.5 41.46 86.68 43.09 86.85 42.89 87.03 42.61 87.21 41.71 87.39 41.29 87.56 40.59 87.74 40.22 87.92 41.48 88.09 43.45 88.27 41.01 88.45 40.79 88.62 42.65 88.8 43.21 88.98 42.04 89.15 41.61 89.33 42.88 89.51 43.55 89.69 42.58 89.86 41.11 90.04 42.43 90.22 41.39 90.39 41.37 90.57 40.54 90.75 38.85 90.92 38.71 91.1 38.36 91.28 38.3 91.45 40.01 91.63 40.79 91.81 39.97 91.99 41.82 92.16 42.61 92.34 45.42 92.52 45.91 92.69 45.95 92.87 46.34 93.05 47.83 93.22 46.16 93.4 46.17 93.58 46.7 93.76 46.76 93.93 45.48 94.11 45.31 94.29 45.87 94.46 46.29 94.64 49.58 94.82 49.01 94.99 46.9 95.17 45.9 95.35 44.8 95.52 43.78 95.7 43.46 95.88 45.19 96.06 44.56 96.23 44.86 96.41 44.36 96.59 42.76 96.76 42.3 96.94 42.5 97.12 42.5 97.29 42.81 97.47 40.61 97.65 40.01 97.82 40.79 98 40.56 98.18 39.85 98.36 39.11 98.53 41.42 98.71 42.19 98.89 43.75 99.06 45.19 99.24 45.39 99.42 47.66 99.59 45.88 99.77 46.39 99.95 46.11 100.12 44.2 100.3 43.58 100.48 43.56 100.66 43.09 100.83 41.47 101.01 41.44 101.19 40.63 101.36 40.57 101.54 38.89 101.72 41.61 101.89 40.54 102.07 40.74 102.25 40.86 102.42 41.23 102.6 41.42 102.78 42.32 102.96 42.44 103.13 41.71 103.31 43.05 103.49 42 103.66 42.37 103.84 43.72 104.02 42.91 104.19 42.88 104.37 43.91 104.55 44.83 104.73 43.92 104.9 42.95 105.08 42.42 105.26 42.27 105.43 41.95 105.61 40.75 105.79 41.31 105.96 41.35 106.14 39.54 106.32 38.65 106.49 41.1 106.67 41.18 106.85 41.34 107.03 40.4 107.2 40.82 107.38 40.95 107.56 40.69 107.73 39.32 107.91 38.48 108.09 37.89 108.26 39.02 108.44 36.31 108.62 35.62 108.79 33.75 108.97 32.92 109.15 32.88 109.33 33.03 109.5 31.64 109.68 32.02 109.86 31.91 110.03 33.19 110.21 33.73 110.39 34.16 110.56 34.23 110.74 34.04 110.92 33.34 111.09 34.15 111.27 36.07 111.45 37.53 111.63 38.5 111.8 38.18 111.98 38.45 112.16 39.65 112.33 42.27 112.51 43.55 112.69 42.79 112.86 41.93 113.04 40.3 113.22 40.22 113.39 41.78 113.57 42.33 113.75 43.27 113.93 43.56 114.1 44.25 114.28 43.17 114.46 41.88 114.63 40.56 114.81 40.76 114.99 41.22 115.16 41.12 115.34 45.06 115.52 45.83 115.69 45.44 115.87 46.56 116.05 45.33 116.23 45.54 116.4 44.9 116.58 45.59 116.76 47.14 116.93 47.44 117.11 47.56 117.29 47.76 117.46 47.58 117.64 50.16 117.82 49.63 118 50.8 118.17 50.62 118.35 50.97 118.53 50.98 118.7 50.52 118.88 50.04 119.06 51.79 119.23 51.17 119.41 51.72 119.59 52.01 119.76 52.16 119.94 52.36 120.12 52.34 120.3 52.22 120.47 52.59 120.65 53.56 120.83 53.7 121 54.51 121.18 53.8 121.36 52.02 121.53 52.78 121.71 51.37 121.89 52.03 122.06 51.64 122.24 53.27 122.42 52.53 122.6 52.38 122.77 51.83 122.95 52.77 123.13 53.09 123.3 51.77 123.48 52.71 123.66 52.94 123.83 54.36 124.01 54.61 124.19 54.21 124.36 53.18 124.54 54.27 124.72 53.1 124.9 51.83 125.07 52.09 125.25 52.04 125.43 51.46 125.6 51.76 125.78 52.37 125.96 51.94 126.13 50.9 126.31 49.44 126.49 50 126.66 47.97 126.84 49 127.02 50.68 127.2 49.72 127.37 50.95 127.55 49.84 127.73 47.53 127.9 47.55 128.08 46.85 128.26 47.06 128.43 48.87 128.61 48.77 128.79 49.64 128.97 47.71 129.14 47.57 129.32 48.34 129.5 46.58 129.67 45.69 129.85 46.25 130.03 45.32 130.2 47 130.38 48.88 130.56 47.76 130.73 47.76 130.91 46.73 131.09 46.55 131.27 46.51 131.44 45.33 131.62 45.46 131.8 43.34 131.97 42.35 132.15 43.44 132.33 41.53 132.5 43.72 132.68 43.66 132.86 43.99 133.03 43.53 133.21 43.54 133.39 43.03 133.57 42.09 133.74 42.89 133.92 42.74 134.1 43.33 134.27 45.37 134.45 44.33 134.63 43.41 134.8 42.91 134.98 42.91 135.16 43.43 135.33 44.26 135.51 44.63 135.69 45.23 135.87 44.96 136.04 44.86 136.22 44.47 136.4 46.02 136.57 45.1 136.75 45.35 136.93 45.38 137.1 45.07 137.28 44.98 137.46 45.37 137.63 43.79 137.81 43.42 137.99 44.79 138.17 44.93 138.34 45.42 138.52 44.75 138.7 44.8 138.87 45.55 139.05 43.95 139.23 44.5 139.4 43.57 139.58 42.27 139.76 42.86 139.93 41.5 140.11 41.41 140.29 40.1 140.47 39.5 140.64 38.53 140.82 38.89 141 39.46 141.17 38.71 141.35 38.18 141.53 36.12 141.7 34.42 141.88 34.23 142.06 33.65 142.24 33.44 142.41 34.01 142.59 33.7 142.77 33.75 142.94 32.4 143.12 30.05 143.3 29.79 143.47 30.07 143.65 29.53 143.83 31.3 144 31.3 144.18 32.76 144.36 32.88 144.54 30.81 144.71 30.92 144.89 29.91 145.07 30.57 145.24 30.55 145.42 31.34 145.6 32.37 145.77 32.41 145.95 33.59 146.13 34.68 146.3 35.13 146.48 32.95 146.66 33.07 146.84 32.65 147.01 32.45 147.19 34.37 147.37 34.03 147.54 34.57 147.72 34.16 147.9 34.65 148.07 36.04 148.25 38.33 148.43 37.68 148.6 37.69 148.78 37.79 148.96 38.27 149.14 38.55 149.31 37.93 149.49 37.05 149.67 36.21 149.84 36.59 150.02 37.87 150.2 37.55 150.37 37.23 150.55 36.29 150.73 36.3 150.9 34.08 151.08 35.67 151.26 36.13 151.44 36.69 151.61 34.7 151.79 34.82 151.97 35.39 152.14 33.85 152.32 33.26 152.5 34.06 152.67 33.95 152.85 33.42 153.03 31.99 153.2 32.71 153.38 31.78 153.56 30.11 153.74 29.48 153.91 29.71 154.09 28.82 154.27 30.72 154.44 30.27 154.62 30.26 154.8 29.1 154.97 29.22 155.15 28.71 155.33 29.62 155.51 30.71 155.68 29.64 155.86 28.69 156.04 28.76 156.21 27.16 156.39 25.73 156.57 27.11 156.74 25.11 156.92 25.18 157.1 24.95 157.27 24.69 157.45 25.42 157.63 23.66 157.81 23.3 157.98 23.35 158.16 24.63 158.34 23.34 158.51 21.2 158.69 21.78 158.87 21.66 159.04 23.4 159.22 21.95 159.4 20.31 159.57 20.25 159.75 20.68 159.93 20.73 160.11 21.32 160.28 21.15 160.46 21.12 160.64 21.03 160.81 19.57 160.99 19.9 161.17 18.94 161.34 21.98 161.52 22.64 161.7 23.74 161.87 22.82 162.05 24.27 162.23 24.41 162.41 24.26 162.58 25.43 162.76 24.25 162.94 23.75 163.11 24.05 163.29 21.42 163.47 20.44 163.64 21.33 163.82 21.77 164 22.07 164.17 22.54 164.35 22.7 164.53 22.07 164.71 21.86 164.88 21.34 165.06 20.59 165.24 21.2 165.41 20.85 165.59 21.13 165.77 22.89 165.94 24.71 166.12 23.33 166.3 23.33 166.48 24.58 166.65 24.93 166.83 24.34 167.01 22.96 167.18 22.84 167.36 23 167.54 21.25 167.71 21.59 167.89 21.04 168.07 20.15 168.24 18.35 168.42 19.17 168.6 18.15 168.78 19.85 168.95 19.65 169.13 19.17 169.31 19.05 169.48 19.43 169.66 18.23 169.84 19.98 170.01 21 170.19 20.86 170.37 21.44 170.54 23.01 170.72 23.29 170.9 23.91 171.08 25.01 171.25 25.1 171.43 25.1 171.61 24.76 171.78 23.84 171.96 23.82 172.14 22.68 172.31 23.92 172.49 23.8 172.67 23.71 172.84 26.15 173.02 27.58 173.2 26.42 173.38 26.33 173.55 27.02 173.73 27.87 173.91 28.78 174.08 29.13 174.26 30.1 174.44 30.78 174.61 30.44 174.79 29.09 174.97 29.37 175.14 29.13 175.32 28.92 175.5 29.4 175.68 30.56 175.85 30.11 176.03 29.48 176.21 28.6 176.38 27.67 176.56 28.81 176.74 28.14 176.91 28.13 177.09 28.03 177.27 26.99 177.44 27.16 177.62 28.93 177.8 29.11 177.98 29.98 178.15 29.37 178.33 30.25 178.51 29.25 178.68 29.05 178.86 29.01 179.04 27.9 179.21 29.59 179.39 28.16 179.57 27.92 179.75 26.66 179.92 27.03 180.1 27 180.28 26.27 180.45 26 180.63 25.88 180.81 26.31 180.98 25.1 181.16 25.3 181.34 24.61 181.51 23.62 181.69 22.2 181.87 23.13 182.05 22.24 182.22 23.75 182.4 23.25 182.58 22.92 182.75 24.21 182.93 24.37 183.11 23.91 183.28 21.69 183.46 20.94 183.64 19.89 183.81 20.3 183.99 20.47 184.17 19.58 184.35 20.45 184.52 20.27 184.7 19.99 184.88 20.08 185.05 21.84 185.23 19.43 185.41 18.77 185.58 18.39 185.76 17.13 185.94 16.25 186.11 14.73 186.29 14.63 186.47 15.68 186.65 15.34 186.82 16.09 187 16.69 187.18 17.01 187.35 17.03 187.53 18.25 187.71 18.89 187.88 18.32 188.06 19.24 188.24 18.93 188.41 19.78 188.59 18.61 188.77 17.78 188.95 17.75 189.12 18.09 189.3 18.33 189.48 18.33 189.65 17.41 189.83 16.22 190.01 16.02 190.18 14.61 190.36 12.77 190.54 12.79 190.72 12.99 190.89 12.76 191.07 10.8 191.25 10.19 191.42 8.63 191.6 10 191.78 7.98 191.95 8.66 192.13 8.48 192.31 8.87 192.48 8.5 192.66 9.36 192.84 10.56 193.02 11.3 193.19 11.99 193.37 10.28 193.55 10.44 193.72 11.39 193.9 11.26 194.08 11.95 194.25 11.76 194.43 10.15 194.61 10.37 194.78 10.48 194.96 11.22 195.14 11.32 195.32 10.95 195.49 12.43 195.67 12.82 195.85 11.71 196.02 12.11 196.2 11.87"/>
      </g>
    </g>
  </g>
</g>
  <g class="guide ylabels" font-size="2.82" font-family="'PT Sans Caption','Helvetica Neue','Helvetica',sans-serif" fill="#6C606B" id="img-bbe72387-10">
    <text x="16.27" y="89.93" text-anchor="end" dy="0.35em">-20</text>
    <text x="16.27" y="69.2" text-anchor="end" dy="0.35em">0</text>
    <text x="16.27" y="48.46" text-anchor="end" dy="0.35em">20</text>
    <text x="16.27" y="27.73" text-anchor="end" dy="0.35em">40</text>
    <text x="16.27" y="7" text-anchor="end" dy="0.35em">60</text>
  </g>
  <g font-size="3.88" font-family="'PT Sans','Helvetica Neue','Helvetica',sans-serif" fill="#564A55" stroke="#000000" stroke-opacity="0.000" id="img-bbe72387-11">
    <text x="8.81" y="48.46" text-anchor="end" dy="0.35em">y</text>
  </g>
</g>
<defs>
  <clipPath id="img-bbe72387-3">
  <path d="M17.27,5 L 198.2 5 198.2 91.93 17.27 91.93" />
</clipPath>
</defs>
</svg>
