<?xml version="1.0" encoding="utf-8"?>
<svg xmlns="http://www.w3.org/2000/svg" xmlns:xlink="http://www.w3.org/1999/xlink" width="576" height="384" viewBox="0 0 576 384">
<defs>
  <clipPath id="clip00">
    <rect x="0" y="0" width="576" height="384"/>
  </clipPath>
</defs>
<polygon clip-path="url(#clip00)" points="
0,384 576,384 576,0 0,0 
  " fill="#ffffff" fill-opacity="1"/>
<defs>
  <clipPath id="clip01">
    <rect x="115" y="0" width="404" height="384"/>
  </clipPath>
</defs>
<polygon clip-path="url(#clip00)" points="
36.9926,353.674 572.063,353.674 572.063,3.93701 36.9926,3.93701 
  " fill="#ffffff" fill-opacity="1"/>
<defs>
  <clipPath id="clip02">
    <rect x="36" y="3" width="536" height="350"/>
  </clipPath>
</defs>
<polyline clip-path="url(#clip02)" style="stroke:#00002d; stroke-width:0.768; stroke-opacity:0.5; fill:none" stroke-dasharray="1, 2" points="
  36.9926,348.428 36.9926,9.18306 
  "/>
<polyline clip-path="url(#clip02)" style="stroke:#00002d; stroke-width:0.768; stroke-opacity:0.5; fill:none" stroke-dasharray="1, 2" points="
  144.007,348.428 144.007,9.18306 
  "/>
<polyline clip-path="url(#clip02)" style="stroke:#00002d; stroke-width:0.768; stroke-opacity:0.5; fill:none" stroke-dasharray="1, 2" points="
  251.021,348.428 251.021,9.18306 
  "/>
<polyline clip-path="url(#clip02)" style="stroke:#00002d; stroke-width:0.768; stroke-opacity:0.5; fill:none" stroke-dasharray="1, 2" points="
  358.035,348.428 358.035,9.18306 
  "/>
<polyline clip-path="url(#clip02)" style="stroke:#00002d; stroke-width:0.768; stroke-opacity:0.5; fill:none" stroke-dasharray="1, 2" points="
  465.049,348.428 465.049,9.18306 
  "/>
<polyline clip-path="url(#clip02)" style="stroke:#00002d; stroke-width:0.768; stroke-opacity:0.5; fill:none" stroke-dasharray="1, 2" points="
  572.063,348.428 572.063,9.18306 
  "/>
<polyline clip-path="url(#clip02)" style="stroke:#00002d; stroke-width:0.768; stroke-opacity:0.5; fill:none" stroke-dasharray="1, 2" points="
  45.0186,254.021 564.037,254.021 
  "/>
<polyline clip-path="url(#clip02)" style="stroke:#00002d; stroke-width:0.768; stroke-opacity:0.5; fill:none" stroke-dasharray="1, 2" points="
  45.0186,128.994 564.037,128.994 
  "/>
<polyline clip-path="url(#clip02)" style="stroke:#00002d; stroke-width:0.768; stroke-opacity:0.5; fill:none" stroke-dasharray="1, 2" points="
  45.0186,3.96696 564.037,3.96696 
  "/>
<polyline clip-path="url(#clip02)" style="stroke:#00002d; stroke-width:0.768; stroke-opacity:1; fill:none" points="
  36.9926,353.674 572.063,353.674 
  "/>
<polyline clip-path="url(#clip02)" style="stroke:#00002d; stroke-width:0.768; stroke-opacity:1; fill:none" points="
  36.9926,353.674 36.9926,348.428 
  "/>
<polyline clip-path="url(#clip02)" style="stroke:#00002d; stroke-width:0.768; stroke-opacity:1; fill:none" points="
  144.007,353.674 144.007,348.428 
  "/>
<polyline clip-path="url(#clip02)" style="stroke:#00002d; stroke-width:0.768; stroke-opacity:1; fill:none" points="
  251.021,353.674 251.021,348.428 
  "/>
<polyline clip-path="url(#clip02)" style="stroke:#00002d; stroke-width:0.768; stroke-opacity:1; fill:none" points="
  358.035,353.674 358.035,348.428 
  "/>
<polyline clip-path="url(#clip02)" style="stroke:#00002d; stroke-width:0.768; stroke-opacity:1; fill:none" points="
  465.049,353.674 465.049,348.428 
  "/>
<polyline clip-path="url(#clip02)" style="stroke:#00002d; stroke-width:0.768; stroke-opacity:1; fill:none" points="
  572.063,353.674 572.063,348.428 
  "/>
<polyline clip-path="url(#clip02)" style="stroke:#00002d; stroke-width:0.768; stroke-opacity:1; fill:none" points="
  36.9926,353.674 36.9926,3.93701 
  "/>
<polyline clip-path="url(#clip02)" style="stroke:#00002d; stroke-width:0.768; stroke-opacity:1; fill:none" points="
  36.9926,254.021 45.0186,254.021 
  "/>
<polyline clip-path="url(#clip02)" style="stroke:#00002d; stroke-width:0.768; stroke-opacity:1; fill:none" points="
  36.9926,128.994 45.0186,128.994 
  "/>
<polyline clip-path="url(#clip02)" style="stroke:#00002d; stroke-width:0.768; stroke-opacity:1; fill:none" points="
  36.9926,3.96696 45.0186,3.96696 
  "/>
<g clip-path="url(#clip00)">
<text style="fill:#00002d; fill-opacity:1; font-family:Arial,Helvetica Neue,Helvetica,sans-serif; font-size:12; text-anchor:middle;" transform="rotate(0, 36.9926, 365.626)" x="36.9926" y="365.626">0</text>
</g>
<g clip-path="url(#clip00)">
<text style="fill:#00002d; fill-opacity:1; font-family:Arial,Helvetica Neue,Helvetica,sans-serif; font-size:12; text-anchor:middle;" transform="rotate(0, 144.007, 365.626)" x="144.007" y="365.626">2</text>
</g>
<g clip-path="url(#clip00)">
<text style="fill:#00002d; fill-opacity:1; font-family:Arial,Helvetica Neue,Helvetica,sans-serif; font-size:12; text-anchor:middle;" transform="rotate(0, 251.021, 365.626)" x="251.021" y="365.626">4</text>
</g>
<g clip-path="url(#clip00)">
<text style="fill:#00002d; fill-opacity:1; font-family:Arial,Helvetica Neue,Helvetica,sans-serif; font-size:12; text-anchor:middle;" transform="rotate(0, 358.035, 365.626)" x="358.035" y="365.626">6</text>
</g>
<g clip-path="url(#clip00)">
<text style="fill:#00002d; fill-opacity:1; font-family:Arial,Helvetica Neue,Helvetica,sans-serif; font-size:12; text-anchor:middle;" transform="rotate(0, 465.049, 365.626)" x="465.049" y="365.626">8</text>
</g>
<g clip-path="url(#clip00)">
<text style="fill:#00002d; fill-opacity:1; font-family:Arial,Helvetica Neue,Helvetica,sans-serif; font-size:12; text-anchor:middle;" transform="rotate(0, 572.063, 365.626)" x="572.063" y="365.626">10</text>
</g>
<g clip-path="url(#clip00)">
<text style="fill:#00002d; fill-opacity:1; font-family:Arial,Helvetica Neue,Helvetica,sans-serif; font-size:12; text-anchor:end;" transform="rotate(0, 35.8406, 258.521)" x="35.8406" y="258.521">-4</text>
</g>
<g clip-path="url(#clip00)">
<text style="fill:#00002d; fill-opacity:1; font-family:Arial,Helvetica Neue,Helvetica,sans-serif; font-size:12; text-anchor:end;" transform="rotate(0, 35.8406, 133.494)" x="35.8406" y="133.494">-2</text>
</g>
<g clip-path="url(#clip00)">
<text style="fill:#00002d; fill-opacity:1; font-family:Arial,Helvetica Neue,Helvetica,sans-serif; font-size:12; text-anchor:end;" transform="rotate(0, 35.8406, 8.46696)" x="35.8406" y="8.46696">0</text>
</g>
<g clip-path="url(#clip00)">
<text style="fill:#00002d; fill-opacity:1; font-family:Arial,Helvetica Neue,Helvetica,sans-serif; font-size:16; text-anchor:middle;" transform="rotate(0, 304.528, 381.6)" x="304.528" y="381.6">Frequency (Hz)</text>
</g>
<g clip-path="url(#clip00)">
<text style="fill:#00002d; fill-opacity:1; font-family:Arial,Helvetica Neue,Helvetica,sans-serif; font-size:16; text-anchor:middle;" transform="rotate(-90, 14.4, 178.806)" x="14.4" y="178.806">Magnitude (db)</text>
</g>
<polyline clip-path="url(#clip02)" style="stroke:#0099ff; stroke-width:0.768; stroke-opacity:1; fill:none" points="
  36.9926,3.96696 37.5156,3.96706 38.0386,3.96734 38.5617,3.96781 39.0847,3.96846 39.6078,3.96929 40.1308,3.97029 40.6538,3.97144 41.1769,3.97275 41.6999,3.9742 
  42.223,3.97578 42.746,3.97747 43.269,3.97926 43.7921,3.98114 44.3151,3.98309 44.8382,3.98509 45.3612,3.98713 45.8843,3.98918 46.4073,3.99124 46.9303,3.99327 
  47.4534,3.99528 47.9764,3.99724 48.4995,3.99913 49.0225,4.00094 49.5455,4.00264 50.0686,4.00423 50.5916,4.0057 51.1147,4.00703 51.6377,4.00821 52.1607,4.00923 
  52.6838,4.01008 53.2068,4.01075 53.7299,4.01124 54.2529,4.01154 54.7759,4.01166 55.299,4.01158 55.822,4.01131 56.3451,4.01086 56.8681,4.01022 57.3911,4.00941 
  57.9142,4.00842 58.4372,4.00727 58.9603,4.00596 59.4833,4.00452 60.0063,4.00294 60.5294,4.00124 61.0524,3.99944 61.5755,3.99755 62.0985,3.9956 62.6215,3.99358 
  63.1446,3.99153 63.6676,3.98946 64.1907,3.98738 64.7137,3.98532 65.2368,3.98329 65.7598,3.98131 66.2828,3.97939 66.8059,3.97756 67.3289,3.97582 67.852,3.9742 
  68.375,3.9727 68.898,3.97134 69.4211,3.97013 69.9441,3.96909 70.4672,3.96821 70.9902,3.96751 71.5132,3.967 72.0363,3.96667 72.5593,3.96654 73.0824,3.9666 
  73.6054,3.96685 74.1284,3.96729 74.6515,3.96792 75.1745,3.96873 75.6976,3.96971 76.2206,3.97086 76.7436,3.97218 77.2667,3.97363 77.7897,3.97522 78.3128,3.97693 
  78.8358,3.97875 79.3588,3.98066 79.8819,3.98265 80.4049,3.9847 80.928,3.98678 81.451,3.98889 81.974,3.99101 82.4971,3.99312 83.0201,3.99519 83.5432,3.99722 
  84.0662,3.99919 84.5892,4.00107 85.1123,4.00285 85.6353,4.00453 86.1584,4.00607 86.6814,4.00748 87.2045,4.00873 87.7275,4.00982 88.2505,4.01073 88.7736,4.01147 
  89.2966,4.01201 89.8197,4.01237 90.3427,4.01252 90.8657,4.01248 91.3888,4.01225 91.9118,4.01181 92.4349,4.01119 92.9579,4.01037 93.4809,4.00938 94.004,4.00822 
  94.527,4.00688 95.0501,4.0054 95.5731,4.00378 96.0961,4.00203 96.6192,4.00017 97.1422,3.99821 97.6653,3.99617 98.1883,3.99407 98.7113,3.99193 99.2344,3.98976 
  99.7574,3.98758 100.28,3.98541 100.804,3.98327 101.327,3.98117 101.85,3.97914 102.373,3.97719 102.896,3.97534 103.419,3.9736 103.942,3.972 104.465,3.97054 
  104.988,3.96923 105.511,3.96809 106.034,3.96713 106.557,3.96635 107.08,3.96577 107.603,3.96538 108.126,3.9652 108.649,3.96522 109.172,3.96544 109.695,3.96587 
  110.218,3.9665 110.741,3.96732 111.264,3.96833 111.787,3.96952 112.31,3.97088 112.833,3.9724 113.356,3.97407 113.88,3.97587 114.403,3.97779 114.926,3.97981 
  115.449,3.98192 115.972,3.98409 116.495,3.98632 117.018,3.98857 117.541,3.99084 118.064,3.9931 118.587,3.99534 119.11,3.99752 119.633,3.99964 120.156,4.00169 
  120.679,4.00362 121.202,4.00545 121.725,4.00714 122.248,4.00868 122.771,4.01006 123.294,4.01127 123.817,4.0123 124.34,4.01313 124.863,4.01376 125.386,4.01418 
  125.909,4.0144 126.432,4.0144 126.956,4.01419 127.479,4.01376 128.002,4.01312 128.525,4.01228 129.048,4.01124 129.571,4.01001 130.094,4.0086 130.617,4.00702 
  131.14,4.00528 131.663,4.00341 132.186,4.00141 132.709,3.99929 133.232,3.99708 133.755,3.99481 134.278,3.99247 134.801,3.99011 135.324,3.98773 135.847,3.98535 
  136.37,3.983 136.893,3.98069 137.416,3.97846 137.939,3.9763 138.462,3.97425 138.985,3.97232 139.509,3.97053 140.032,3.96888 140.555,3.96741 141.078,3.96612 
  141.601,3.96502 142.124,3.96413 142.647,3.96344 143.17,3.96297 143.693,3.96272 144.216,3.9627 144.739,3.96291 145.262,3.96333 145.785,3.96398 146.308,3.96485 
  146.831,3.96593 147.354,3.96721 147.877,3.96868 148.4,3.97033 148.923,3.97215 149.446,3.97413 149.969,3.97623 150.492,3.97846 151.015,3.98079 151.538,3.9832 
  152.061,3.98566 152.585,3.98818 153.108,3.9907 153.631,3.99323 154.154,3.99573 154.677,3.99819 155.2,4.00058 155.723,4.00288 156.246,4.00508 156.769,4.00715 
  157.292,4.00907 157.815,4.01084 158.338,4.01243 158.861,4.01383 159.384,4.01502 159.907,4.016 160.43,4.01676 160.953,4.01728 161.476,4.01757 161.999,4.01762 
  162.522,4.01743 163.045,4.01699 163.568,4.01632 164.091,4.01541 164.614,4.01428 165.137,4.01293 165.661,4.01138 166.184,4.00962 166.707,4.00769 167.23,4.00559 
  167.753,4.00335 168.276,4.00097 168.799,3.99849 169.322,3.99591 169.845,3.99327 170.368,3.99058 170.891,3.98787 171.414,3.98516 171.937,3.98247 172.46,3.97983 
  172.983,3.97726 173.506,3.97478 174.029,3.97241 174.552,3.97017 175.075,3.96809 175.598,3.96618 176.121,3.96445 176.644,3.96293 177.167,3.96162 177.69,3.96055 
  178.213,3.95971 178.737,3.95912 179.26,3.95879 179.783,3.95871 180.306,3.95889 180.829,3.95933 181.352,3.96003 181.875,3.96098 182.398,3.96217 182.921,3.9636 
  183.444,3.96526 183.967,3.96713 184.49,3.96919 185.013,3.97143 185.536,3.97384 186.059,3.97639 186.582,3.97906 187.105,3.98183 187.628,3.98468 188.151,3.98758 
  188.674,3.9905 189.197,3.99344 189.72,3.99634 190.243,3.99921 190.766,4.002 191.29,4.0047 191.813,4.00728 192.336,4.00971 192.859,4.01199 193.382,4.01408 
  193.905,4.01597 194.428,4.01765 194.951,4.01908 195.474,4.02028 195.997,4.02121 196.52,4.02188 197.043,4.02227 197.566,4.02238 198.089,4.02221 198.612,4.02176 
  199.135,4.02103 199.658,4.02003 200.181,4.01876 200.704,4.01724 201.227,4.01547 201.75,4.01346 202.273,4.01125 202.796,4.00883 203.319,4.00624 203.842,4.0035 
  204.366,4.00062 204.889,3.99763 205.412,3.99456 205.935,3.99143 206.458,3.98827 206.981,3.9851 207.504,3.98195 208.027,3.97886 208.55,3.97584 209.073,3.97292 
  209.596,3.97013 210.119,3.96749 210.642,3.96503 211.165,3.96275 211.688,3.9607 212.211,3.95887 212.734,3.95731 213.257,3.956 213.78,3.95497 214.303,3.95423 
  214.826,3.95378 215.349,3.95363 215.872,3.95378 216.395,3.95423 216.918,3.95498 217.442,3.95602 217.965,3.95734 218.488,3.95894 219.011,3.9608 219.534,3.9629 
  220.057,3.96523 220.58,3.96777 221.103,3.9705 221.626,3.97338 222.149,3.97641 222.672,3.97956 223.195,3.98279 223.718,3.98608 224.241,3.98939 224.764,3.99272 
  225.287,3.99602 225.81,3.99926 226.333,4.00242 226.856,4.00547 227.379,4.00839 227.902,4.01115 228.425,4.01372 228.948,4.01608 229.471,4.01822 229.995,4.02012 
  230.518,4.02175 231.041,4.02311 231.564,4.02419 232.087,4.02497 232.61,4.02545 233.133,4.02563 233.656,4.02551 234.179,4.02509 234.702,4.02438 235.225,4.02338 
  235.748,4.02211 236.271,4.02057 236.794,4.01879 237.317,4.01679 237.84,4.01457 238.363,4.01217 238.886,4.00961 239.409,4.00691 239.932,4.0041 240.455,4.00121 
  240.978,3.99827 241.501,3.99529 242.024,3.99232 242.547,3.98937 243.071,3.98648 243.594,3.98366 244.117,3.98096 244.64,3.97837 245.163,3.97595 245.686,3.97368 
  246.209,3.97161 246.732,3.96973 247.255,3.96806 247.778,3.96662 248.301,3.96539 248.824,3.9644 249.347,3.96362 249.87,3.96308 250.393,3.96274 250.916,3.96261 
  251.439,3.96266 251.962,3.96288 252.485,3.96326 253.008,3.96376 253.531,3.96437 254.054,3.96504 254.577,3.96577 255.1,3.96651 255.623,3.96723 256.147,3.96791 
  256.67,3.9685 257.193,3.96898 257.716,3.96932 258.239,3.96949 258.762,3.96945 259.285,3.9692 259.808,3.96871 260.331,3.96797 260.854,3.96696 261.377,3.96568 
  261.9,3.96413 262.423,3.96233 262.946,3.96029 263.469,3.95805 263.992,3.95562 264.515,3.95307 265.038,3.95043 265.561,3.94779 266.084,3.94522 266.607,3.94282 
  267.13,3.94067 267.653,3.9389 268.176,3.93763 268.7,3.93701 269.223,3.93719 269.746,3.93834 270.269,3.94064 270.792,3.94427 271.315,3.94946 271.838,3.95643 
  272.361,3.9654 272.884,3.97662 273.407,3.99036 273.93,4.00688 274.453,4.02647 274.976,4.04943 275.499,4.07605 276.022,4.10666 276.545,4.14158 277.068,4.18114 
  277.591,4.2257 278.114,4.2756 278.637,4.3312 279.16,4.39287 279.683,4.46098 280.206,4.53591 280.729,4.61805 281.252,4.70778 281.776,4.8055 282.299,4.9116 
  282.822,5.02649 283.345,5.15057 283.868,5.28424 284.391,5.42791 284.914,5.58198 285.437,5.74688 285.96,5.923 286.483,6.11077 287.006,6.31058 287.529,6.52286 
  288.052,6.74802 288.575,6.98646 289.098,7.2386 289.621,7.50485 290.144,7.78563 290.667,8.08133 291.19,8.39238 291.713,8.71919 292.236,9.06216 292.759,9.42171 
  293.282,9.79824 293.805,10.1922 294.328,10.6039 294.852,11.0339 295.375,11.4825 295.898,11.9502 296.421,12.4374 296.944,12.9445 297.467,13.4719 297.99,14.02 
  298.513,14.5894 299.036,15.1804 299.559,15.7935 300.082,16.4291 300.605,17.0876 301.128,17.7696 301.651,18.4756 302.174,19.2059 302.697,19.9611 303.22,20.7417 
  303.743,21.5482 304.266,22.3812 304.789,23.241 305.312,24.1284 305.835,25.0439 306.358,25.9881 306.881,26.9615 307.405,27.9648 307.928,28.9986 308.451,30.0637 
  308.974,31.1607 309.497,32.2903 310.02,33.4533 310.543,34.6505 311.066,35.8827 311.589,37.1507 312.112,38.4555 312.635,39.798 313.158,41.1792 313.681,42.6002 
  314.204,44.062 314.727,45.5658 315.25,47.1129 315.773,48.7046 316.296,50.3423 316.819,52.0274 317.342,53.7616 317.865,55.5465 318.388,57.3841 318.911,59.2762 
  319.434,61.225 319.957,63.2328 320.481,65.3021 321.004,67.4356 321.527,69.6363 322.05,71.9074 322.573,74.2526 323.096,76.6757 323.619,79.1813 324.142,81.7743 
  324.665,84.4602 325.188,87.2453 325.711,90.1368 326.234,93.1427 326.757,96.2727 327.28,99.5378 327.803,102.951 328.326,106.528 328.849,110.288 329.372,114.253 
  329.895,118.452 330.418,122.923 330.941,127.713 331.464,132.886 331.987,138.533 332.51,144.782 333.033,151.833 333.557,160.018 334.08,169.95 334.603,182.98 
  335.126,203.255 335.649,278.293 336.172,212.309 336.695,195.036 337.218,186.364 337.741,181.136 338.264,177.804 338.787,175.689 339.31,174.435 339.833,173.83 
  340.356,173.736 340.879,174.06 341.402,174.735 341.925,175.708 342.448,176.937 342.971,178.385 343.494,180.019 344.017,181.806 344.54,183.713 345.063,185.704 
  345.586,187.737 346.109,189.77 346.633,191.752 347.156,193.632 347.679,195.355 348.202,196.87 348.725,198.129 349.248,199.098 349.771,199.756 350.294,200.098 
  350.817,200.141 351.34,199.913 351.863,199.457 352.386,198.82 352.909,198.055 353.432,197.211 353.955,196.333 354.478,195.464 355.001,194.638 355.524,193.886 
  356.047,193.233 356.57,192.703 357.093,192.313 357.616,192.083 358.139,192.028 358.662,192.165 359.186,192.511 359.709,193.088 360.232,193.917 360.755,195.029 
  361.278,196.458 361.801,198.253 362.324,200.479 362.847,203.225 363.37,206.627 363.893,210.891 364.416,216.369 364.939,223.722 365.462,234.453 365.985,253.463 
  366.508,338.904 367.031,250.741 367.554,232.332 368.077,221.463 368.6,213.786 369.123,207.91 369.646,203.21 370.169,199.353 370.692,196.137 371.215,193.435 
  371.738,191.159 372.262,189.25 372.785,187.662 373.308,186.364 373.831,185.332 374.354,184.55 374.877,184.004 375.4,183.689 375.923,183.599 376.446,183.734 
  376.969,184.099 377.492,184.699 378.015,185.547 378.538,186.66 379.061,188.059 379.584,189.778 380.107,191.859 380.63,194.363 381.153,197.377 381.676,201.027 
  382.199,205.514 382.722,211.17 383.245,218.62 383.768,229.248 384.291,247.381 384.814,333.237 385.338,249.803 385.861,230.493 386.384,219.488 386.907,211.862 
  387.43,206.109 387.953,201.565 388.476,197.88 388.999,194.846 389.522,192.331 390.045,190.246 390.568,188.528 391.091,187.133 391.614,186.029 392.137,185.191 
  392.66,184.605 393.183,184.257 393.706,184.142 394.229,184.257 394.752,184.603 395.275,185.185 395.798,186.013 396.321,187.101 396.844,188.47 397.367,190.149 
  397.891,192.178 398.414,194.612 398.937,197.528 399.46,201.042 399.983,205.329 400.506,210.677 401.029,217.607 401.552,227.215 402.075,242.536 402.598,281.677 
  403.121,259.994 403.644,235.83 404.167,223.44 404.69,215.164 405.213,209.038 405.736,204.256 406.259,200.406 406.782,197.252 407.305,194.648 407.828,192.492 
  408.351,190.719 408.874,189.279 409.397,188.136 409.92,187.267 410.443,186.651 410.967,186.278 411.49,186.139 412.013,186.232 412.536,186.555 413.059,187.115 
  413.582,187.919 414.105,188.982 414.628,190.323 415.151,191.971 415.674,193.963 416.197,196.351 416.72,199.212 417.243,202.654 417.766,206.843 418.289,212.051 
  418.812,218.758 419.335,227.958 419.858,242.279 420.381,274.956 420.904,267.221 421.427,239.901 421.95,226.754 422.473,218.136 422.996,211.813 423.519,206.902 
  424.043,202.96 424.566,199.738 425.089,197.078 425.612,194.877 426.135,193.065 426.658,191.591 427.181,190.419 427.704,189.522 428.227,188.881 428.75,188.484 
  429.273,188.321 429.796,188.391 430.319,188.691 430.842,189.228 431.365,190.008 431.888,191.046 432.411,192.36 432.934,193.978 433.457,195.936 433.98,198.287 
  434.503,201.103 435.026,204.49 435.549,208.608 436.072,213.717 436.596,220.276 437.119,229.214 437.642,242.933 438.165,272.468 438.688,273.354 439.211,243.385 
  439.734,229.673 440.257,220.805 440.78,214.337 441.303,209.329 441.826,205.316 442.349,202.039 442.872,199.334 443.395,197.095 443.918,195.249 444.441,193.745 
  444.964,192.545 445.487,191.622 446.01,190.957 446.533,190.536 447.056,190.35 447.579,190.396 448.102,190.674 448.625,191.187 449.148,191.943 449.672,192.955 
  450.195,194.243 450.718,195.832 451.241,197.759 451.764,200.074 452.287,202.848 452.81,206.185 453.333,210.24 453.856,215.264 454.379,221.697 454.902,230.421 
  455.425,243.662 455.948,270.998 456.471,279.211 456.994,246.504 457.517,232.273 458.04,223.177 458.563,216.579 459.086,211.483 459.609,207.406 460.132,204.077 
  460.655,201.33 461.178,199.055 461.701,197.177 462.224,195.644 462.748,194.417 463.271,193.468 463.794,192.778 464.317,192.333 464.84,192.125 465.363,192.148 
  465.886,192.402 466.409,192.891 466.932,193.623 467.455,194.61 467.978,195.872 468.501,197.432 469.024,199.328 469.547,201.608 470.07,204.342 470.593,207.631 
  471.116,211.625 471.639,216.569 472.162,222.884 472.685,231.41 473.208,244.223 473.731,269.763 474.254,285.249 474.777,249.352 475.301,234.587 475.824,225.264 
  476.347,218.536 476.87,213.353 477.393,209.213 477.916,205.833 478.439,203.044 478.962,200.733 479.485,198.824 480.008,197.261 480.531,196.007 481.054,195.033 
  481.577,194.319 482.1,193.85 482.623,193.618 483.146,193.618 483.669,193.85 484.192,194.315 484.715,195.023 485.238,195.985 485.761,197.22 486.284,198.752 
  486.807,200.617 487.33,202.862 487.853,205.557 488.377,208.798 488.9,212.733 489.423,217.597 489.946,223.798 490.469,232.133 490.992,244.545 491.515,268.522 
  492.038,291.859 492.561,251.976 493.084,236.637 493.607,227.078 494.13,220.216 494.653,214.945 495.176,210.739 495.699,207.309 496.222,204.478 496.745,202.131 
  497.268,200.189 497.791,198.597 498.314,197.316 498.837,196.317 499.36,195.578 499.883,195.086 500.406,194.831 500.929,194.807 501.453,195.015 501.976,195.458 
  502.499,196.141 503.022,197.078 503.545,198.286 504.068,199.79 504.591,201.624 505.114,203.835 505.637,206.49 506.16,209.683 506.683,213.559 507.206,218.346 
  507.729,224.434 508.252,232.584 508.775,244.612 509.298,267.197 509.821,299.569 510.344,254.405 510.867,238.44 511.39,228.631 511.913,221.629 512.436,216.266 
  512.959,211.994 513.482,208.512 514.005,205.638 514.529,203.254 515.052,201.28 515.575,199.658 516.098,198.35 516.621,197.325 517.144,196.562 517.667,196.046 
  518.19,195.767 518.713,195.721 519.236,195.906 519.759,196.325 520.282,196.984 520.805,197.896 521.328,199.078 521.851,200.553 522.374,202.356 522.897,204.533 
  523.42,207.148 523.943,210.294 524.466,214.112 524.989,218.821 525.512,224.798 526.035,232.768 526.558,244.428 527.082,265.76 527.605,309.349 528.128,256.66 
  528.651,240.007 529.174,229.931 529.697,222.784 530.22,217.326 530.743,212.985 531.266,209.45 531.789,206.532 532.312,204.11 532.835,202.103 533.358,200.452 
  533.881,199.117 534.404,198.066 534.927,197.278 535.45,196.738 535.973,196.436 536.496,196.367 537.019,196.529 537.542,196.924 538.065,197.559 538.588,198.446 
  539.111,199.602 539.634,201.049 540.158,202.821 540.681,204.963 541.204,207.539 541.727,210.639 542.25,214.398 542.773,219.031 543.296,224.899 543.819,232.693 
  544.342,244.003 544.865,264.203 545.388,323.639 545.911,258.757 546.434,241.344 546.957,230.985 547.48,223.686 548.003,218.13 548.526,213.718 549.049,210.128 
  549.572,207.166 550.095,204.707 550.618,202.666 551.141,200.986 551.664,199.622 552.187,198.545 552.71,197.733 553.234,197.169 553.757,196.844 554.28,196.752 
  554.803,196.89 555.326,197.262 555.849,197.874 556.372,198.736 556.895,199.865 557.418,201.284 557.941,203.026 558.464,205.134 558.987,207.67 559.51,210.723 
  560.033,214.425 560.556,218.983 561.079,224.744 561.602,232.367 562.125,243.343 562.648,262.521 563.171,353.674 563.694,260.708 564.217,242.456 564.74,231.797 
  565.263,224.339 565.787,218.682 566.31,214.198 566.833,210.553 567.356,207.545 567.879,205.048 568.402,202.974 568.925,201.263 569.448,199.871 569.971,198.768 
  570.494,197.931 571.017,197.343 571.54,196.995 572.063,196.88 
  "/>
<polygon clip-path="url(#clip00)" points="
484.667,53.617 554.783,53.617 554.783,23.377 484.667,23.377 
  " fill="#ffffff" fill-opacity="1"/>
<polyline clip-path="url(#clip00)" style="stroke:#00002d; stroke-width:0.768; stroke-opacity:1; fill:none" points="
  484.667,53.617 554.783,53.617 554.783,23.377 484.667,23.377 484.667,53.617 
  "/>
<polyline clip-path="url(#clip00)" style="stroke:#0099ff; stroke-width:0.768; stroke-opacity:1; fill:none" points="
  490.427,38.497 524.987,38.497 
  "/>
<g clip-path="url(#clip00)">
<text style="fill:#00002d; fill-opacity:1; font-family:Arial,Helvetica Neue,Helvetica,sans-serif; font-size:12; text-anchor:start;" transform="rotate(0, 530.747, 42.997)" x="530.747" y="42.997">y1</text>
</g>
</svg>
