<?xml version="1.0" encoding="utf-8"?>
<svg xmlns="http://www.w3.org/2000/svg" xmlns:xlink="http://www.w3.org/1999/xlink" width="576" height="384" viewBox="0 0 576 384">
<defs>
  <clipPath id="clip00">
    <rect x="0" y="0" width="576" height="384"/>
  </clipPath>
</defs>
<polygon clip-path="url(#clip00)" points="
0,384 576,384 576,0 0,0 
  " fill="#ffffff" fill-opacity="1"/>
<defs>
  <clipPath id="clip01">
    <rect x="115" y="0" width="404" height="384"/>
  </clipPath>
</defs>
<polygon clip-path="url(#clip00)" points="
45.8815,353.674 572.063,353.674 572.063,3.93701 45.8815,3.93701 
  " fill="#ffffff" fill-opacity="1"/>
<defs>
  <clipPath id="clip02">
    <rect x="45" y="3" width="527" height="350"/>
  </clipPath>
</defs>
<polyline clip-path="url(#clip02)" style="stroke:#00002d; stroke-width:0.768; stroke-opacity:0.5; fill:none" stroke-dasharray="1, 2" points="
  45.8815,348.428 45.8815,9.18306 
  "/>
<polyline clip-path="url(#clip02)" style="stroke:#00002d; stroke-width:0.768; stroke-opacity:0.5; fill:none" stroke-dasharray="1, 2" points="
  151.118,348.428 151.118,9.18306 
  "/>
<polyline clip-path="url(#clip02)" style="stroke:#00002d; stroke-width:0.768; stroke-opacity:0.5; fill:none" stroke-dasharray="1, 2" points="
  256.354,348.428 256.354,9.18306 
  "/>
<polyline clip-path="url(#clip02)" style="stroke:#00002d; stroke-width:0.768; stroke-opacity:0.5; fill:none" stroke-dasharray="1, 2" points="
  361.59,348.428 361.59,9.18306 
  "/>
<polyline clip-path="url(#clip02)" style="stroke:#00002d; stroke-width:0.768; stroke-opacity:0.5; fill:none" stroke-dasharray="1, 2" points="
  466.827,348.428 466.827,9.18306 
  "/>
<polyline clip-path="url(#clip02)" style="stroke:#00002d; stroke-width:0.768; stroke-opacity:0.5; fill:none" stroke-dasharray="1, 2" points="
  572.063,348.428 572.063,9.18306 
  "/>
<polyline clip-path="url(#clip02)" style="stroke:#00002d; stroke-width:0.768; stroke-opacity:0.5; fill:none" stroke-dasharray="1, 2" points="
  53.7742,305.556 564.17,305.556 
  "/>
<polyline clip-path="url(#clip02)" style="stroke:#00002d; stroke-width:0.768; stroke-opacity:0.5; fill:none" stroke-dasharray="1, 2" points="
  53.7742,245.232 564.17,245.232 
  "/>
<polyline clip-path="url(#clip02)" style="stroke:#00002d; stroke-width:0.768; stroke-opacity:0.5; fill:none" stroke-dasharray="1, 2" points="
  53.7742,184.908 564.17,184.908 
  "/>
<polyline clip-path="url(#clip02)" style="stroke:#00002d; stroke-width:0.768; stroke-opacity:0.5; fill:none" stroke-dasharray="1, 2" points="
  53.7742,124.585 564.17,124.585 
  "/>
<polyline clip-path="url(#clip02)" style="stroke:#00002d; stroke-width:0.768; stroke-opacity:0.5; fill:none" stroke-dasharray="1, 2" points="
  53.7742,64.2608 564.17,64.2608 
  "/>
<polyline clip-path="url(#clip02)" style="stroke:#00002d; stroke-width:0.768; stroke-opacity:0.5; fill:none" stroke-dasharray="1, 2" points="
  53.7742,3.93701 564.17,3.93701 
  "/>
<polyline clip-path="url(#clip02)" style="stroke:#00002d; stroke-width:0.768; stroke-opacity:1; fill:none" points="
  45.8815,353.674 572.063,353.674 
  "/>
<polyline clip-path="url(#clip02)" style="stroke:#00002d; stroke-width:0.768; stroke-opacity:1; fill:none" points="
  45.8815,353.674 45.8815,348.428 
  "/>
<polyline clip-path="url(#clip02)" style="stroke:#00002d; stroke-width:0.768; stroke-opacity:1; fill:none" points="
  151.118,353.674 151.118,348.428 
  "/>
<polyline clip-path="url(#clip02)" style="stroke:#00002d; stroke-width:0.768; stroke-opacity:1; fill:none" points="
  256.354,353.674 256.354,348.428 
  "/>
<polyline clip-path="url(#clip02)" style="stroke:#00002d; stroke-width:0.768; stroke-opacity:1; fill:none" points="
  361.59,353.674 361.59,348.428 
  "/>
<polyline clip-path="url(#clip02)" style="stroke:#00002d; stroke-width:0.768; stroke-opacity:1; fill:none" points="
  466.827,353.674 466.827,348.428 
  "/>
<polyline clip-path="url(#clip02)" style="stroke:#00002d; stroke-width:0.768; stroke-opacity:1; fill:none" points="
  572.063,353.674 572.063,348.428 
  "/>
<polyline clip-path="url(#clip02)" style="stroke:#00002d; stroke-width:0.768; stroke-opacity:1; fill:none" points="
  45.8815,353.674 45.8815,3.93701 
  "/>
<polyline clip-path="url(#clip02)" style="stroke:#00002d; stroke-width:0.768; stroke-opacity:1; fill:none" points="
  45.8815,305.556 53.7742,305.556 
  "/>
<polyline clip-path="url(#clip02)" style="stroke:#00002d; stroke-width:0.768; stroke-opacity:1; fill:none" points="
  45.8815,245.232 53.7742,245.232 
  "/>
<polyline clip-path="url(#clip02)" style="stroke:#00002d; stroke-width:0.768; stroke-opacity:1; fill:none" points="
  45.8815,184.908 53.7742,184.908 
  "/>
<polyline clip-path="url(#clip02)" style="stroke:#00002d; stroke-width:0.768; stroke-opacity:1; fill:none" points="
  45.8815,124.585 53.7742,124.585 
  "/>
<polyline clip-path="url(#clip02)" style="stroke:#00002d; stroke-width:0.768; stroke-opacity:1; fill:none" points="
  45.8815,64.2608 53.7742,64.2608 
  "/>
<polyline clip-path="url(#clip02)" style="stroke:#00002d; stroke-width:0.768; stroke-opacity:1; fill:none" points="
  45.8815,3.93701 53.7742,3.93701 
  "/>
<g clip-path="url(#clip00)">
<text style="fill:#00002d; fill-opacity:1; font-family:Arial,Helvetica Neue,Helvetica,sans-serif; font-size:12; text-anchor:middle;" transform="rotate(0, 45.8815, 365.626)" x="45.8815" y="365.626">0</text>
</g>
<g clip-path="url(#clip00)">
<text style="fill:#00002d; fill-opacity:1; font-family:Arial,Helvetica Neue,Helvetica,sans-serif; font-size:12; text-anchor:middle;" transform="rotate(0, 151.118, 365.626)" x="151.118" y="365.626">2</text>
</g>
<g clip-path="url(#clip00)">
<text style="fill:#00002d; fill-opacity:1; font-family:Arial,Helvetica Neue,Helvetica,sans-serif; font-size:12; text-anchor:middle;" transform="rotate(0, 256.354, 365.626)" x="256.354" y="365.626">4</text>
</g>
<g clip-path="url(#clip00)">
<text style="fill:#00002d; fill-opacity:1; font-family:Arial,Helvetica Neue,Helvetica,sans-serif; font-size:12; text-anchor:middle;" transform="rotate(0, 361.59, 365.626)" x="361.59" y="365.626">6</text>
</g>
<g clip-path="url(#clip00)">
<text style="fill:#00002d; fill-opacity:1; font-family:Arial,Helvetica Neue,Helvetica,sans-serif; font-size:12; text-anchor:middle;" transform="rotate(0, 466.827, 365.626)" x="466.827" y="365.626">8</text>
</g>
<g clip-path="url(#clip00)">
<text style="fill:#00002d; fill-opacity:1; font-family:Arial,Helvetica Neue,Helvetica,sans-serif; font-size:12; text-anchor:middle;" transform="rotate(0, 572.063, 365.626)" x="572.063" y="365.626">10</text>
</g>
<g clip-path="url(#clip00)">
<text style="fill:#00002d; fill-opacity:1; font-family:Arial,Helvetica Neue,Helvetica,sans-serif; font-size:12; text-anchor:end;" transform="rotate(0, 44.7295, 310.056)" x="44.7295" y="310.056">-50</text>
</g>
<g clip-path="url(#clip00)">
<text style="fill:#00002d; fill-opacity:1; font-family:Arial,Helvetica Neue,Helvetica,sans-serif; font-size:12; text-anchor:end;" transform="rotate(0, 44.7295, 249.732)" x="44.7295" y="249.732">-40</text>
</g>
<g clip-path="url(#clip00)">
<text style="fill:#00002d; fill-opacity:1; font-family:Arial,Helvetica Neue,Helvetica,sans-serif; font-size:12; text-anchor:end;" transform="rotate(0, 44.7295, 189.408)" x="44.7295" y="189.408">-30</text>
</g>
<g clip-path="url(#clip00)">
<text style="fill:#00002d; fill-opacity:1; font-family:Arial,Helvetica Neue,Helvetica,sans-serif; font-size:12; text-anchor:end;" transform="rotate(0, 44.7295, 129.085)" x="44.7295" y="129.085">-20</text>
</g>
<g clip-path="url(#clip00)">
<text style="fill:#00002d; fill-opacity:1; font-family:Arial,Helvetica Neue,Helvetica,sans-serif; font-size:12; text-anchor:end;" transform="rotate(0, 44.7295, 68.7608)" x="44.7295" y="68.7608">-10</text>
</g>
<g clip-path="url(#clip00)">
<text style="fill:#00002d; fill-opacity:1; font-family:Arial,Helvetica Neue,Helvetica,sans-serif; font-size:12; text-anchor:end;" transform="rotate(0, 44.7295, 8.43701)" x="44.7295" y="8.43701">0</text>
</g>
<g clip-path="url(#clip00)">
<text style="fill:#00002d; fill-opacity:1; font-family:Arial,Helvetica Neue,Helvetica,sans-serif; font-size:16; text-anchor:middle;" transform="rotate(0, 308.972, 381.6)" x="308.972" y="381.6">Frequency (Hz)</text>
</g>
<g clip-path="url(#clip00)">
<text style="fill:#00002d; fill-opacity:1; font-family:Arial,Helvetica Neue,Helvetica,sans-serif; font-size:16; text-anchor:middle;" transform="rotate(-90, 14.4, 178.806)" x="14.4" y="178.806">Phase (radians)</text>
</g>
<polyline clip-path="url(#clip02)" style="stroke:#0099ff; stroke-width:0.768; stroke-opacity:1; fill:none" points="
  45.8815,3.93701 46.3958,4.51129 46.9102,5.08557 47.4245,5.65985 47.9389,6.23413 48.4532,6.80841 48.9676,7.38269 49.4819,7.95697 49.9963,8.53126 50.5106,9.10554 
  51.025,9.67982 51.5393,10.2541 52.0537,10.8284 52.568,11.4027 53.0824,11.9769 53.5967,12.5512 54.1111,13.1255 54.6254,13.6998 55.1398,14.2741 55.6541,14.8483 
  56.1685,15.4226 56.6828,15.9969 57.1972,16.5712 57.7115,17.1455 58.2259,17.7198 58.7402,18.294 59.2546,18.8683 59.7689,19.4426 60.2833,20.0169 60.7976,20.5912 
  61.312,21.1654 61.8263,21.7397 62.3407,22.314 62.8551,22.8883 63.3694,23.4626 63.8838,24.0368 64.3981,24.6111 64.9125,25.1854 65.4268,25.7597 65.9412,26.334 
  66.4555,26.9082 66.9699,27.4825 67.4842,28.0568 67.9986,28.6311 68.5129,29.2054 69.0273,29.7796 69.5416,30.3539 70.056,30.9282 70.5703,31.5025 71.0847,32.0768 
  71.599,32.6511 72.1134,33.2253 72.6277,33.7996 73.1421,34.3739 73.6564,34.9482 74.1708,35.5225 74.6851,36.0967 75.1995,36.671 75.7138,37.2453 76.2282,37.8196 
  76.7425,38.3939 77.2569,38.9681 77.7712,39.5424 78.2856,40.1167 78.7999,40.691 79.3143,41.2653 79.8286,41.8396 80.343,42.4138 80.8574,42.9881 81.3717,43.5624 
  81.8861,44.1367 82.4004,44.711 82.9148,45.2852 83.4291,45.8595 83.9435,46.4338 84.4578,47.0081 84.9722,47.5824 85.4865,48.1566 86.0009,48.7309 86.5152,49.3052 
  87.0296,49.8795 87.5439,50.4538 88.0583,51.028 88.5726,51.6023 89.087,52.1766 89.6013,52.7509 90.1157,53.3252 90.63,53.8995 91.1444,54.4737 91.6587,55.048 
  92.1731,55.6223 92.6874,56.1966 93.2018,56.7709 93.7161,57.3451 94.2305,57.9194 94.7448,58.4937 95.2592,59.068 95.7735,59.6423 96.2879,60.2165 96.8022,60.7908 
  97.3166,61.3651 97.8309,61.9394 98.3453,62.5137 98.8597,63.0879 99.374,63.6622 99.8884,64.2365 100.403,64.8108 100.917,65.3851 101.431,65.9593 101.946,66.5336 
  102.46,67.1079 102.974,67.6822 103.489,68.2565 104.003,68.8308 104.518,69.405 105.032,69.9793 105.546,70.5536 106.061,71.1279 106.575,71.7022 107.089,72.2764 
  107.604,72.8507 108.118,73.425 108.632,73.9993 109.147,74.5736 109.661,75.1478 110.175,75.7221 110.69,76.2964 111.204,76.8707 111.718,77.445 112.233,78.0192 
  112.747,78.5935 113.261,79.1678 113.776,79.7421 114.29,80.3164 114.805,80.8907 115.319,81.4649 115.833,82.0392 116.348,82.6135 116.862,83.1878 117.376,83.7621 
  117.891,84.3363 118.405,84.9106 118.919,85.4849 119.434,86.0592 119.948,86.6335 120.462,87.2077 120.977,87.782 121.491,88.3563 122.005,88.9306 122.52,89.5049 
  123.034,90.0792 123.549,90.6534 124.063,91.2277 124.577,91.802 125.092,92.3763 125.606,92.9506 126.12,93.5248 126.635,94.0991 127.149,94.6734 127.663,95.2477 
  128.178,95.822 128.692,96.3962 129.206,96.9705 129.721,97.5448 130.235,98.1191 130.749,98.6934 131.264,99.2676 131.778,99.8419 132.292,100.416 132.807,100.99 
  133.321,101.565 133.836,102.139 134.35,102.713 134.864,103.288 135.379,103.862 135.893,104.436 136.407,105.01 136.922,105.585 137.436,106.159 137.95,106.733 
  138.465,107.308 138.979,107.882 139.493,108.456 140.008,109.03 140.522,109.605 141.036,110.179 141.551,110.753 142.065,111.328 142.58,111.902 143.094,112.476 
  143.608,113.05 144.123,113.625 144.637,114.199 145.151,114.773 145.666,115.348 146.18,115.922 146.694,116.496 147.209,117.07 147.723,117.645 148.237,118.219 
  148.752,118.793 149.266,119.367 149.78,119.942 150.295,120.516 150.809,121.09 151.324,121.665 151.838,122.239 152.352,122.813 152.867,123.387 153.381,123.962 
  153.895,124.536 154.41,125.11 154.924,125.685 155.438,126.259 155.953,126.833 156.467,127.407 156.981,127.982 157.496,128.556 158.01,129.13 158.524,129.705 
  159.039,130.279 159.553,130.853 160.067,131.427 160.582,132.002 161.096,132.576 161.611,133.15 162.125,133.725 162.639,134.299 163.154,134.873 163.668,135.447 
  164.182,136.022 164.697,136.596 165.211,137.17 165.725,137.744 166.24,138.319 166.754,138.893 167.268,139.467 167.783,140.042 168.297,140.616 168.811,141.19 
  169.326,141.764 169.84,142.339 170.355,142.913 170.869,143.487 171.383,144.062 171.898,144.636 172.412,145.21 172.926,145.784 173.441,146.359 173.955,146.933 
  174.469,147.507 174.984,148.082 175.498,148.656 176.012,149.23 176.527,149.804 177.041,150.379 177.555,150.953 178.07,151.527 178.584,152.101 179.098,152.676 
  179.613,153.25 180.127,153.824 180.642,154.399 181.156,154.973 181.67,155.547 182.185,156.121 182.699,156.696 183.213,157.27 183.728,157.844 184.242,158.419 
  184.756,158.993 185.271,159.567 185.785,160.141 186.299,160.716 186.814,161.29 187.328,161.864 187.842,162.439 188.357,163.013 188.871,163.587 189.386,164.161 
  189.9,164.736 190.414,165.31 190.929,165.884 191.443,166.459 191.957,167.033 192.472,167.607 192.986,168.181 193.5,168.756 194.015,169.33 194.529,169.904 
  195.043,170.478 195.558,171.053 196.072,171.627 196.586,172.201 197.101,172.776 197.615,173.35 198.129,173.924 198.644,174.498 199.158,175.073 199.673,175.647 
  200.187,176.221 200.701,176.796 201.216,177.37 201.73,177.944 202.244,178.518 202.759,179.093 203.273,179.667 203.787,180.241 204.302,180.816 204.816,181.39 
  205.33,181.964 205.845,182.538 206.359,183.113 206.873,183.687 207.388,184.261 207.902,184.836 208.417,185.41 208.931,185.984 209.445,186.558 209.96,187.133 
  210.474,187.707 210.988,188.281 211.503,188.855 212.017,189.43 212.531,190.004 213.046,190.578 213.56,191.153 214.074,191.727 214.589,192.301 215.103,192.875 
  215.617,193.45 216.132,194.024 216.646,194.598 217.16,195.173 217.675,195.747 218.189,196.321 218.704,196.895 219.218,197.47 219.732,198.044 220.247,198.618 
  220.761,199.193 221.275,199.767 221.79,200.341 222.304,200.915 222.818,201.49 223.333,202.064 223.847,202.638 224.361,203.212 224.876,203.787 225.39,204.361 
  225.904,204.935 226.419,205.51 226.933,206.084 227.448,206.658 227.962,207.232 228.476,207.807 228.991,208.381 229.505,208.955 230.019,209.53 230.534,210.104 
  231.048,210.678 231.562,211.252 232.077,211.827 232.591,212.401 233.105,212.975 233.62,213.55 234.134,214.124 234.648,214.698 235.163,215.272 235.677,215.847 
  236.191,216.421 236.706,216.995 237.22,217.57 237.735,218.144 238.249,218.718 238.763,219.292 239.278,219.867 239.792,220.441 240.306,221.015 240.821,221.589 
  241.335,222.164 241.849,222.738 242.364,223.312 242.878,223.887 243.392,224.461 243.907,225.035 244.421,225.609 244.935,226.184 245.45,226.758 245.964,227.332 
  246.479,227.907 246.993,228.481 247.507,229.055 248.022,229.629 248.536,230.204 249.05,230.778 249.565,231.352 250.079,231.927 250.593,232.501 251.108,233.075 
  251.622,233.649 252.136,234.224 252.651,234.798 253.165,235.372 253.679,235.946 254.194,236.521 254.708,237.095 255.222,237.669 255.737,238.244 256.251,238.818 
  256.766,239.392 257.28,239.966 257.794,240.541 258.309,241.115 258.823,241.689 259.337,242.264 259.852,242.838 260.366,243.412 260.88,243.986 261.395,244.561 
  261.909,245.135 262.423,245.709 262.938,246.284 263.452,246.858 263.966,247.432 264.481,248.006 264.995,248.581 265.51,249.155 266.024,249.729 266.538,250.304 
  267.053,250.878 267.567,251.452 268.081,252.026 268.596,252.601 269.11,253.175 269.624,253.749 270.139,254.323 270.653,254.898 271.167,255.472 271.682,256.046 
  272.196,256.621 272.71,257.195 273.225,257.769 273.739,258.343 274.253,258.918 274.768,259.492 275.282,260.066 275.797,260.641 276.311,261.215 276.825,261.789 
  277.34,262.363 277.854,262.938 278.368,263.512 278.883,264.086 279.397,264.661 279.911,265.235 280.426,265.809 280.94,266.383 281.454,266.958 281.969,267.532 
  282.483,268.106 282.997,268.681 283.512,269.255 284.026,269.829 284.541,270.403 285.055,270.978 285.569,271.552 286.084,272.126 286.598,272.7 287.112,273.275 
  287.627,273.849 288.141,274.423 288.655,274.998 289.17,275.572 289.684,276.146 290.198,276.72 290.713,277.295 291.227,277.869 291.741,278.443 292.256,279.018 
  292.77,279.592 293.285,280.166 293.799,280.74 294.313,281.315 294.828,281.889 295.342,282.463 295.856,283.038 296.371,283.612 296.885,284.186 297.399,284.76 
  297.914,285.335 298.428,285.909 298.942,286.483 299.457,287.058 299.971,287.632 300.485,288.206 301,288.78 301.514,289.355 302.028,289.929 302.543,290.503 
  303.057,291.077 303.572,291.652 304.086,292.226 304.6,292.8 305.115,293.375 305.629,293.949 306.143,294.523 306.658,295.097 307.172,295.672 307.686,296.246 
  308.201,296.82 308.715,297.395 309.229,297.969 309.744,298.543 310.258,299.117 310.772,299.692 311.287,300.266 311.801,300.84 312.316,301.415 312.83,301.989 
  313.344,302.563 313.859,303.137 314.373,303.712 314.887,304.286 315.402,304.86 315.916,305.435 316.43,306.009 316.945,306.583 317.459,307.157 317.973,307.732 
  318.488,308.306 319.002,308.88 319.516,309.454 320.031,310.029 320.545,310.603 321.059,311.177 321.574,311.752 322.088,312.326 322.603,312.9 323.117,313.474 
  323.631,314.049 324.146,314.623 324.66,315.197 325.174,315.772 325.689,316.346 326.203,316.92 326.717,317.494 327.232,318.069 327.746,318.643 328.26,319.217 
  328.775,319.792 329.289,320.366 329.803,320.94 330.318,321.514 330.832,322.089 331.347,322.663 331.861,323.237 332.375,323.811 332.89,324.386 333.404,324.96 
  333.918,325.534 334.433,326.109 334.947,326.683 335.461,327.257 335.976,327.831 336.49,328.406 337.004,328.98 337.519,329.554 338.033,330.129 338.547,330.703 
  339.062,331.277 339.576,331.851 340.09,313.474 340.605,314.049 341.119,314.623 341.634,315.197 342.148,315.772 342.662,316.346 343.177,316.92 343.691,317.494 
  344.205,318.069 344.72,318.643 345.234,319.217 345.748,319.792 346.263,320.366 346.777,320.94 347.291,321.514 347.806,322.089 348.32,322.663 348.834,323.237 
  349.349,323.811 349.863,324.386 350.378,324.96 350.892,325.534 351.406,326.109 351.921,326.683 352.435,327.257 352.949,327.831 353.464,328.406 353.978,328.98 
  354.492,329.554 355.007,330.129 355.521,330.703 356.035,331.277 356.55,331.851 357.064,332.426 357.578,333 358.093,333.574 358.607,334.149 359.121,334.723 
  359.636,335.297 360.15,335.871 360.665,336.446 361.179,337.02 361.693,337.594 362.208,338.169 362.722,338.743 363.236,339.317 363.751,339.891 364.265,340.466 
  364.779,341.04 365.294,341.614 365.808,342.188 366.322,342.763 366.837,343.337 367.351,343.911 367.865,344.486 368.38,345.06 368.894,345.634 369.409,346.208 
  369.923,327.831 370.437,328.406 370.952,328.98 371.466,329.554 371.98,330.129 372.495,330.703 373.009,331.277 373.523,331.851 374.038,332.426 374.552,333 
  375.066,333.574 375.581,334.149 376.095,334.723 376.609,335.297 377.124,335.871 377.638,336.446 378.152,337.02 378.667,337.594 379.181,338.169 379.696,338.743 
  380.21,339.317 380.724,339.891 381.239,340.466 381.753,341.04 382.267,341.614 382.782,342.188 383.296,342.763 383.81,343.337 384.325,343.911 384.839,344.486 
  385.353,345.06 385.868,345.634 386.382,346.208 386.896,346.783 387.411,347.357 387.925,347.931 388.44,329.554 388.954,330.129 389.468,330.703 389.983,331.277 
  390.497,331.851 391.011,332.426 391.526,333 392.04,333.574 392.554,334.149 393.069,334.723 393.583,335.297 394.097,335.871 394.612,336.446 395.126,337.02 
  395.64,337.594 396.155,338.169 396.669,338.743 397.183,339.317 397.698,339.891 398.212,340.466 398.727,341.04 399.241,341.614 399.755,342.188 400.27,342.763 
  400.784,343.337 401.298,343.911 401.813,344.486 402.327,345.06 402.841,345.634 403.356,346.208 403.87,346.783 404.384,347.357 404.899,347.931 405.413,348.506 
  405.927,330.129 406.442,330.703 406.956,331.277 407.471,331.851 407.985,332.426 408.499,333 409.014,333.574 409.528,334.149 410.042,334.723 410.557,335.297 
  411.071,335.871 411.585,336.446 412.1,337.02 412.614,337.594 413.128,338.169 413.643,338.743 414.157,339.317 414.671,339.891 415.186,340.466 415.7,341.04 
  416.215,341.614 416.729,342.188 417.243,342.763 417.758,343.337 418.272,343.911 418.786,344.486 419.301,345.06 419.815,345.634 420.329,346.208 420.844,346.783 
  421.358,347.357 421.872,347.931 422.387,348.506 422.901,349.08 423.415,330.703 423.93,331.277 424.444,331.851 424.958,332.426 425.473,333 425.987,333.574 
  426.502,334.149 427.016,334.723 427.53,335.297 428.045,335.871 428.559,336.446 429.073,337.02 429.588,337.594 430.102,338.169 430.616,338.743 431.131,339.317 
  431.645,339.891 432.159,340.466 432.674,341.04 433.188,341.614 433.702,342.188 434.217,342.763 434.731,343.337 435.246,343.911 435.76,344.486 436.274,345.06 
  436.789,345.634 437.303,346.208 437.817,346.783 438.332,347.357 438.846,347.931 439.36,348.506 439.875,349.08 440.389,349.654 440.903,331.277 441.418,331.851 
  441.932,332.426 442.446,333 442.961,333.574 443.475,334.149 443.989,334.723 444.504,335.297 445.018,335.871 445.533,336.446 446.047,337.02 446.561,337.594 
  447.076,338.169 447.59,338.743 448.104,339.317 448.619,339.891 449.133,340.466 449.647,341.04 450.162,341.614 450.676,342.188 451.19,342.763 451.705,343.337 
  452.219,343.911 452.733,344.486 453.248,345.06 453.762,345.634 454.277,346.208 454.791,346.783 455.305,347.357 455.82,347.931 456.334,348.506 456.848,349.08 
  457.363,349.654 457.877,350.228 458.391,331.851 458.906,332.426 459.42,333 459.934,333.574 460.449,334.149 460.963,334.723 461.477,335.297 461.992,335.871 
  462.506,336.446 463.02,337.02 463.535,337.594 464.049,338.169 464.564,338.743 465.078,339.317 465.592,339.891 466.107,340.466 466.621,341.04 467.135,341.614 
  467.65,342.188 468.164,342.763 468.678,343.337 469.193,343.911 469.707,344.486 470.221,345.06 470.736,345.634 471.25,346.208 471.764,346.783 472.279,347.357 
  472.793,347.931 473.308,348.506 473.822,349.08 474.336,349.654 474.851,350.228 475.365,350.803 475.879,332.426 476.394,333 476.908,333.574 477.422,334.149 
  477.937,334.723 478.451,335.297 478.965,335.871 479.48,336.446 479.994,337.02 480.508,337.594 481.023,338.169 481.537,338.743 482.051,339.317 482.566,339.891 
  483.08,340.466 483.595,341.04 484.109,341.614 484.623,342.188 485.138,342.763 485.652,343.337 486.166,343.911 486.681,344.486 487.195,345.06 487.709,345.634 
  488.224,346.208 488.738,346.783 489.252,347.357 489.767,347.931 490.281,348.506 490.795,349.08 491.31,349.654 491.824,350.228 492.339,350.803 492.853,351.377 
  493.367,333 493.882,333.574 494.396,334.149 494.91,334.723 495.425,335.297 495.939,335.871 496.453,336.446 496.968,337.02 497.482,337.594 497.996,338.169 
  498.511,338.743 499.025,339.317 499.539,339.891 500.054,340.466 500.568,341.04 501.082,341.614 501.597,342.188 502.111,342.763 502.626,343.337 503.14,343.911 
  503.654,344.486 504.169,345.06 504.683,345.634 505.197,346.208 505.712,346.783 506.226,347.357 506.74,347.931 507.255,348.506 507.769,349.08 508.283,349.654 
  508.798,350.228 509.312,350.803 509.826,351.377 510.341,351.951 510.855,333.574 511.37,334.149 511.884,334.723 512.398,335.297 512.913,335.871 513.427,336.446 
  513.941,337.02 514.456,337.594 514.97,338.169 515.484,338.743 515.999,339.317 516.513,339.891 517.027,340.466 517.542,341.04 518.056,341.614 518.57,342.188 
  519.085,342.763 519.599,343.337 520.113,343.911 520.628,344.486 521.142,345.06 521.657,345.634 522.171,346.208 522.685,346.783 523.2,347.357 523.714,347.931 
  524.228,348.506 524.743,349.08 525.257,349.654 525.771,350.228 526.286,350.803 526.8,351.377 527.314,351.951 527.829,352.526 528.343,334.149 528.857,334.723 
  529.372,335.297 529.886,335.871 530.401,336.446 530.915,337.02 531.429,337.594 531.944,338.169 532.458,338.743 532.972,339.317 533.487,339.891 534.001,340.466 
  534.515,341.04 535.03,341.614 535.544,342.188 536.058,342.763 536.573,343.337 537.087,343.911 537.601,344.486 538.116,345.06 538.63,345.634 539.144,346.208 
  539.659,346.783 540.173,347.357 540.688,347.931 541.202,348.506 541.716,349.08 542.231,349.654 542.745,350.228 543.259,350.803 543.774,351.377 544.288,351.951 
  544.802,352.526 545.317,353.1 545.831,334.723 546.345,335.297 546.86,335.871 547.374,336.446 547.888,337.02 548.403,337.594 548.917,338.169 549.432,338.743 
  549.946,339.317 550.46,339.891 550.975,340.466 551.489,341.04 552.003,341.614 552.518,342.188 553.032,342.763 553.546,343.337 554.061,343.911 554.575,344.486 
  555.089,345.06 555.604,345.634 556.118,346.208 556.632,346.783 557.147,347.357 557.661,347.931 558.176,348.506 558.69,349.08 559.204,349.654 559.719,350.228 
  560.233,350.803 560.747,351.377 561.262,351.951 561.776,352.526 562.29,353.1 562.805,353.674 563.319,335.297 563.833,335.871 564.348,336.446 564.862,337.02 
  565.376,337.594 565.891,338.169 566.405,338.743 566.919,339.317 567.434,339.891 567.948,340.466 568.463,341.04 568.977,341.614 569.491,342.188 570.006,342.763 
  570.52,343.337 571.034,343.911 571.549,344.486 572.063,345.06 
  "/>
<polygon clip-path="url(#clip00)" points="
484.667,53.617 554.783,53.617 554.783,23.377 484.667,23.377 
  " fill="#ffffff" fill-opacity="1"/>
<polyline clip-path="url(#clip00)" style="stroke:#00002d; stroke-width:0.768; stroke-opacity:1; fill:none" points="
  484.667,53.617 554.783,53.617 554.783,23.377 484.667,23.377 484.667,53.617 
  "/>
<polyline clip-path="url(#clip00)" style="stroke:#0099ff; stroke-width:0.768; stroke-opacity:1; fill:none" points="
  490.427,38.497 524.987,38.497 
  "/>
<g clip-path="url(#clip00)">
<text style="fill:#00002d; fill-opacity:1; font-family:Arial,Helvetica Neue,Helvetica,sans-serif; font-size:12; text-anchor:start;" transform="rotate(0, 530.747, 42.997)" x="530.747" y="42.997">y1</text>
</g>
</svg>
