<?xml version="1.0" encoding="UTF-8"?>
<svg xmlns="http://www.w3.org/2000/svg"
     xmlns:xlink="http://www.w3.org/1999/xlink"
     xmlns:gadfly="http://www.gadflyjl.org/ns"
     version="1.2"
     width="203.2mm" height="101.6mm" viewBox="0 0 203.2 101.6"
     stroke="none"
     fill="#000000"
     stroke-width="0.3"
     font-size="3.88"
>
<g class="plotroot xscalable yscalable" id="img-dec68655-1">
  <g class="guide xlabels" font-size="2.82" font-family="'PT Sans Caption','Helvetica Neue','Helvetica',sans-serif" fill="#6C606B" id="img-dec68655-2">
    <text x="20.06" y="93.13" text-anchor="middle" dy="0.6em">0</text>
    <text x="108.13" y="93.13" text-anchor="middle" dy="0.6em">500</text>
    <text x="196.2" y="93.13" text-anchor="middle" dy="0.6em">1000</text>
  </g>
<g clip-path="url(#img-dec68655-3)">
  <g id="img-dec68655-4">
    <g pointer-events="visible" opacity="1" fill="#000000" fill-opacity="0.000" stroke="#000000" stroke-opacity="0.000" class="guide background" id="img-dec68655-5">
      <rect x="18.06" y="5" width="180.14" height="87.13"/>
    </g>
    <g class="guide ygridlines xfixed" stroke-dasharray="0.5,0.5" stroke-width="0.2" stroke="#D0D0E0" id="img-dec68655-6">
      <path fill="none" d="M18.06,90.13 L 198.2 90.13"/>
      <path fill="none" d="M18.06,73.5 L 198.2 73.5"/>
      <path fill="none" d="M18.06,56.88 L 198.2 56.88"/>
      <path fill="none" d="M18.06,40.25 L 198.2 40.25"/>
      <path fill="none" d="M18.06,23.63 L 198.2 23.63"/>
      <path fill="none" d="M18.06,7 L 198.2 7"/>
    </g>
    <g class="guide xgridlines yfixed" stroke-dasharray="0.5,0.5" stroke-width="0.2" stroke="#D0D0E0" id="img-dec68655-7">
      <path fill="none" d="M20.06,5 L 20.06 92.13"/>
      <path fill="none" d="M108.13,5 L 108.13 92.13"/>
      <path fill="none" d="M196.2,5 L 196.2 92.13"/>
    </g>
    <g class="plotpanel" id="img-dec68655-8">
      <g stroke-width="0.3" fill="#000000" fill-opacity="0.000" class="geometry" stroke-dasharray="none" stroke="#00BFFF" id="img-dec68655-9">
        <path fill="none" d="M20.23,73.1 L 20.41 72.84 20.58 73.06 20.76 75.71 20.94 75.71 21.11 75.7 21.29 77.95 21.46 75.89 21.64 78.42 21.82 76.57 21.99 73.29 22.17 70.1 22.35 70.33 22.52 68.94 22.7 67.88 22.87 66.18 23.05 66.2 23.23 66.36 23.4 67.26 23.58 65.63 23.75 64.37 23.93 65.15 24.11 62.82 24.28 60.73 24.46 63.7 24.64 63.77 24.81 64.47 24.99 62.67 25.16 62.67 25.34 62.17 25.52 64.88 25.69 63.54 25.87 60.67 26.04 60.25 26.22 58.44 26.4 60.69 26.57 60.71 26.75 62.77 26.93 61.55 27.1 63.59 27.28 65.26 27.45 64.7 27.63 64.54 27.81 62.56 27.98 63.36 28.16 63.9 28.33 61.93 28.51 62.96 28.69 60.83 28.86 58.02 29.04 55.2 29.22 53.31 29.39 51.92 29.57 53.85 29.74 53.02 29.92 52.48 30.1 52.7 30.27 51.99 30.45 51.87 30.62 51.12 30.8 53.33 30.98 52.82 31.15 52.62 31.33 53.94 31.5 53.6 31.68 53.42 31.86 52.87 32.03 53.22 32.21 54.3 32.39 55.77 32.56 57.52 32.74 60.26 32.91 60.7 33.09 59.14 33.27 57.89 33.44 57.39 33.62 57.6 33.79 56.35 33.97 55.8 34.15 54.09 34.32 53.36 34.5 55.33 34.68 55.39 34.85 53.28 35.03 51.38 35.2 49.86 35.38 50.2 35.56 49.82 35.73 48.03 35.91 46.35 36.08 45.59 36.26 44.81 36.44 43.74 36.61 44.72 36.79 43.75 36.97 46.13 37.14 48.84 37.32 46.7 37.49 46.19 37.67 45.9 37.85 45.52 38.02 45.88 38.2 47.92 38.37 48.75 38.55 48.25 38.73 46.92 38.9 48.41 39.08 49.68 39.26 49.35 39.43 45.99 39.61 47.51 39.78 49.5 39.96 48.67 40.14 50.21 40.31 52.83 40.49 53.19 40.66 55.11 40.84 58.28 41.02 56.45 41.19 56.3 41.37 57.27 41.55 58.14 41.72 57.67 41.9 59.41 42.07 58.83 42.25 56.54 42.43 60.5 42.6 63.02 42.78 61.34 42.95 58.92 43.13 60.12 43.31 59.77 43.48 59.62 43.66 61.37 43.84 62.37 44.01 62.57 44.19 61.83 44.36 64.88 44.54 64.12 44.72 65.09 44.89 65 45.07 63.39 45.24 63.09 45.42 62.26 45.6 63.41 45.77 62.69 45.95 63.15 46.12 65 46.3 64.49 46.48 63.94 46.65 63.41 46.83 62.59 47.01 64.45 47.18 66.24 47.36 63.77 47.53 63.12 47.71 62.88 47.89 63.13 48.06 64.69 48.24 65.63 48.41 65.33 48.59 66.35 48.77 68.66 48.94 66.34 49.12 67.98 49.3 68.17 49.47 67.98 49.65 69.87 49.82 67.51 50 72.08 50.18 73.22 50.35 76.67 50.53 78.92 50.7 78.86 50.88 76.75 51.06 75.94 51.23 74.32 51.41 72.45 51.59 71.14 51.76 71.52 51.94 70.03 52.11 69.17 52.29 69.12 52.47 67.6 52.64 65.24 52.82 65.26 52.99 63.69 53.17 61.18 53.35 64.26 53.52 64.33 53.7 60.82 53.88 59.78 54.05 60.64 54.23 60.45 54.4 56.47 54.58 57.22 54.76 58.91 54.93 57.61 55.11 55.71 55.28 53.48 55.46 55.29 55.64 57.79 55.81 59.34 55.99 59.07 56.17 60.12 56.34 59.09 56.52 58.12 56.69 54.4 56.87 52.8 57.05 55.09 57.22 54.91 57.4 53.85 57.57 53.87 57.75 54.94 57.93 53.1 58.1 50.86 58.28 51.7 58.46 54.23 58.63 52.25 58.81 53.87 58.98 56.36 59.16 55.85 59.34 55.87 59.51 52.18 59.69 52.58 59.86 51.14 60.04 50.42 60.22 50.1 60.39 49.73 60.57 50.38 60.74 53.57 60.92 54.32 61.1 54.17 61.27 52.6 61.45 52 61.63 51.56 61.8 52.6 61.98 51.69 62.15 51.81 62.33 53.21 62.51 54.96 62.68 54.09 62.86 55.41 63.03 56.41 63.21 57.32 63.39 54.32 63.56 53.78 63.74 52.28 63.92 53.3 64.09 50.98 64.27 51.12 64.44 53.2 64.62 50.04 64.8 49.1 64.97 52.55 65.15 54.67 65.32 55.78 65.5 54.73 65.68 56.86 65.85 54.52 66.03 54.14 66.21 54.9 66.38 54.92 66.56 54.02 66.73 54.55 66.91 51.2 67.09 52.1 67.26 49.47 67.44 48.96 67.61 48.19 67.79 50.58 67.97 50.91 68.14 52.66 68.32 51.94 68.5 54.06 68.67 54.08 68.85 54.66 69.02 50.89 69.2 48.97 69.38 47.73 69.55 49.44 69.73 47.49 69.9 50.52 70.08 50.21 70.26 49.25 70.43 48.66 70.61 45.42 70.79 46.63 70.96 46.72 71.14 44.32 71.31 44.95 71.49 44.64 71.67 46.67 71.84 47.99 72.02 49.55 72.19 51.52 72.37 51.51 72.55 51.17 72.72 50.93 72.9 49.98 73.08 50.4 73.25 51.73 73.43 51.84 73.6 50.19 73.78 52.62 73.96 53.5 74.13 49.88 74.31 47.53 74.48 48.54 74.66 49.84 74.84 48.15 75.01 47.89 75.19 48 75.36 45.1 75.54 45.86 75.72 47.08 75.89 48.64 76.07 49.71 76.25 50.89 76.42 52.6 76.6 52.79 76.77 52.43 76.95 51.73 77.13 51.11 77.3 50.83 77.48 51.28 77.65 50.24 77.83 51.22 78.01 52.25 78.18 50.7 78.36 46.83 78.54 46.26 78.71 43.77 78.89 43.47 79.06 41.58 79.24 41.17 79.42 39.84 79.59 42.64 79.77 45.49 79.94 48.07 80.12 47.03 80.3 48.42 80.47 48.05 80.65 48.55 80.83 48.48 81 49.84 81.18 48.03 81.35 48.42 81.53 47.57 81.71 48.43 81.88 48.99 82.06 47.29 82.23 49.46 82.41 49.14 82.59 48.87 82.76 46.79 82.94 49.05 83.12 50.87 83.29 50.1 83.47 48.32 83.64 47.07 83.82 45.13 84 46.36 84.17 45.66 84.35 44.82 84.52 42.63 84.7 43.28 84.88 45.62 85.05 47.95 85.23 51.01 85.41 51.91 85.58 53.77 85.76 54.76 85.93 57.26 86.11 57.85 86.29 55.26 86.46 55.06 86.64 53.46 86.81 50.85 86.99 50.68 87.17 47.21 87.34 48.71 87.52 48.44 87.7 49.17 87.87 50.29 88.05 47.99 88.22 50.07 88.4 47.07 88.58 50.05 88.75 48.31 88.93 47.07 89.1 49.91 89.28 49.17 89.46 49.42 89.63 47.45 89.81 48.94 89.98 48.27 90.16 48.68 90.34 47.13 90.51 45.96 90.69 46.66 90.87 44.44 91.04 42.67 91.22 44.24 91.39 44.6 91.57 43.95 91.75 43.14 91.92 42.43 92.1 40.84 92.27 42.68 92.45 41.63 92.63 39.33 92.8 40.54 92.98 39.93 93.16 41.54 93.33 41.92 93.51 41.38 93.68 41.4 93.86 40.27 94.04 37.54 94.21 35.99 94.39 35.67 94.56 37.76 94.74 36.8 94.92 35.3 95.09 32.96 95.27 35.6 95.45 38.19 95.62 40.51 95.8 43.34 95.97 44.12 96.15 43.3 96.33 44.17 96.5 45.44 96.68 45.96 96.85 45.87 97.03 45.72 97.21 42.96 97.38 42.75 97.56 42.75 97.74 40.09 97.91 41.75 98.09 39.16 98.26 38.64 98.44 39.52 98.62 42.86 98.79 42.38 98.97 43.28 99.14 45.03 99.32 47.29 99.5 45.7 99.67 47.39 99.85 45.76 100.03 46.1 100.2 44.31 100.38 45.57 100.55 46.59 100.73 45.06 100.91 44.87 101.08 45.91 101.26 45.13 101.43 45.62 101.61 45.68 101.79 48.1 101.96 47.5 102.14 50.37 102.32 49.93 102.49 47.73 102.67 46.2 102.84 42.16 103.02 37.35 103.2 39 103.37 40.42 103.55 42.33 103.72 40.23 103.9 41.96 104.08 43.24 104.25 44.63 104.43 44.66 104.6 44.11 104.78 45.39 104.96 45.11 105.13 43.29 105.31 42.08 105.49 42.9 105.66 40.17 105.84 39.41 106.01 35.96 106.19 36.37 106.37 31.55 106.54 30.2 106.72 29.92 106.89 30.15 107.07 30.91 107.25 30.79 107.42 32.15 107.6 36.97 107.78 38.45 107.95 38.93 108.13 39.21 108.3 41.34 108.48 43.8 108.66 43.76 108.83 40.96 109.01 41.45 109.18 43.25 109.36 42.86 109.54 44.89 109.71 42.31 109.89 44.21 110.07 42.05 110.24 42.69 110.42 41.75 110.59 39.51 110.77 37.41 110.95 35.94 111.12 37.51 111.3 39.5 111.47 38.95 111.65 36.95 111.83 34.86 112 35.38 112.18 33.95 112.36 34.7 112.53 36.54 112.71 38.73 112.88 41.65 113.06 43.1 113.24 45.57 113.41 45.46 113.59 39.15 113.76 40.57 113.94 41.06 114.12 39.31 114.29 37.45 114.47 37.25 114.65 36.98 114.82 37.23 115 37.55 115.17 34.44 115.35 32.85 115.53 30.18 115.7 26.75 115.88 29.47 116.05 29.01 116.23 29.75 116.41 30.85 116.58 30.22 116.76 33.39 116.93 33.1 117.11 34.95 117.29 35.36 117.46 36.61 117.64 36.19 117.82 35.53 117.99 35.15 118.17 34.32 118.34 34.42 118.52 36.79 118.7 35.99 118.87 34.49 119.05 31.25 119.22 33.18 119.4 34.49 119.58 37.18 119.75 35.56 119.93 37.99 120.11 35.96 120.28 39.77 120.46 43.94 120.63 44.76 120.81 44.02 120.99 44.25 121.16 43.72 121.34 48.26 121.51 49.96 121.69 50.66 121.87 49.99 122.04 46.22 122.22 47.86 122.4 48.42 122.57 50.23 122.75 51.38 122.92 50.81 123.1 46.52 123.28 43.61 123.45 43.11 123.63 44.38 123.8 44.39 123.98 43.39 124.16 40.88 124.33 42.67 124.51 40.86 124.69 40.62 124.86 37.85 125.04 37.08 125.21 36.32 125.39 33.19 125.57 35.35 125.74 35.85 125.92 38.23 126.09 38.76 126.27 39.11 126.45 40.48 126.62 42.21 126.8 42.58 126.98 45.05 127.15 48.31 127.33 47.22 127.5 45.04 127.68 47.77 127.86 48.12 128.03 48.95 128.21 50.39 128.38 50.5 128.56 51.91 128.74 51.07 128.91 55.44 129.09 56.75 129.27 52.88 129.44 50.75 129.62 52.32 129.79 50.3 129.97 50.49 130.15 50.42 130.32 51.02 130.5 50.21 130.67 52.03 130.85 52.16 131.03 49.4 131.2 48.11 131.38 47.16 131.55 47.02 131.73 47.41 131.91 49.27 132.08 49.82 132.26 50.02 132.44 51.75 132.61 52.3 132.79 53.12 132.96 52.92 133.14 49.17 133.32 51.39 133.49 48.46 133.67 47.42 133.84 48.1 134.02 47.8 134.2 44.97 134.37 46.59 134.55 47 134.73 46.45 134.9 47.03 135.08 48.1 135.25 47.89 135.43 48.33 135.61 47.83 135.78 47.82 135.96 45.99 136.13 46.3 136.31 46.74 136.49 48.02 136.66 48.13 136.84 43.62 137.02 43.79 137.19 46.22 137.37 45.22 137.54 42.6 137.72 44.04 137.9 43.81 138.07 41.88 138.25 42.29 138.42 42.66 138.6 43.3 138.78 43.54 138.95 43.63 139.13 45.94 139.31 46.18 139.48 47.81 139.66 47.5 139.83 47.17 140.01 43.36 140.19 43.55 140.36 44.38 140.54 42.75 140.71 42.39 140.89 40.54 141.07 39.72 141.24 40.57 141.42 39.74 141.6 36.01 141.77 33.18 141.95 33.99 142.12 33.4 142.3 35.23 142.48 34 142.65 32.22 142.83 34.7 143 33.43 143.18 35.69 143.36 36.25 143.53 36.63 143.71 35.73 143.89 36.23 144.06 36.09 144.24 33.63 144.41 30.95 144.59 26.95 144.77 28.87 144.94 25.53 145.12 24.19 145.29 23.02 145.47 20.02 145.65 21.13 145.82 19.84 146 17.53 146.17 21.01 146.35 22.84 146.53 21.36 146.7 21.53 146.88 23.95 147.06 24.15 147.23 24.02 147.41 25.47 147.58 26.68 147.76 25.74 147.94 27.91 148.11 27.28 148.29 28.28 148.46 29.16 148.64 28.49 148.82 28.89 148.99 30.41 149.17 30.58 149.35 29.77 149.52 31.89 149.7 29.31 149.87 29.67 150.05 25.71 150.23 27.26 150.4 28.03 150.58 26 150.75 26.7 150.93 27.32 151.11 26.3 151.28 27.04 151.46 27.01 151.64 25.63 151.81 24.1 151.99 25.16 152.16 27.08 152.34 27.56 152.52 29.39 152.69 30.14 152.87 33.01 153.04 31.31 153.22 30.41 153.4 28.01 153.57 31.58 153.75 32.11 153.93 34.08 154.1 35.93 154.28 34.39 154.45 32.73 154.63 30.67 154.81 29.96 154.98 31.9 155.16 33.44 155.33 33.08 155.51 33.43 155.69 30.63 155.86 29.29 156.04 28.18 156.22 30.43 156.39 30.95 156.57 30.2 156.74 30.38 156.92 31.68 157.1 31.78 157.27 31.64 157.45 30.08 157.62 32.09 157.8 30.68 157.98 32.47 158.15 33.63 158.33 31.69 158.51 30.63 158.68 29.79 158.86 30.62 159.03 32.78 159.21 29.84 159.39 31.93 159.56 30.47 159.74 29.97 159.91 30.14 160.09 27.46 160.27 27.67 160.44 30.16 160.62 32.21 160.79 31.61 160.97 32.22 161.15 30.7 161.32 30.58 161.5 29.92 161.68 29.2 161.85 30.33 162.03 31.73 162.2 32.34 162.38 33.23 162.56 34.37 162.73 29.9 162.91 30 163.08 28.8 163.26 27.86 163.44 28.18 163.61 27.46 163.79 26.83 163.97 27.02 164.14 27.09 164.32 26.19 164.49 25.57 164.67 25.11 164.85 25.65 165.02 25.32 165.2 25.95 165.37 26.03 165.55 26.02 165.73 25.82 165.9 27.54 166.08 28.56 166.26 28.71 166.43 28.44 166.61 31.98 166.78 32.31 166.96 29.33 167.14 30.34 167.31 26.55 167.49 27.62 167.66 27.12 167.84 28.2 168.02 28.46 168.19 31.57 168.37 32.42 168.55 31.15 168.72 32.48 168.9 33.76 169.07 35.61 169.25 32.81 169.43 34.26 169.6 34.77 169.78 34.9 169.95 32.85 170.13 34.05 170.31 36.99 170.48 38.06 170.66 36.65 170.84 37.32 171.01 38.13 171.19 40.31 171.36 38.68 171.54 37 171.72 33.41 171.89 35.26 172.07 32.8 172.24 32.54 172.42 33.75 172.6 32.87 172.77 35.32 172.95 35.97 173.13 34.23 173.3 34.43 173.48 33.6 173.65 35.36 173.83 36.85 174.01 39.12 174.18 38.28 174.36 39.06 174.53 36.95 174.71 38.91 174.89 37.57 175.06 37.04 175.24 35.25 175.41 33.28 175.59 34.57 175.77 35.34 175.94 35.43 176.12 36 176.3 37.9 176.47 36.7 176.65 39.26 176.82 41.31 177 41.31 177.18 37.85 177.35 37.52 177.53 35.71 177.7 36.45 177.88 34.68 178.06 32.74 178.23 33.3 178.41 34.44 178.59 33.24 178.76 33.58 178.94 37.01 179.11 35.74 179.29 34.17 179.47 32.47 179.64 33.54 179.82 32.57 179.99 30.7 180.17 30.3 180.35 30.04 180.52 27.55 180.7 30.07 180.88 31.19 181.05 31.32 181.23 30.98 181.4 33.52 181.58 33.26 181.76 34.15 181.93 38.05 182.11 37.13 182.28 34.96 182.46 35.67 182.64 35.6 182.81 37.55 182.99 38.12 183.17 37.7 183.34 37.59 183.52 41.62 183.69 44.4 183.87 44.56 184.05 44.54 184.22 41.14 184.4 42.42 184.57 42.04 184.75 42.85 184.93 41.28 185.1 40.6 185.28 38.63 185.46 35.5 185.63 33.5 185.81 31.94 185.98 35.51 186.16 34.25 186.34 33.91 186.51 35.34 186.69 38.19 186.86 35.54 187.04 34.16 187.22 37.85 187.39 35.08 187.57 34.2 187.75 33.45 187.92 32.82 188.1 32.15 188.27 29.16 188.45 26.44 188.63 25.19 188.8 26.77 188.98 28.48 189.15 30.86 189.33 29.41 189.51 28.75 189.68 31.06 189.86 30.91 190.03 30.85 190.21 29.06 190.39 28.37 190.56 26.21 190.74 25.69 190.92 26.04 191.09 28.09 191.27 29.37 191.44 29.15 191.62 27.92 191.8 29.39 191.97 31.68 192.15 33.24 192.32 37.5 192.5 37.78 192.68 35.09 192.85 35.47 193.03 34.74 193.21 35.3 193.38 34.83 193.56 32.23 193.73 34.44 193.91 33.75 194.09 32.78 194.26 31.84 194.44 32.94 194.61 30.97 194.79 31.71 194.97 30.59 195.14 29.43 195.32 29.73 195.5 30.96 195.67 30.66 195.85 32.35 196.02 33.53 196.2 34.66"/>
      </g>
    </g>
  </g>
</g>
  <g class="guide ylabels" font-size="2.82" font-family="'PT Sans Caption','Helvetica Neue','Helvetica',sans-serif" fill="#6C606B" id="img-dec68655-10">
    <text x="17.06" y="90.13" text-anchor="end" dy="0.35em">-10</text>
    <text x="17.06" y="73.5" text-anchor="end" dy="0.35em">0</text>
    <text x="17.06" y="56.88" text-anchor="end" dy="0.35em">10</text>
    <text x="17.06" y="40.25" text-anchor="end" dy="0.35em">20</text>
    <text x="17.06" y="23.63" text-anchor="end" dy="0.35em">30</text>
    <text x="17.06" y="7" text-anchor="end" dy="0.35em">40</text>
  </g>
  <g font-size="3.88" font-family="'PT Sans','Helvetica Neue','Helvetica',sans-serif" fill="#564A55" stroke="#000000" stroke-opacity="0.000" id="img-dec68655-11">
    <text x="9.47" y="48.57" text-anchor="end" dy="0.35em">y</text>
  </g>
</g>
<defs>
  <clipPath id="img-dec68655-3">
  <path d="M18.06,5 L 198.2 5 198.2 92.13 18.06 92.13" />
</clipPath>
</defs>
</svg>
